SplineFontDB: 3.1
FontName: Monda-Medium
FullName: Monda-Medium
FamilyName: Monda Medium
Weight: Book
Version: 1.000;PS (version unavailable);hotconv 1.0.57;makeotf.lib2.0.21895 DEVELOPMENT
ItalicAngle: 0
UnderlinePosition: 0
UnderlineWidth: 0
Ascent: 1638
Descent: 410
sfntRevision: 0x00010000
LayerCount: 2
Layer: 0 1 "Back"  1 0
Layer: 1 1 "Fore"  0 0
XUID: [1021 14 500265001 1154996]
FSType: 8
OS2Version: 3
OS2_WeightWidthSlopeOnly: 0
OS2_UseTypoMetrics: 1
CreationTime: 1352186100
ModificationTime: 1352248194
PfmFamily: 17
TTFWeight: 400
TTFWidth: 5
LineGap: 0
VLineGap: 0
Panose: 2 0 7 3 0 0 0 0 0 0
OS2TypoAscent: 1638
OS2TypoAOffset: 0
OS2TypoDescent: -410
OS2TypoDOffset: 0
OS2TypoLinegap: 0
OS2WinAscent: 2361
OS2WinAOffset: 0
OS2WinDescent: 572
OS2WinDOffset: 0
HheadAscent: 2361
HheadAOffset: 0
HheadDescent: -572
HheadDOffset: 0
OS2SubXSize: 1331
OS2SubYSize: 1228
OS2SubXOff: 0
OS2SubYOff: 153
OS2SupXSize: 1331
OS2SupYSize: 1228
OS2SupXOff: 0
OS2SupYOff: 716
OS2StrikeYSize: 0
OS2StrikeYPos: 650
OS2Vendor: 'newt'
OS2CodePages: 00000001.00000000
OS2UnicodeRanges: 0000002f.0000004c.00000002.00000000
Lookup: 258 0 0 "'kern' Horizontal Kerning lookup 0"  {"'kern' Horizontal Kerning lookup 0 subtable"  } ['kern' ('DFLT' <'dflt' > ) ]
DEI: 91125
ShortTable: maxp 16
  1
  0
  142
  91
  7
  0
  0
  1
  0
  0
  0
  0
  512
  1023
  0
  0
EndShort
LangName: 1033 "" "" "Regular" "1.000;newt;Monda-Medium" "" "Version 1.000;PS (version unavailable);hotconv 1.0.57;makeotf.lib2.0.21895 DEVELOPMENT" "" "" "" "" "" "" "" "" "" "" "Monda" "Medium" 
Encoding: UnicodeBmp
Compacted: 1
UnicodeInterp: none
NameList: Adobe Glyph List
DisplaySize: -48
AntiAlias: 1
FitToEm: 1
WinInfo: 0 17 9
BeginChars: 65541 142

StartChar: .notdef
Encoding: 65536 -1 0
Width: 1024
Flags: W
LayerCount: 2
UndoRedoHistory
Layer: 1
Undoes
UndoOperation
Index: 0
Type: 1
WasModified: 0
WasOrder2: 1
Width: 1024
VWidth: 2048
LBearingChange: 0
UnicodeEnc: 0
InstructionsLength: 0
SplineSet
102 0 m 1,0,-1
 922 0 l 1,1,-1
 922 1092 l 1,2,-1
 102 1092 l 1,3,-1
 102 0 l 1,0,-1
204 102 m 1,4,-1
 204 990 l 1,5,-1
 820 990 l 1,6,-1
 820 102 l 1,7,-1
 204 102 l 1,4,-1
EndSplineSet
EndUndoOperation
EndUndoes
Redoes
EndRedoes
EndUndoRedoHistory
Fore
SplineSet
204 102 m 1,0,-1
 204 990 l 1,1,-1
 820 990 l 1,2,-1
 820 102 l 1,3,-1
 204 102 l 1,0,-1
102 0 m 1,4,-1
 922 0 l 1,5,-1
 922 1092 l 1,6,-1
 102 1092 l 1,7,-1
 102 0 l 1,4,-1
EndSplineSet
EndChar

StartChar: Eth
Encoding: 208 208 1
Width: 1124
Flags: W
LayerCount: 2
UndoRedoHistory
Layer: 1
Undoes
UndoOperation
Index: 0
Type: 1
WasModified: 0
WasOrder2: 1
Width: 1124
VWidth: 2048
LBearingChange: 0
UnicodeEnc: 0
InstructionsLength: 0
SplineSet
392 196 m 1,0,1
 566 197 566 197 625.5 217 c 128,-1,2
 685 237 685 237 685 324 c 2,3,-1
 685 1149 l 2,4,5
 685 1220 685 1220 611.5 1241 c 128,-1,6
 538 1262 538 1262 387 1262 c 2,7,-1
 368 1262 l 1,8,-1
 368 829 l 1,9,-1
 528 829 l 1,10,-1
 528 688 l 1,11,-1
 368 688 l 1,12,-1
 368 197 l 1,13,14
 369 197 369 197 380 196.5 c 128,-1,15
 391 196 391 196 392 196 c 1,16,-1
 392 196 l 1,0,1
80 0 m 1,17,-1
 80 688 l 1,18,-1
 9 688 l 1,19,-1
 9 829 l 1,20,-1
 80 829 l 1,21,-1
 80 1459 l 1,22,-1
 399 1459 l 2,23,24
 827 1459 827 1459 940.5 1355.5 c 128,-1,25
 1054 1252 1054 1252 1054 1021 c 2,26,-1
 1054 467 l 2,27,28
 1054 230 1054 230 948 115 c 128,-1,29
 842 0 842 0 394 0 c 2,30,-1
 80 0 l 1,17,-1
EndSplineSet
EndUndoOperation
EndUndoes
Redoes
EndRedoes
EndUndoRedoHistory
Fore
SplineSet
80 0 m 1,0,-1
 80 688 l 1,1,-1
 9 688 l 1,2,-1
 9 829 l 1,3,-1
 80 829 l 1,4,-1
 80 1459 l 1,5,-1
 399 1459 l 2,6,7
 827 1459 827 1459 940.5 1355.5 c 128,-1,8
 1054 1252 1054 1252 1054 1021 c 2,9,-1
 1054 467 l 2,10,11
 1054 230 1054 230 948 115 c 128,-1,12
 842 0 842 0 394 0 c 2,13,-1
 80 0 l 1,0,-1
392 196 m 0,14,15
 566 197 566 197 625.5 217 c 128,-1,16
 685 237 685 237 685 324 c 2,17,-1
 685 1149 l 2,18,19
 685 1220 685 1220 611.5 1241 c 128,-1,20
 538 1262 538 1262 387 1262 c 2,21,-1
 368 1262 l 1,22,-1
 368 829 l 1,23,-1
 528 829 l 1,24,-1
 528 688 l 1,25,-1
 368 688 l 1,26,-1
 368 197 l 1,27,28
 369 197 369 197 380 196.5 c 128,-1,29
 391 196 391 196 392 196 c 0,14,15
EndSplineSet
EndChar

StartChar: eth
Encoding: 240 240 2
Width: 841
Flags: W
LayerCount: 2
UndoRedoHistory
Layer: 1
Undoes
UndoOperation
Index: 0
Type: 1
WasModified: 0
WasOrder2: 1
Width: 841
VWidth: 2048
LBearingChange: 0
UnicodeEnc: 0
InstructionsLength: 0
SplineSet
168 1309 m 1,0,-1
 232 1483 l 1,1,2
 396 1483 396 1483 500.5 1440.5 c 128,-1,3
 605 1398 605 1398 653 1341 c 1,4,-1
 766 1393 l 1,5,-1
 818 1285 l 1,6,-1
 711 1236 l 1,7,8
 736 1172 736 1172 750.5 1100.5 c 128,-1,9
 765 1029 765 1029 765 948 c 2,10,-1
 765 251 l 2,11,12
 765 126 765 126 667 53 c 128,-1,13
 569 -20 569 -20 411 -20 c 0,14,15
 257 -20 257 -20 162.5 53 c 128,-1,16
 68 126 68 126 68 251 c 2,17,-1
 68 768 l 2,18,19
 68 880 68 880 138 941 c 128,-1,20
 208 1002 208 1002 296 1002 c 0,21,22
 339 1002 339 1002 394 992 c 128,-1,23
 449 982 449 982 498 963 c 1,24,25
 497 1011 497 1011 491 1053 c 128,-1,26
 485 1095 485 1095 472 1129 c 1,27,-1
 286 1074 l 1,28,-1
 235 1182 l 1,29,-1
 386 1237 l 1,30,31
 341 1261 341 1261 287.5 1285 c 128,-1,32
 234 1309 234 1309 168 1309 c 1,33,-1
 168 1309 l 1,0,-1
501 753 m 2,34,35
 501 778 501 778 475.5 791.5 c 128,-1,36
 450 805 450 805 416 805 c 256,37,38
 382 805 382 805 356.5 791 c 128,-1,39
 331 777 331 777 331 748 c 2,40,-1
 331 254 l 2,41,42
 331 228 331 228 343 203 c 128,-1,43
 355 178 355 178 411 178 c 0,44,45
 470 178 470 178 485.5 202.5 c 128,-1,46
 501 227 501 227 501 254 c 2,47,-1
 501 753 l 2,34,35
EndSplineSet
EndUndoOperation
EndUndoes
Redoes
EndRedoes
EndUndoRedoHistory
Fore
SplineSet
501 753 m 2,0,1
 501 778 501 778 475.5 791.5 c 128,-1,2
 450 805 450 805 416 805 c 128,-1,3
 382 805 382 805 356.5 791 c 128,-1,4
 331 777 331 777 331 748 c 2,5,-1
 331 254 l 2,6,7
 331 228 331 228 343 203 c 128,-1,8
 355 178 355 178 411 178 c 0,9,10
 470 178 470 178 485.5 202.5 c 128,-1,11
 501 227 501 227 501 254 c 2,12,-1
 501 753 l 2,0,1
168 1309 m 1,13,-1
 232 1483 l 1,14,15
 396 1483 396 1483 500.5 1440.5 c 128,-1,16
 605 1398 605 1398 653 1341 c 1,17,-1
 766 1393 l 1,18,-1
 818 1285 l 1,19,-1
 711 1236 l 1,20,21
 736 1172 736 1172 750.5 1100.5 c 128,-1,22
 765 1029 765 1029 765 948 c 2,23,-1
 765 251 l 2,24,25
 765 126 765 126 667 53 c 128,-1,26
 569 -20 569 -20 411 -20 c 0,27,28
 257 -20 257 -20 162.5 53 c 128,-1,29
 68 126 68 126 68 251 c 2,30,-1
 68 768 l 2,31,32
 68 880 68 880 138 941 c 128,-1,33
 208 1002 208 1002 296 1002 c 0,34,35
 339 1002 339 1002 394 992 c 128,-1,36
 449 982 449 982 498 963 c 1,37,38
 497 1011 497 1011 491 1053 c 128,-1,39
 485 1095 485 1095 472 1129 c 1,40,-1
 286 1074 l 1,41,-1
 235 1182 l 1,42,-1
 386 1237 l 1,43,44
 341 1261 341 1261 287.5 1285 c 128,-1,45
 234 1309 234 1309 168 1309 c 1,13,-1
EndSplineSet
EndChar

StartChar: Lslash
Encoding: 321 321 3
Width: 722
Flags: W
LayerCount: 2
UndoRedoHistory
Layer: 1
Undoes
UndoOperation
Index: 0
Type: 1
WasModified: 0
WasOrder2: 1
Width: 722
VWidth: 2048
LBearingChange: 0
UnicodeEnc: 0
InstructionsLength: 0
SplineSet
82 1459 m 1,0,-1
 370 1459 l 1,1,-1
 370 956 l 1,2,-1
 626 1031 l 1,3,-1
 626 889 l 1,4,-1
 370 814 l 1,5,-1
 370 194 l 1,6,-1
 700 194 l 1,7,-1
 700 0 l 1,8,-1
 82 0 l 1,9,-1
 82 708 l 1,10,-1
 11 679 l 1,11,-1
 11 822 l 1,12,-1
 82 850 l 1,13,-1
 82 1459 l 1,0,-1
EndSplineSet
EndUndoOperation
EndUndoes
Redoes
EndRedoes
EndUndoRedoHistory
Fore
SplineSet
82 1459 m 1,0,-1
 370 1459 l 1,1,-1
 370 956 l 1,2,-1
 626 1031 l 1,3,-1
 626 889 l 1,4,-1
 370 814 l 1,5,-1
 370 194 l 1,6,-1
 700 194 l 1,7,-1
 700 0 l 1,8,-1
 82 0 l 1,9,-1
 82 708 l 1,10,-1
 11 679 l 1,11,-1
 11 822 l 1,12,-1
 82 850 l 1,13,-1
 82 1459 l 1,0,-1
EndSplineSet
EndChar

StartChar: lslash
Encoding: 322 322 4
Width: 490
Flags: W
LayerCount: 2
UndoRedoHistory
Layer: 1
Undoes
UndoOperation
Index: 0
Type: 1
WasModified: 0
WasOrder2: 1
Width: 490
VWidth: 2048
LBearingChange: 0
UnicodeEnc: 0
InstructionsLength: 0
SplineSet
125 1459 m 1,0,-1
 389 1459 l 1,1,-1
 389 970 l 1,2,-1
 527 1020 l 1,3,-1
 527 881 l 1,4,-1
 389 831 l 1,5,-1
 389 0 l 1,6,-1
 125 0 l 1,7,-1
 125 733 l 1,8,-1
 -10 684 l 1,9,-1
 -10 824 l 1,10,-1
 125 872 l 1,11,-1
 125 1459 l 1,0,-1
EndSplineSet
EndUndoOperation
EndUndoes
Redoes
EndRedoes
EndUndoRedoHistory
Fore
SplineSet
125 1459 m 1,0,-1
 389 1459 l 1,1,-1
 389 970 l 1,2,-1
 527 1020 l 1,3,-1
 527 881 l 1,4,-1
 389 831 l 1,5,-1
 389 0 l 1,6,-1
 125 0 l 1,7,-1
 125 733 l 1,8,-1
 -10 684 l 1,9,-1
 -10 824 l 1,10,-1
 125 872 l 1,11,-1
 125 1459 l 1,0,-1
EndSplineSet
EndChar

StartChar: Yacute
Encoding: 221 221 5
Width: 1093
Flags: W
LayerCount: 2
UndoRedoHistory
Layer: 1
Undoes
UndoOperation
Index: 0
Type: 1
WasModified: 0
WasOrder2: 1
Width: 1093
VWidth: 2048
LBearingChange: 0
UnicodeEnc: 0
InstructionsLength: 0
SplineSet
0 1459 m 1,0,-1
 327 1459 l 1,1,-1
 545 833 l 1,2,3
 601 960 601 960 663 1146 c 128,-1,4
 725 1332 725 1332 781 1459 c 1,5,-1
 1093 1459 l 1,6,-1
 624 504 l 1,7,-1
 624 0 l 1,8,-1
 313 0 l 1,9,-1
 313 504 l 1,10,-1
 0 1459 l 1,0,-1
474 1848 m 1,11,-1
 739 1848 l 1,12,-1
 531 1529 l 1,13,-1
 370 1529 l 1,14,-1
 474 1848 l 1,11,-1
EndSplineSet
EndUndoOperation
EndUndoes
Redoes
EndRedoes
EndUndoRedoHistory
Fore
SplineSet
474 1848 m 1,0,-1
 739 1848 l 1,1,-1
 531 1529 l 1,2,-1
 370 1529 l 1,3,-1
 474 1848 l 1,0,-1
0 1459 m 1,4,-1
 327 1459 l 1,5,-1
 545 833 l 1,6,7
 601 960 601 960 663 1146 c 128,-1,8
 725 1332 725 1332 781 1459 c 1,9,-1
 1093 1459 l 1,10,-1
 624 504 l 1,11,-1
 624 0 l 1,12,-1
 313 0 l 1,13,-1
 313 504 l 1,14,-1
 0 1459 l 1,4,-1
EndSplineSet
EndChar

StartChar: Zcaron
Encoding: 381 381 6
Width: 955
Flags: W
LayerCount: 2
UndoRedoHistory
Layer: 1
Undoes
UndoOperation
Index: 0
Type: 1
WasModified: 0
WasOrder2: 1
Width: 955
VWidth: 2048
LBearingChange: 0
UnicodeEnc: 0
InstructionsLength: 0
SplineSet
105 1459 m 1,0,-1
 888 1459 l 1,1,-1
 888 1279 l 1,2,-1
 402 195 l 1,3,-1
 888 195 l 1,4,-1
 888 0 l 1,5,-1
 62 0 l 1,6,-1
 62 180 l 1,7,-1
 546 1265 l 1,8,-1
 105 1265 l 1,9,-1
 105 1459 l 1,0,-1
150 1819 m 1,10,-1
 378 1819 l 1,11,-1
 476 1676 l 1,12,-1
 578 1819 l 1,13,-1
 806 1819 l 1,14,-1
 646 1524 l 1,15,-1
 308 1524 l 1,16,-1
 150 1819 l 1,10,-1
EndSplineSet
EndUndoOperation
EndUndoes
Redoes
EndRedoes
EndUndoRedoHistory
Fore
SplineSet
150 1819 m 1,0,-1
 378 1819 l 1,1,-1
 476 1676 l 1,2,-1
 578 1819 l 1,3,-1
 806 1819 l 1,4,-1
 646 1524 l 1,5,-1
 308 1524 l 1,6,-1
 150 1819 l 1,0,-1
105 1459 m 1,7,-1
 888 1459 l 1,8,-1
 888 1279 l 1,9,-1
 402 195 l 1,10,-1
 888 195 l 1,11,-1
 888 0 l 1,12,-1
 62 0 l 1,13,-1
 62 180 l 1,14,-1
 546 1265 l 1,15,-1
 105 1265 l 1,16,-1
 105 1459 l 1,7,-1
EndSplineSet
EndChar

StartChar: zcaron
Encoding: 382 382 7
Width: 753
Flags: W
LayerCount: 2
UndoRedoHistory
Layer: 1
Undoes
UndoOperation
Index: 0
Type: 1
WasModified: 0
WasOrder2: 1
Width: 753
VWidth: 2048
LBearingChange: 0
UnicodeEnc: 0
InstructionsLength: 0
SplineSet
87 1084 m 1,0,-1
 713 1084 l 1,1,-1
 713 906 l 1,2,-1
 370 186 l 1,3,-1
 715 186 l 1,4,-1
 715 0 l 1,5,-1
 46 0 l 1,6,-1
 46 180 l 1,7,-1
 385 898 l 1,8,-1
 87 898 l 1,9,-1
 87 1084 l 1,0,-1
80 1445 m 1,10,-1
 307 1445 l 1,11,-1
 406 1302 l 1,12,-1
 507 1445 l 1,13,-1
 736 1445 l 1,14,-1
 576 1149 l 1,15,-1
 238 1149 l 1,16,-1
 80 1445 l 1,10,-1
EndSplineSet
EndUndoOperation
EndUndoes
Redoes
EndRedoes
EndUndoRedoHistory
Fore
SplineSet
80 1445 m 1,0,-1
 307 1445 l 1,1,-1
 406 1302 l 1,2,-1
 507 1445 l 1,3,-1
 736 1445 l 1,4,-1
 576 1149 l 1,5,-1
 238 1149 l 1,6,-1
 80 1445 l 1,0,-1
87 1084 m 1,7,-1
 713 1084 l 1,8,-1
 713 906 l 1,9,-1
 370 186 l 1,10,-1
 715 186 l 1,11,-1
 715 0 l 1,12,-1
 46 0 l 1,13,-1
 46 180 l 1,14,-1
 385 898 l 1,15,-1
 87 898 l 1,16,-1
 87 1084 l 1,7,-1
EndSplineSet
EndChar

StartChar: onesuperior
Encoding: 185 185 8
Width: 315
Flags: W
LayerCount: 2
UndoRedoHistory
Layer: 1
Undoes
UndoOperation
Index: 0
Type: 1
WasModified: 0
WasOrder2: 1
Width: 315
VWidth: 2048
LBearingChange: 0
UnicodeEnc: 0
InstructionsLength: 0
SplineSet
117 1596 m 1,0,-1
 238 1596 l 1,1,-1
 238 639 l 1,2,-1
 88 639 l 1,3,-1
 88 1368 l 1,4,-1
 8 1368 l 1,5,-1
 8 1475 l 1,6,7
 51 1485 51 1485 79.5 1516 c 128,-1,8
 108 1547 108 1547 117 1596 c 1,9,-1
 117 1596 l 1,0,-1
EndSplineSet
EndUndoOperation
EndUndoes
Redoes
EndRedoes
EndUndoRedoHistory
Fore
SplineSet
117 1596 m 1,0,-1
 238 1596 l 1,1,-1
 238 639 l 1,2,-1
 88 639 l 1,3,-1
 88 1368 l 1,4,-1
 8 1368 l 1,5,-1
 8 1475 l 1,6,7
 51 1485 51 1485 79.5 1516 c 128,-1,8
 108 1547 108 1547 117 1596 c 1,0,-1
EndSplineSet
EndChar

StartChar: threesuperior
Encoding: 179 179 9
Width: 428
Flags: W
LayerCount: 2
UndoRedoHistory
Layer: 1
Undoes
UndoOperation
Index: 0
Type: 1
WasModified: 0
WasOrder2: 1
Width: 428
VWidth: 2048
LBearingChange: 0
UnicodeEnc: 0
InstructionsLength: 0
SplineSet
387 1420 m 1,0,-1
 387 1289 l 2,1,2
 387 1232 387 1232 373 1201.5 c 128,-1,3
 359 1171 359 1171 315 1162 c 1,4,5
 359 1152 359 1152 373 1121 c 128,-1,6
 387 1090 387 1090 387 1034 c 2,7,-1
 387 818 l 2,8,9
 387 711 387 711 361 673.5 c 128,-1,10
 335 636 335 636 217 636 c 0,11,12
 92 636 92 636 64.5 671 c 128,-1,13
 37 706 37 706 37 818 c 2,14,-1
 37 1046 l 1,15,-1
 186 1046 l 1,16,-1
 186 771 l 2,17,18
 186 755 186 755 192 745 c 128,-1,19
 198 735 198 735 213 735 c 0,20,21
 226 735 226 735 232 745 c 128,-1,22
 238 755 238 755 238 771 c 2,23,-1
 238 1079 l 2,24,25
 238 1093 238 1093 231 1100 c 128,-1,26
 224 1107 224 1107 211 1107 c 2,27,-1
 156 1107 l 1,28,-1
 156 1215 l 1,29,-1
 211 1215 l 2,30,31
 224 1215 224 1215 231 1222 c 128,-1,32
 238 1229 238 1229 238 1242 c 2,33,-1
 238 1467 l 2,34,35
 238 1483 238 1483 232 1491.5 c 128,-1,36
 226 1500 226 1500 213 1500 c 0,37,38
 198 1500 198 1500 192 1491.5 c 128,-1,39
 186 1483 186 1483 186 1467 c 2,40,-1
 186 1272 l 1,41,-1
 37 1272 l 1,42,-1
 37 1420 l 2,43,44
 37 1530 37 1530 64 1566 c 128,-1,45
 91 1602 91 1602 213 1602 c 0,46,47
 334 1602 334 1602 360.5 1566 c 128,-1,48
 387 1530 387 1530 387 1420 c 1,49,-1
 387 1420 l 1,0,-1
EndSplineSet
EndUndoOperation
EndUndoes
Redoes
EndRedoes
EndUndoRedoHistory
Fore
SplineSet
387 1420 m 2,0,-1
 387 1289 l 2,1,2
 387 1232 387 1232 373 1201.5 c 128,-1,3
 359 1171 359 1171 315 1162 c 1,4,5
 359 1152 359 1152 373 1121 c 128,-1,6
 387 1090 387 1090 387 1034 c 2,7,-1
 387 818 l 2,8,9
 387 711 387 711 361 673.5 c 128,-1,10
 335 636 335 636 217 636 c 0,11,12
 92 636 92 636 64.5 671 c 128,-1,13
 37 706 37 706 37 818 c 2,14,-1
 37 1046 l 1,15,-1
 186 1046 l 1,16,-1
 186 771 l 2,17,18
 186 755 186 755 192 745 c 128,-1,19
 198 735 198 735 213 735 c 0,20,21
 226 735 226 735 232 745 c 128,-1,22
 238 755 238 755 238 771 c 2,23,-1
 238 1079 l 2,24,25
 238 1093 238 1093 231 1100 c 128,-1,26
 224 1107 224 1107 211 1107 c 2,27,-1
 156 1107 l 1,28,-1
 156 1215 l 1,29,-1
 211 1215 l 2,30,31
 224 1215 224 1215 231 1222 c 128,-1,32
 238 1229 238 1229 238 1242 c 2,33,-1
 238 1467 l 2,34,35
 238 1483 238 1483 232 1491.5 c 128,-1,36
 226 1500 226 1500 213 1500 c 0,37,38
 198 1500 198 1500 192 1491.5 c 128,-1,39
 186 1483 186 1483 186 1467 c 2,40,-1
 186 1272 l 1,41,-1
 37 1272 l 1,42,-1
 37 1420 l 2,43,44
 37 1530 37 1530 64 1566 c 128,-1,45
 91 1602 91 1602 213 1602 c 0,46,47
 334 1602 334 1602 360.5 1566 c 128,-1,48
 387 1530 387 1530 387 1420 c 2,0,-1
EndSplineSet
EndChar

StartChar: twosuperior
Encoding: 178 178 10
Width: 428
Flags: W
LayerCount: 2
UndoRedoHistory
Layer: 1
Undoes
UndoOperation
Index: 0
Type: 1
WasModified: 0
WasOrder2: 1
Width: 428
VWidth: 2048
LBearingChange: 0
UnicodeEnc: 0
InstructionsLength: 0
SplineSet
389 1420 m 1,0,-1
 389 1296 l 2,1,2
 389 1264 389 1264 379.5 1233.5 c 128,-1,3
 370 1203 370 1203 360 1174 c 1,4,-1
 195 751 l 1,5,-1
 389 751 l 1,6,-1
 389 639 l 1,7,-1
 41 639 l 1,8,-1
 41 751 l 1,9,-1
 217 1197 l 1,10,11
 224 1218 224 1218 232 1243 c 128,-1,12
 240 1268 240 1268 240 1300 c 2,13,-1
 240 1467 l 2,14,15
 240 1483 240 1483 234 1491.5 c 128,-1,16
 228 1500 228 1500 213 1500 c 256,17,18
 198 1500 198 1500 193 1491.5 c 128,-1,19
 188 1483 188 1483 188 1467 c 2,20,-1
 188 1272 l 1,21,-1
 39 1272 l 1,22,-1
 39 1420 l 2,23,24
 39 1530 39 1530 65.5 1566 c 128,-1,25
 92 1602 92 1602 213 1602 c 256,26,27
 334 1602 334 1602 361.5 1566 c 128,-1,28
 389 1530 389 1530 389 1420 c 1,29,-1
 389 1420 l 1,0,-1
EndSplineSet
EndUndoOperation
EndUndoes
Redoes
EndRedoes
EndUndoRedoHistory
Fore
SplineSet
389 1420 m 2,0,-1
 389 1296 l 2,1,2
 389 1264 389 1264 379.5 1233.5 c 128,-1,3
 370 1203 370 1203 360 1174 c 1,4,-1
 195 751 l 1,5,-1
 389 751 l 1,6,-1
 389 639 l 1,7,-1
 41 639 l 1,8,-1
 41 751 l 1,9,-1
 217 1197 l 1,10,11
 224 1218 224 1218 232 1243 c 128,-1,12
 240 1268 240 1268 240 1300 c 2,13,-1
 240 1467 l 2,14,15
 240 1483 240 1483 234 1491.5 c 128,-1,16
 228 1500 228 1500 213 1500 c 128,-1,17
 198 1500 198 1500 193 1491.5 c 128,-1,18
 188 1483 188 1483 188 1467 c 2,19,-1
 188 1272 l 1,20,-1
 39 1272 l 1,21,-1
 39 1420 l 2,22,23
 39 1530 39 1530 65.5 1566 c 128,-1,24
 92 1602 92 1602 213 1602 c 128,-1,25
 334 1602 334 1602 361.5 1566 c 128,-1,26
 389 1530 389 1530 389 1420 c 2,0,-1
EndSplineSet
EndChar

StartChar: brokenbar
Encoding: 166 166 11
Width: 480
Flags: W
LayerCount: 2
UndoRedoHistory
Layer: 1
Undoes
UndoOperation
Index: 0
Type: 1
WasModified: 0
WasOrder2: 1
Width: 480
VWidth: 2048
LBearingChange: 0
UnicodeEnc: 0
InstructionsLength: 0
SplineSet
330 1266 m 1,0,-1
 330 704 l 1,1,-1
 144 704 l 1,2,-1
 144 1266 l 1,3,-1
 330 1266 l 1,0,-1
330 494 m 1,4,-1
 330 -68 l 1,5,-1
 144 -68 l 1,6,-1
 144 494 l 1,7,-1
 330 494 l 1,4,-1
EndSplineSet
EndUndoOperation
EndUndoes
Redoes
EndRedoes
EndUndoRedoHistory
Fore
SplineSet
330 494 m 1,0,-1
 330 -68 l 1,1,-1
 144 -68 l 1,2,-1
 144 494 l 1,3,-1
 330 494 l 1,0,-1
330 1266 m 1,4,-1
 330 704 l 1,5,-1
 144 704 l 1,6,-1
 144 1266 l 1,7,-1
 330 1266 l 1,4,-1
EndSplineSet
EndChar

StartChar: minus
Encoding: 8722 8722 12
Width: 910
Flags: W
LayerCount: 2
UndoRedoHistory
Layer: 1
Undoes
UndoOperation
Index: 0
Type: 1
WasModified: 0
WasOrder2: 1
Width: 910
VWidth: 2048
LBearingChange: 0
UnicodeEnc: 0
InstructionsLength: 0
SplineSet
765 609 m 1,0,-1
 765 439 l 1,1,-1
 138 439 l 1,2,-1
 138 609 l 1,3,-1
 765 609 l 1,0,-1
EndSplineSet
EndUndoOperation
EndUndoes
Redoes
EndRedoes
EndUndoRedoHistory
Fore
SplineSet
765 609 m 1,0,-1
 765 439 l 1,1,-1
 138 439 l 1,2,-1
 138 609 l 1,3,-1
 765 609 l 1,0,-1
EndSplineSet
EndChar

StartChar: multiply
Encoding: 215 215 13
Width: 972
Flags: W
LayerCount: 2
UndoRedoHistory
Layer: 1
Undoes
UndoOperation
Index: 0
Type: 1
WasModified: 0
WasOrder2: 1
Width: 972
VWidth: 2048
LBearingChange: 0
UnicodeEnc: 0
InstructionsLength: 0
SplineSet
483 652 m 1,0,-1
 753 858 l 1,1,-1
 872 742 l 1,2,-1
 657 537 l 1,3,4
 690 505 690 505 764 433 c 128,-1,5
 838 361 838 361 872 330 c 1,6,-1
 753 216 l 1,7,-1
 483 422 l 1,8,-1
 215 216 l 1,9,-1
 96 330 l 1,10,-1
 310 537 l 1,11,-1
 96 742 l 1,12,-1
 215 858 l 1,13,-1
 483 652 l 1,0,-1
EndSplineSet
EndUndoOperation
EndUndoes
Redoes
EndRedoes
EndUndoRedoHistory
Fore
SplineSet
483 652 m 1,0,-1
 753 858 l 1,1,-1
 872 742 l 1,2,-1
 657 537 l 1,3,4
 690 505 690 505 764 433 c 128,-1,5
 838 361 838 361 872 330 c 1,6,-1
 753 216 l 1,7,-1
 483 422 l 1,8,-1
 215 216 l 1,9,-1
 96 330 l 1,10,-1
 310 537 l 1,11,-1
 96 742 l 1,12,-1
 215 858 l 1,13,-1
 483 652 l 1,0,-1
EndSplineSet
EndChar

StartChar: exclam
Encoding: 33 33 15
Width: 468
Flags: W
LayerCount: 2
UndoRedoHistory
Layer: 1
Undoes
UndoOperation
Index: 0
Type: 1
WasModified: 0
WasOrder2: 1
Width: 468
VWidth: 2048
LBearingChange: 0
UnicodeEnc: 0
InstructionsLength: 0
SplineSet
97 1459 m 1,0,-1
 371 1459 l 1,1,-1
 280 371 l 1,2,-1
 174 371 l 1,3,-1
 97 1459 l 1,0,-1
97 255 m 1,4,-1
 357 255 l 1,5,-1
 357 0 l 1,6,-1
 97 0 l 1,7,-1
 97 255 l 1,4,-1
EndSplineSet
EndUndoOperation
EndUndoes
Redoes
EndRedoes
EndUndoRedoHistory
Fore
SplineSet
97 255 m 1,0,-1
 357 255 l 1,1,-1
 357 0 l 1,2,-1
 97 0 l 1,3,-1
 97 255 l 1,0,-1
97 1459 m 1,4,-1
 371 1459 l 1,5,-1
 280 371 l 1,6,-1
 174 371 l 1,7,-1
 97 1459 l 1,4,-1
EndSplineSet
EndChar

StartChar: quotedbl
Encoding: 34 34 16
Width: 726
Flags: W
LayerCount: 2
UndoRedoHistory
Layer: 1
Undoes
UndoOperation
Index: 0
Type: 1
WasModified: 0
WasOrder2: 1
Width: 726
VWidth: 2048
LBearingChange: 0
UnicodeEnc: 0
InstructionsLength: 0
SplineSet
294 1422 m 1,0,-1
 293 936 l 1,1,-1
 105 936 l 1,2,-1
 43 1422 l 1,3,-1
 294 1422 l 1,0,-1
684 1422 m 1,4,-1
 614 936 l 1,5,-1
 444 936 l 1,6,-1
 444 1422 l 1,7,-1
 684 1422 l 1,4,-1
EndSplineSet
EndUndoOperation
EndUndoes
Redoes
EndRedoes
EndUndoRedoHistory
Fore
SplineSet
684 1422 m 1,0,-1
 614 936 l 1,1,-1
 444 936 l 1,2,-1
 444 1422 l 1,3,-1
 684 1422 l 1,0,-1
294 1422 m 1,4,-1
 293 936 l 1,5,-1
 105 936 l 1,6,-1
 43 1422 l 1,7,-1
 294 1422 l 1,4,-1
EndSplineSet
EndChar

StartChar: numbersign
Encoding: 35 35 17
Width: 1139
Flags: W
LayerCount: 2
UndoRedoHistory
Layer: 1
Undoes
UndoOperation
Index: 0
Type: 1
WasModified: 0
WasOrder2: 1
Width: 1139
VWidth: 2048
LBearingChange: 0
UnicodeEnc: 0
InstructionsLength: 0
SplineSet
759 1425 m 1,0,-1
 873 1349 l 1,1,-1
 863 981 l 1,2,-1
 985 1058 l 1,3,-1
 1014 891 l 1,4,-1
 868 814 l 1,5,-1
 909 740 l 1,6,-1
 1030 715 l 1,7,-1
 976 548 l 1,8,-1
 806 504 l 1,9,-1
 802 100 l 1,10,-1
 653 76 l 1,11,-1
 655 479 l 1,12,-1
 500 403 l 1,13,-1
 361 -1 l 1,14,-1
 249 76 l 1,15,-1
 263 479 l 1,16,-1
 138 403 l 1,17,-1
 109 569 l 1,18,-1
 259 646 l 1,19,-1
 215 721 l 1,20,-1
 92 745 l 1,21,-1
 147 912 l 1,22,-1
 320 956 l 1,23,-1
 345 1324 l 1,24,-1
 547 1349 l 1,25,-1
 551 981 l 1,26,-1
 676 1058 l 1,27,-1
 759 1425 l 1,0,-1
687 790 m 1,28,-1
 544 790 l 1,29,-1
 508 671 l 1,30,-1
 660 671 l 1,31,-1
 687 790 l 1,28,-1
EndSplineSet
EndUndoOperation
EndUndoes
Redoes
EndRedoes
EndUndoRedoHistory
Fore
SplineSet
687 790 m 1,0,-1
 544 790 l 1,1,-1
 508 671 l 1,2,-1
 660 671 l 1,3,-1
 687 790 l 1,0,-1
759 1425 m 1,4,-1
 873 1349 l 1,5,-1
 863 981 l 1,6,-1
 985 1058 l 1,7,-1
 1014 891 l 1,8,-1
 868 814 l 1,9,-1
 909 740 l 1,10,-1
 1030 715 l 1,11,-1
 976 548 l 1,12,-1
 806 504 l 1,13,-1
 802 100 l 1,14,-1
 653 76 l 1,15,-1
 655 479 l 1,16,-1
 500 403 l 1,17,-1
 361 -1 l 1,18,-1
 249 76 l 1,19,-1
 263 479 l 1,20,-1
 138 403 l 1,21,-1
 109 569 l 1,22,-1
 259 646 l 1,23,-1
 215 721 l 1,24,-1
 92 745 l 1,25,-1
 147 912 l 1,26,-1
 320 956 l 1,27,-1
 345 1324 l 1,28,-1
 547 1349 l 1,29,-1
 551 981 l 1,30,-1
 676 1058 l 1,31,-1
 759 1425 l 1,4,-1
EndSplineSet
EndChar

StartChar: percent
Encoding: 37 37 18
Width: 1837
Flags: W
LayerCount: 2
UndoRedoHistory
Layer: 1
Undoes
UndoOperation
Index: 0
Type: 1
WasModified: 0
WasOrder2: 1
Width: 1837
VWidth: 2048
LBearingChange: 0
UnicodeEnc: 0
InstructionsLength: 0
SplineSet
75 1037 m 1,0,-1
 75 1090 l 2,1,2
 75 1264 75 1264 138 1362.5 c 128,-1,3
 201 1461 201 1461 373 1461 c 256,4,5
 545 1461 545 1461 609.5 1363 c 128,-1,6
 674 1265 674 1265 675 1091 c 1,7,-1
 675 1037 l 2,8,9
 675 866 675 866 610 762 c 128,-1,10
 545 658 545 658 373 658 c 256,11,12
 201 658 201 658 138 762.5 c 128,-1,13
 75 867 75 867 75 1037 c 1,14,-1
 75 1037 l 1,0,-1
286 1025 m 2,15,16
 286 937 286 937 301 877.5 c 128,-1,17
 316 818 316 818 373 818 c 0,18,19
 431 818 431 818 446 877.5 c 128,-1,20
 461 937 461 937 461 1025 c 2,21,-1
 461 1103 l 2,22,23
 461 1191 461 1191 447 1245.5 c 128,-1,24
 433 1300 433 1300 373 1300 c 256,25,26
 313 1300 313 1300 299.5 1246 c 128,-1,27
 286 1192 286 1192 286 1105 c 2,28,-1
 286 1025 l 2,15,16
919 433 m 1,29,30
 920 605 920 605 978.5 703.5 c 128,-1,31
 1037 802 1037 802 1185 802 c 256,32,33
 1333 802 1333 802 1393 704.5 c 128,-1,34
 1453 607 1453 607 1454 433 c 1,35,-1
 1454 378 l 1,36,37
 1600 207 1600 207 1551.5 103 c 128,-1,38
 1503 -1 1503 -1 1284 -1 c 0,39,40
 1063 -1 1063 -1 991 103.5 c 128,-1,41
 919 208 919 208 919 378 c 2,42,-1
 919 433 l 1,29,30
1130 443 m 1,43,-1
 1130 367 l 2,44,45
 1130 278 1130 278 1156 218.5 c 128,-1,46
 1182 159 1182 159 1284 159 c 256,47,48
 1386 159 1386 159 1386 219 c 128,-1,49
 1386 279 1386 279 1240 367 c 1,50,-1
 1240 442 l 2,51,52
 1240 531 1240 531 1231.5 585.5 c 128,-1,53
 1223 640 1223 640 1185 640 c 0,54,55
 1148 640 1148 640 1139 585.5 c 128,-1,56
 1130 531 1130 531 1130 443 c 1,57,-1
 1130 443 l 1,43,-1
965 1483 m 1,58,-1
 1113 1483 l 1,59,-1
 426 -1 l 1,60,-1
 280 -1 l 1,61,-1
 965 1483 l 1,58,-1
EndSplineSet
EndUndoOperation
EndUndoes
Redoes
EndRedoes
EndUndoRedoHistory
Fore
SplineSet
965 1483 m 1,0,-1
 1113 1483 l 1,1,-1
 426 -1 l 1,2,-1
 280 -1 l 1,3,-1
 965 1483 l 1,0,-1
1130 443 m 2,4,-1
 1130 367 l 2,5,6
 1130 278 1130 278 1156 218.5 c 128,-1,7
 1182 159 1182 159 1284 159 c 128,-1,8
 1386 159 1386 159 1386 219 c 128,-1,9
 1386 279 1386 279 1240 367 c 1,10,-1
 1240 442 l 2,11,12
 1240 531 1240 531 1231.5 585.5 c 128,-1,13
 1223 640 1223 640 1185 640 c 0,14,15
 1148 640 1148 640 1139 585.5 c 128,-1,16
 1130 531 1130 531 1130 443 c 2,4,-1
919 433 m 1,17,18
 920 605 920 605 978.5 703.5 c 128,-1,19
 1037 802 1037 802 1185 802 c 128,-1,20
 1333 802 1333 802 1393 704.5 c 128,-1,21
 1453 607 1453 607 1454 433 c 1,22,-1
 1454 378 l 1,23,24
 1600 207 1600 207 1551.5 103 c 128,-1,25
 1503 -1 1503 -1 1284 -1 c 0,26,27
 1063 -1 1063 -1 991 103.5 c 128,-1,28
 919 208 919 208 919 378 c 2,29,-1
 919 433 l 1,17,18
286 1025 m 2,30,31
 286 937 286 937 301 877.5 c 128,-1,32
 316 818 316 818 373 818 c 0,33,34
 431 818 431 818 446 877.5 c 128,-1,35
 461 937 461 937 461 1025 c 2,36,-1
 461 1103 l 2,37,38
 461 1191 461 1191 447 1245.5 c 128,-1,39
 433 1300 433 1300 373 1300 c 128,-1,40
 313 1300 313 1300 299.5 1246 c 128,-1,41
 286 1192 286 1192 286 1105 c 2,42,-1
 286 1025 l 2,30,31
75 1037 m 2,43,-1
 75 1090 l 2,44,45
 75 1264 75 1264 138 1362.5 c 128,-1,46
 201 1461 201 1461 373 1461 c 128,-1,47
 545 1461 545 1461 609.5 1363 c 128,-1,48
 674 1265 674 1265 675 1091 c 1,49,-1
 675 1037 l 2,50,51
 675 866 675 866 610 762 c 128,-1,52
 545 658 545 658 373 658 c 128,-1,53
 201 658 201 658 138 762.5 c 128,-1,54
 75 867 75 867 75 1037 c 2,43,-1
EndSplineSet
EndChar

StartChar: quotesingle
Encoding: 39 39 19
Width: 298
Flags: W
LayerCount: 2
UndoRedoHistory
Layer: 1
Undoes
UndoOperation
Index: 0
Type: 1
WasModified: 0
WasOrder2: 1
Width: 298
VWidth: 2048
LBearingChange: 0
UnicodeEnc: 0
InstructionsLength: 0
SplineSet
269 1459 m 1,0,-1
 220 973 l 1,1,-1
 148 973 l 1,2,-1
 100 1459 l 1,3,-1
 269 1459 l 1,0,-1
EndSplineSet
EndUndoOperation
EndUndoes
Redoes
EndRedoes
EndUndoRedoHistory
Fore
SplineSet
269 1459 m 1,0,-1
 220 973 l 1,1,-1
 148 973 l 1,2,-1
 100 1459 l 1,3,-1
 269 1459 l 1,0,-1
EndSplineSet
EndChar

StartChar: asterisk
Encoding: 42 42 20
Width: 900
Flags: W
LayerCount: 2
UndoRedoHistory
Layer: 1
Undoes
UndoOperation
Index: 0
Type: 1
WasModified: 0
WasOrder2: 1
Width: 900
VWidth: 2048
LBearingChange: 0
UnicodeEnc: 0
InstructionsLength: 0
SplineSet
294 1356 m 1,0,-1
 625 1356 l 1,1,-1
 594 1144 l 1,2,-1
 812 1235 l 1,3,-1
 870 1082 l 1,4,-1
 664 1009 l 1,5,-1
 800 828 l 1,6,-1
 627 739 l 1,7,-1
 460 923 l 1,8,-1
 293 739 l 1,9,-1
 123 828 l 1,10,-1
 256 1010 l 1,11,-1
 52 1083 l 1,12,-1
 110 1235 l 1,13,-1
 327 1145 l 1,14,-1
 294 1356 l 1,0,-1
EndSplineSet
EndUndoOperation
EndUndoes
Redoes
EndRedoes
EndUndoRedoHistory
Fore
SplineSet
294 1356 m 1,0,-1
 625 1356 l 1,1,-1
 594 1144 l 1,2,-1
 812 1235 l 1,3,-1
 870 1082 l 1,4,-1
 664 1009 l 1,5,-1
 800 828 l 1,6,-1
 627 739 l 1,7,-1
 460 923 l 1,8,-1
 293 739 l 1,9,-1
 123 828 l 1,10,-1
 256 1010 l 1,11,-1
 52 1083 l 1,12,-1
 110 1235 l 1,13,-1
 327 1145 l 1,14,-1
 294 1356 l 1,0,-1
EndSplineSet
EndChar

StartChar: plus
Encoding: 43 43 21
Width: 819
Flags: W
LayerCount: 2
UndoRedoHistory
Layer: 1
Undoes
UndoOperation
Index: 0
Type: 1
WasModified: 0
WasOrder2: 1
Width: 819
VWidth: 2048
LBearingChange: 0
UnicodeEnc: 0
InstructionsLength: 0
SplineSet
495 861 m 1,0,-1
 495 642 l 1,1,-1
 720 642 l 1,2,-1
 720 472 l 1,3,-1
 495 472 l 1,4,-1
 495 254 l 1,5,-1
 318 254 l 1,6,-1
 318 472 l 1,7,-1
 92 472 l 1,8,-1
 92 642 l 1,9,-1
 318 642 l 1,10,-1
 318 861 l 1,11,-1
 495 861 l 1,0,-1
EndSplineSet
EndUndoOperation
EndUndoes
Redoes
EndRedoes
EndUndoRedoHistory
Fore
SplineSet
495 861 m 1,0,-1
 495 642 l 1,1,-1
 720 642 l 1,2,-1
 720 472 l 1,3,-1
 495 472 l 1,4,-1
 495 254 l 1,5,-1
 318 254 l 1,6,-1
 318 472 l 1,7,-1
 92 472 l 1,8,-1
 92 642 l 1,9,-1
 318 642 l 1,10,-1
 318 861 l 1,11,-1
 495 861 l 1,0,-1
EndSplineSet
EndChar

StartChar: hyphen
Encoding: 45 45 22
Width: 635
Flags: W
LayerCount: 2
UndoRedoHistory
Layer: 1
Undoes
UndoOperation
Index: 0
Type: 1
WasModified: 0
WasOrder2: 1
Width: 635
VWidth: 2048
LBearingChange: 0
UnicodeEnc: 0
InstructionsLength: 0
SplineSet
117 603 m 1,0,-1
 517 603 l 1,1,-1
 517 398 l 1,2,-1
 117 398 l 1,3,-1
 117 603 l 1,0,-1
EndSplineSet
EndUndoOperation
EndUndoes
Redoes
EndRedoes
EndUndoRedoHistory
Fore
SplineSet
117 603 m 1,0,-1
 517 603 l 1,1,-1
 517 398 l 1,2,-1
 117 398 l 1,3,-1
 117 603 l 1,0,-1
EndSplineSet
EndChar

StartChar: period
Encoding: 46 46 23
Width: 412
Flags: W
LayerCount: 2
UndoRedoHistory
Layer: 1
Undoes
UndoOperation
Index: 0
Type: 1
WasModified: 0
WasOrder2: 1
Width: 412
VWidth: 2048
LBearingChange: 0
UnicodeEnc: 0
InstructionsLength: 0
SplineSet
80 255 m 1,0,-1
 334 255 l 1,1,-1
 334 0 l 1,2,-1
 80 0 l 1,3,-1
 80 255 l 1,0,-1
EndSplineSet
EndUndoOperation
EndUndoes
Redoes
EndRedoes
EndUndoRedoHistory
Fore
SplineSet
80 255 m 1,0,-1
 334 255 l 1,1,-1
 334 0 l 1,2,-1
 80 0 l 1,3,-1
 80 255 l 1,0,-1
EndSplineSet
EndChar

StartChar: slash
Encoding: 47 47 24
Width: 828
Flags: W
LayerCount: 2
UndoRedoHistory
Layer: 1
Undoes
UndoOperation
Index: 0
Type: 1
WasModified: 0
WasOrder2: 1
Width: 828
VWidth: 2048
LBearingChange: 0
UnicodeEnc: 0
InstructionsLength: 0
SplineSet
648 1482 m 1,0,-1
 793 1482 l 1,1,-1
 205 -32 l 1,2,-1
 60 -32 l 1,3,-1
 648 1482 l 1,0,-1
EndSplineSet
EndUndoOperation
EndUndoes
Redoes
EndRedoes
EndUndoRedoHistory
Fore
SplineSet
648 1482 m 1,0,-1
 793 1482 l 1,1,-1
 205 -32 l 1,2,-1
 60 -32 l 1,3,-1
 648 1482 l 1,0,-1
EndSplineSet
EndChar

StartChar: zero
Encoding: 48 48 25
Width: 1036
Flags: W
LayerCount: 2
UndoRedoHistory
Layer: 1
Undoes
UndoOperation
Index: 0
Type: 1
WasModified: 0
WasOrder2: 1
Width: 1036
VWidth: 2048
LBearingChange: 0
UnicodeEnc: 0
InstructionsLength: 0
SplineSet
691 1073 m 2,0,1
 691 1122 691 1122 664.5 1187.5 c 128,-1,2
 638 1253 638 1253 519 1253 c 0,3,4
 397 1253 397 1253 372 1187.5 c 128,-1,5
 347 1122 347 1122 347 1073 c 2,6,-1
 347 384 l 2,7,8
 347 337 347 337 376.5 270.5 c 128,-1,9
 406 204 406 204 519 204 c 256,10,11
 632 204 632 204 661.5 270 c 128,-1,12
 691 336 691 336 691 384 c 2,13,-1
 691 1073 l 2,0,1
968 1059 m 1,14,-1
 968 398 l 2,15,16
 968 220 968 220 871 98 c 128,-1,17
 774 -24 774 -24 520 -24 c 0,18,19
 263 -24 263 -24 165.5 96 c 128,-1,20
 68 216 68 216 68 398 c 2,21,-1
 68 1059 l 2,22,23
 68 1244 68 1244 163 1363.5 c 128,-1,24
 258 1483 258 1483 519 1483 c 0,25,26
 779 1483 779 1483 873.5 1363 c 128,-1,27
 968 1243 968 1243 968 1059 c 1,28,-1
 968 1059 l 1,14,-1
EndSplineSet
EndUndoOperation
EndUndoes
Redoes
EndRedoes
EndUndoRedoHistory
Fore
SplineSet
968 1059 m 2,0,-1
 968 398 l 2,1,2
 968 220 968 220 871 98 c 128,-1,3
 774 -24 774 -24 520 -24 c 0,4,5
 263 -24 263 -24 165.5 96 c 128,-1,6
 68 216 68 216 68 398 c 2,7,-1
 68 1059 l 2,8,9
 68 1244 68 1244 163 1363.5 c 128,-1,10
 258 1483 258 1483 519 1483 c 0,11,12
 779 1483 779 1483 873.5 1363 c 128,-1,13
 968 1243 968 1243 968 1059 c 2,0,-1
691 1073 m 2,14,15
 691 1122 691 1122 664.5 1187.5 c 128,-1,16
 638 1253 638 1253 519 1253 c 0,17,18
 397 1253 397 1253 372 1187.5 c 128,-1,19
 347 1122 347 1122 347 1073 c 2,20,-1
 347 384 l 2,21,22
 347 337 347 337 376.5 270.5 c 128,-1,23
 406 204 406 204 519 204 c 128,-1,24
 632 204 632 204 661.5 270 c 128,-1,25
 691 336 691 336 691 384 c 2,26,-1
 691 1073 l 2,14,15
EndSplineSet
EndChar

StartChar: one
Encoding: 49 49 26
Width: 545
Flags: W
LayerCount: 2
UndoRedoHistory
Layer: 1
Undoes
UndoOperation
Index: 0
Type: 1
WasModified: 0
WasOrder2: 1
Width: 545
VWidth: 2048
LBearingChange: 0
UnicodeEnc: 0
InstructionsLength: 0
SplineSet
238 1459 m 1,0,-1
 451 1459 l 1,1,-1
 451 0 l 1,2,-1
 177 0 l 1,3,-1
 177 1089 l 1,4,-1
 32 1089 l 1,5,-1
 32 1294 l 1,6,7
 98 1328 98 1328 151 1355 c 128,-1,8
 204 1382 204 1382 238 1459 c 1,9,-1
 238 1459 l 1,0,-1
EndSplineSet
EndUndoOperation
EndUndoes
Redoes
EndRedoes
EndUndoRedoHistory
Fore
SplineSet
238 1459 m 1,0,-1
 451 1459 l 1,1,-1
 451 0 l 1,2,-1
 177 0 l 1,3,-1
 177 1089 l 1,4,-1
 32 1089 l 1,5,-1
 32 1294 l 1,6,7
 98 1328 98 1328 151 1355 c 128,-1,8
 204 1382 204 1382 238 1459 c 1,0,-1
EndSplineSet
EndChar

StartChar: seven
Encoding: 55 55 27
Width: 824
Flags: W
LayerCount: 2
UndoRedoHistory
Layer: 1
Undoes
UndoOperation
Index: 0
Type: 1
WasModified: 0
WasOrder2: 1
Width: 824
VWidth: 2048
LBearingChange: 0
UnicodeEnc: 0
InstructionsLength: 0
SplineSet
28 1459 m 1,0,-1
 795 1459 l 1,1,-1
 795 1313 l 1,2,-1
 391 0 l 1,3,-1
 119 0 l 1,4,-1
 477 1231 l 1,5,-1
 28 1231 l 1,6,-1
 28 1459 l 1,0,-1
EndSplineSet
EndUndoOperation
EndUndoes
Redoes
EndRedoes
EndUndoRedoHistory
Fore
SplineSet
28 1459 m 1,0,-1
 795 1459 l 1,1,-1
 795 1313 l 1,2,-1
 391 0 l 1,3,-1
 119 0 l 1,4,-1
 477 1231 l 1,5,-1
 28 1231 l 1,6,-1
 28 1459 l 1,0,-1
EndSplineSet
EndChar

StartChar: colon
Encoding: 58 58 28
Width: 410
Flags: W
LayerCount: 2
UndoRedoHistory
Layer: 1
Undoes
UndoOperation
Index: 0
Type: 1
WasModified: 0
WasOrder2: 1
Width: 410
VWidth: 2048
LBearingChange: 0
UnicodeEnc: 0
InstructionsLength: 0
SplineSet
80 1023 m 1,0,-1
 331 1023 l 1,1,-1
 331 768 l 1,2,-1
 80 768 l 1,3,-1
 80 1023 l 1,0,-1
80 353 m 1,4,-1
 331 353 l 1,5,-1
 331 99 l 1,6,-1
 80 99 l 1,7,-1
 80 353 l 1,4,-1
EndSplineSet
EndUndoOperation
EndUndoes
Redoes
EndRedoes
EndUndoRedoHistory
Fore
SplineSet
80 353 m 1,0,-1
 331 353 l 1,1,-1
 331 99 l 1,2,-1
 80 99 l 1,3,-1
 80 353 l 1,0,-1
80 1023 m 1,4,-1
 331 1023 l 1,5,-1
 331 768 l 1,6,-1
 80 768 l 1,7,-1
 80 1023 l 1,4,-1
EndSplineSet
EndChar

StartChar: less
Encoding: 60 60 29
Width: 990
Flags: W
LayerCount: 2
UndoRedoHistory
Layer: 1
Undoes
UndoOperation
Index: 0
Type: 1
WasModified: 0
WasOrder2: 1
Width: 990
VWidth: 2048
LBearingChange: 0
UnicodeEnc: 0
InstructionsLength: 0
SplineSet
866 810 m 1,0,-1
 292 538 l 1,1,2
 422 485 422 485 606.5 399.5 c 128,-1,3
 791 314 791 314 866 262 c 1,4,-1
 866 45 l 1,5,-1
 97 436 l 1,6,-1
 97 637 l 1,7,-1
 866 1029 l 1,8,-1
 866 810 l 1,0,-1
EndSplineSet
EndUndoOperation
EndUndoes
Redoes
EndRedoes
EndUndoRedoHistory
Fore
SplineSet
866 810 m 1,0,-1
 292 538 l 1,1,2
 422 485 422 485 606.5 399.5 c 128,-1,3
 791 314 791 314 866 262 c 1,4,-1
 866 45 l 1,5,-1
 97 436 l 1,6,-1
 97 637 l 1,7,-1
 866 1029 l 1,8,-1
 866 810 l 1,0,-1
EndSplineSet
EndChar

StartChar: equal
Encoding: 61 61 30
Width: 819
Flags: W
LayerCount: 2
UndoRedoHistory
Layer: 1
Undoes
UndoOperation
Index: 0
Type: 1
WasModified: 0
WasOrder2: 1
Width: 819
VWidth: 2048
LBearingChange: 0
UnicodeEnc: 0
InstructionsLength: 0
SplineSet
720 676 m 1,0,-1
 720 506 l 1,1,-1
 92 506 l 1,2,-1
 92 676 l 1,3,-1
 720 676 l 1,0,-1
720 396 m 1,4,-1
 720 227 l 1,5,-1
 92 227 l 1,6,-1
 92 396 l 1,7,-1
 720 396 l 1,4,-1
EndSplineSet
EndUndoOperation
EndUndoes
Redoes
EndRedoes
EndUndoRedoHistory
Fore
SplineSet
720 396 m 1,0,-1
 720 227 l 1,1,-1
 92 227 l 1,2,-1
 92 396 l 1,3,-1
 720 396 l 1,0,-1
720 676 m 1,4,-1
 720 506 l 1,5,-1
 92 506 l 1,6,-1
 92 676 l 1,7,-1
 720 676 l 1,4,-1
EndSplineSet
EndChar

StartChar: greater
Encoding: 62 62 31
Width: 990
Flags: W
LayerCount: 2
UndoRedoHistory
Layer: 1
Undoes
UndoOperation
Index: 0
Type: 1
WasModified: 0
WasOrder2: 1
Width: 990
VWidth: 2048
LBearingChange: 0
UnicodeEnc: 0
InstructionsLength: 0
SplineSet
894 637 m 1,0,-1
 894 436 l 1,1,-1
 125 45 l 1,2,-1
 125 262 l 1,3,-1
 699 538 l 1,4,-1
 125 810 l 1,5,-1
 125 1029 l 1,6,-1
 894 637 l 1,0,-1
EndSplineSet
EndUndoOperation
EndUndoes
Redoes
EndRedoes
EndUndoRedoHistory
Fore
SplineSet
894 637 m 1,0,-1
 894 436 l 1,1,-1
 125 45 l 1,2,-1
 125 262 l 1,3,-1
 699 538 l 1,4,-1
 125 810 l 1,5,-1
 125 1029 l 1,6,-1
 894 637 l 1,0,-1
EndSplineSet
EndChar

StartChar: A
Encoding: 65 65 32
Width: 1360
Flags: W
LayerCount: 2
UndoRedoHistory
Layer: 1
Undoes
UndoOperation
Index: 0
Type: 1
WasModified: 0
WasOrder2: 1
Width: 1360
VWidth: 2048
LBearingChange: 0
UnicodeEnc: 0
InstructionsLength: 0
SplineSet
227 408 m 1,0,-1
 985 408 l 1,1,-1
 985 273 l 1,2,-1
 227 273 l 1,3,-1
 227 408 l 1,0,-1
1286 -1 m 1,4,-1
 1079 -1 l 1,5,-1
 681 1164 l 1,6,-1
 283 -1 l 1,7,-1
 74 -1 l 1,8,-1
 594 1446 l 1,9,-1
 771 1446 l 1,10,-1
 1286 -1 l 1,4,-1
EndSplineSet
EndUndoOperation
EndUndoes
Redoes
EndRedoes
EndUndoRedoHistory
Fore
SplineSet
1286 -1 m 1,0,-1
 1079 -1 l 1,1,-1
 985 274.150753769 l 1,2,-1
 985 273 l 1,3,-1
 376.606866953 273 l 1,4,-1
 283 -1 l 1,5,-1
 74 -1 l 1,6,-1
 594 1446 l 1,7,-1
 771 1446 l 1,8,-1
 1286 -1 l 1,0,-1
939.272961373 408 m 1,9,-1
 681 1164 l 1,10,-1
 422.727038627 408 l 1,11,-1
 939.272961373 408 l 1,9,-1
EndSplineSet
EndChar

StartChar: B
Encoding: 66 66 33
Width: 1405
Flags: W
LayerCount: 2
UndoRedoHistory
Layer: 1
Undoes
UndoOperation
Index: 0
Type: 1
WasModified: 0
WasOrder2: 1
Width: 1405
VWidth: 2048
LBearingChange: 0
UnicodeEnc: 0
InstructionsLength: 0
SplineSet
746 -1 m 2,0,1
 1020 -1 1020 -1 1150 106.5 c 128,-1,2
 1280 214 1280 214 1280 448 c 0,3,4
 1280 541 1280 541 1228 641 c 128,-1,5
 1176 741 1176 741 1063 769 c 1,6,7
 1148 799 1148 799 1187 876.5 c 128,-1,8
 1226 954 1226 954 1226 1049 c 0,9,10
 1226 1251 1226 1251 1127.5 1348.5 c 128,-1,11
 1029 1446 1029 1446 730 1446 c 2,12,-1
 171 1446 l 1,13,-1
 171 -1 l 1,14,-1
 746 -1 l 2,0,1
373 149 m 1,15,-1
 373 1295 l 1,16,-1
 710 1295 l 2,17,18
 892 1295 892 1295 958.5 1249 c 128,-1,19
 1025 1203 1025 1203 1025 1047 c 0,20,21
 1025 950 1025 950 978 891.5 c 128,-1,22
 931 833 931 833 795 833 c 2,23,-1
 345 833 l 1,24,-1
 345 696 l 1,25,-1
 803 696 l 2,26,27
 968 696 968 696 1023.5 620.5 c 128,-1,28
 1079 545 1079 545 1079 446 c 0,29,30
 1079 247 1079 247 986 198 c 128,-1,31
 893 149 893 149 726 149 c 2,32,-1
 373 149 l 1,15,-1
EndSplineSet
EndUndoOperation
EndUndoes
Redoes
EndRedoes
EndUndoRedoHistory
Fore
SplineSet
746 -1 m 2,0,1
 1020 -1 1020 -1 1150 106.5 c 128,-1,2
 1280 214 1280 214 1280 448 c 0,3,4
 1280 541 1280 541 1228 641 c 128,-1,5
 1176 741 1176 741 1063 769 c 1,6,7
 1148 799 1148 799 1187 876.5 c 128,-1,8
 1226 954 1226 954 1226 1049 c 0,9,10
 1226 1251 1226 1251 1127.5 1348.5 c 128,-1,11
 1029 1446 1029 1446 730 1446 c 2,12,-1
 171 1446 l 1,13,-1
 171 -1 l 1,14,-1
 746 -1 l 2,0,1
373 833 m 1,15,-1
 373 1295 l 1,16,-1
 710 1295 l 2,17,18
 892 1295 892 1295 958.5 1249 c 128,-1,19
 1025 1203 1025 1203 1025 1047 c 0,20,21
 1025 950 1025 950 978 891.5 c 128,-1,22
 931 833 931 833 795 833 c 2,23,-1
 373 833 l 1,15,-1
373 696 m 1,24,-1
 803 696 l 2,25,26
 968 696 968 696 1023.5 620.5 c 128,-1,27
 1079 545 1079 545 1079 446 c 0,28,29
 1079 247 1079 247 986 198 c 128,-1,30
 893 149 893 149 726 149 c 2,31,-1
 373 149 l 1,32,-1
 373 696 l 1,24,-1
EndSplineSet
EndChar

StartChar: C
Encoding: 67 67 34
Width: 1413
Flags: W
LayerCount: 2
UndoRedoHistory
Layer: 1
Undoes
UndoOperation
Index: 0
Type: 1
WasModified: 0
WasOrder2: 1
Width: 1413
VWidth: 2048
LBearingChange: 0
UnicodeEnc: 0
InstructionsLength: 0
SplineSet
1090 900 m 1,0,-1
 1285 900 l 1,1,-1
 1285 942 l 2,2,3
 1285 1170 1285 1170 1185 1326.5 c 128,-1,4
 1085 1483 1085 1483 736 1483 c 0,5,6
 374 1483 374 1483 259.5 1333 c 128,-1,7
 145 1183 145 1183 145 955 c 2,8,-1
 145 486 l 2,9,10
 145 261 145 261 261.5 118.5 c 128,-1,11
 378 -24 378 -24 738 -24 c 0,12,13
 1085 -24 1085 -24 1185 127 c 128,-1,14
 1285 278 1285 278 1285 500 c 2,15,-1
 1285 558 l 1,16,-1
 1090 558 l 1,17,-1
 1090 455 l 2,18,19
 1090 264 1090 264 1010.5 195 c 128,-1,20
 931 126 931 126 738 126 c 0,21,22
 547 126 547 126 447 195 c 128,-1,23
 347 264 347 264 347 455 c 2,24,-1
 347 992 l 2,25,26
 347 1184 347 1184 446.5 1258 c 128,-1,27
 546 1332 546 1332 736 1332 c 0,28,29
 927 1332 927 1332 1008.5 1258 c 128,-1,30
 1090 1184 1090 1184 1090 992 c 2,31,-1
 1090 900 l 1,0,-1
EndSplineSet
EndUndoOperation
EndUndoes
Redoes
EndRedoes
EndUndoRedoHistory
Fore
SplineSet
1090 900 m 1,0,-1
 1285 900 l 1,1,-1
 1285 942 l 2,2,3
 1285 1170 1285 1170 1185 1326.5 c 128,-1,4
 1085 1483 1085 1483 736 1483 c 0,5,6
 374 1483 374 1483 259.5 1333 c 128,-1,7
 145 1183 145 1183 145 955 c 2,8,-1
 145 486 l 2,9,10
 145 261 145 261 261.5 118.5 c 128,-1,11
 378 -24 378 -24 738 -24 c 0,12,13
 1085 -24 1085 -24 1185 127 c 128,-1,14
 1285 278 1285 278 1285 500 c 2,15,-1
 1285 558 l 1,16,-1
 1090 558 l 1,17,-1
 1090 455 l 2,18,19
 1090 264 1090 264 1010.5 195 c 128,-1,20
 931 126 931 126 738 126 c 0,21,22
 547 126 547 126 447 195 c 128,-1,23
 347 264 347 264 347 455 c 2,24,-1
 347 992 l 2,25,26
 347 1184 347 1184 446.5 1258 c 128,-1,27
 546 1332 546 1332 736 1332 c 0,28,29
 927 1332 927 1332 1008.5 1258 c 128,-1,30
 1090 1184 1090 1184 1090 992 c 2,31,-1
 1090 900 l 1,0,-1
EndSplineSet
EndChar

StartChar: D
Encoding: 68 68 35
Width: 1439
Flags: W
LayerCount: 2
UndoRedoHistory
Layer: 1
Undoes
UndoOperation
Index: 0
Type: 1
WasModified: 0
WasOrder2: 1
Width: 1439
VWidth: 2048
LBearingChange: 0
UnicodeEnc: 0
InstructionsLength: 0
SplineSet
171 0 m 1,0,-1
 749 0 l 2,1,2
 1023 0 1023 0 1159 124 c 128,-1,3
 1295 248 1295 248 1295 482 c 2,4,-1
 1295 959 l 2,5,6
 1295 1165 1295 1165 1170.5 1305.5 c 128,-1,7
 1046 1446 1046 1446 747 1446 c 2,8,-1
 171 1446 l 1,9,-1
 171 0 l 1,0,-1
729 150 m 1,10,-1
 373 150 l 1,11,-1
 373 1295 l 1,12,-1
 729 1295 l 2,13,14
 883 1295 883 1295 988.5 1232.5 c 128,-1,15
 1094 1170 1094 1170 1094 971 c 2,16,-1
 1094 462 l 2,17,18
 1094 263 1094 263 989 206.5 c 128,-1,19
 884 150 884 150 729 150 c 1,20,-1
 729 150 l 1,10,-1
EndSplineSet
EndUndoOperation
EndUndoes
Redoes
EndRedoes
EndUndoRedoHistory
Fore
SplineSet
729 150 m 2,0,-1
 373 150 l 1,1,-1
 373 1295 l 1,2,-1
 729 1295 l 2,3,4
 883 1295 883 1295 988.5 1232.5 c 128,-1,5
 1094 1170 1094 1170 1094 971 c 2,6,-1
 1094 462 l 2,7,8
 1094 263 1094 263 989 206.5 c 128,-1,9
 884 150 884 150 729 150 c 2,0,-1
171 0 m 1,10,-1
 749 0 l 2,11,12
 1023 0 1023 0 1159 124 c 128,-1,13
 1295 248 1295 248 1295 482 c 2,14,-1
 1295 959 l 2,15,16
 1295 1165 1295 1165 1170.5 1305.5 c 128,-1,17
 1046 1446 1046 1446 747 1446 c 2,18,-1
 171 1446 l 1,19,-1
 171 0 l 1,10,-1
EndSplineSet
EndChar

StartChar: E
Encoding: 69 69 36
Width: 1111
Flags: W
LayerCount: 2
UndoRedoHistory
Layer: 1
Undoes
UndoOperation
Index: 0
Type: 1
WasModified: 0
WasOrder2: 1
Width: 1111
VWidth: 2048
LBearingChange: 0
UnicodeEnc: 0
InstructionsLength: 0
SplineSet
171 1446 m 1,0,-1
 1007 1446 l 1,1,-1
 1007 1296 l 1,2,-1
 372 1296 l 1,3,-1
 372 814 l 1,4,-1
 946 814 l 1,5,-1
 946 664 l 1,6,-1
 372 664 l 1,7,-1
 372 150 l 1,8,-1
 1016 150 l 1,9,-1
 1016 0 l 1,10,-1
 171 0 l 1,11,-1
 171 1446 l 1,0,-1
EndSplineSet
EndUndoOperation
EndUndoes
Redoes
EndRedoes
EndUndoRedoHistory
Fore
SplineSet
171 1446 m 1,0,-1
 1007 1446 l 1,1,-1
 1007 1296 l 1,2,-1
 372 1296 l 1,3,-1
 372 814 l 1,4,-1
 946 814 l 1,5,-1
 946 664 l 1,6,-1
 372 664 l 1,7,-1
 372 150 l 1,8,-1
 1016 150 l 1,9,-1
 1016 0 l 1,10,-1
 171 0 l 1,11,-1
 171 1446 l 1,0,-1
EndSplineSet
EndChar

StartChar: F
Encoding: 70 70 37
Width: 1083
Flags: W
LayerCount: 2
UndoRedoHistory
Layer: 1
Undoes
UndoOperation
Index: 0
Type: 1
WasModified: 0
WasOrder2: 1
Width: 1083
VWidth: 2048
LBearingChange: 0
UnicodeEnc: 0
InstructionsLength: 0
SplineSet
171 0 m 1,0,-1
 372 0 l 1,1,-1
 372 664 l 1,2,-1
 946 664 l 1,3,-1
 946 814 l 1,4,-1
 372 814 l 1,5,-1
 372 1296 l 1,6,-1
 991 1296 l 1,7,-1
 991 1446 l 1,8,-1
 171 1446 l 1,9,-1
 171 0 l 1,0,-1
EndSplineSet
EndUndoOperation
EndUndoes
Redoes
EndRedoes
EndUndoRedoHistory
Fore
SplineSet
171 0 m 1,0,-1
 372 0 l 1,1,-1
 372 664 l 1,2,-1
 946 664 l 1,3,-1
 946 814 l 1,4,-1
 372 814 l 1,5,-1
 372 1296 l 1,6,-1
 991 1296 l 1,7,-1
 991 1446 l 1,8,-1
 171 1446 l 1,9,-1
 171 0 l 1,0,-1
EndSplineSet
EndChar

StartChar: G
Encoding: 71 71 38
Width: 1412
Flags: W
LayerCount: 2
UndoRedoHistory
Layer: 1
Undoes
UndoOperation
Index: 0
Type: 1
WasModified: 0
WasOrder2: 1
Width: 1412
VWidth: 2048
LBearingChange: 0
UnicodeEnc: 0
InstructionsLength: 0
SplineSet
1208 0 m 1,0,-1
 1279 0 l 1,1,-1
 1279 735 l 1,2,-1
 839 735 l 1,3,-1
 839 588 l 1,4,-1
 1116 588 l 1,5,-1
 1208 0 l 1,0,-1
1279 901 m 1,6,-1
 1279 1012 l 2,7,8
 1279 1218 1279 1218 1176.5 1350.5 c 128,-1,9
 1074 1483 1074 1483 775 1483 c 2,10,-1
 631 1483 l 2,11,12
 329 1483 329 1483 226 1357 c 128,-1,13
 123 1231 123 1231 123 1025 c 2,14,-1
 123 426 l 2,15,16
 123 224 123 224 227 100 c 128,-1,17
 331 -24 331 -24 632 -24 c 2,18,-1
 777 -24 l 2,19,20
 1073 -24 1073 -24 1176 108.5 c 128,-1,21
 1279 241 1279 241 1279 440 c 2,22,-1
 1279 559 l 1,23,-1
 1078 559 l 1,24,-1
 1078 395 l 2,25,26
 1078 196 1078 196 972.5 161 c 128,-1,27
 867 126 867 126 712 126 c 0,28,29
 558 126 558 126 441.5 161 c 128,-1,30
 325 196 325 196 325 395 c 2,31,-1
 325 1062 l 2,32,33
 325 1261 325 1261 442.5 1296.5 c 128,-1,34
 560 1332 560 1332 712 1332 c 0,35,36
 866 1332 866 1332 972 1296.5 c 128,-1,37
 1078 1261 1078 1261 1078 1062 c 2,38,-1
 1078 901 l 1,39,-1
 1279 901 l 1,6,-1
EndSplineSet
EndUndoOperation
EndUndoes
Redoes
EndRedoes
EndUndoRedoHistory
Fore
SplineSet
1279 901 m 1,0,-1
 1279 1012 l 2,1,2
 1279 1218 1279 1218 1176.5 1350.5 c 128,-1,3
 1074 1483 1074 1483 775 1483 c 2,4,-1
 631 1483 l 2,5,6
 329 1483 329 1483 226 1357 c 128,-1,7
 123 1231 123 1231 123 1025 c 2,8,-1
 123 426 l 2,9,10
 123 224 123 224 227 100 c 128,-1,11
 331 -24 331 -24 632 -24 c 2,12,-1
 777 -24 l 2,13,14
 1073 -24 1073 -24 1176 108.5 c 0,15,16
 1182.40217914 116.735812972 1182.40217914 116.735812972 1188.40641753 125.228548858 c 1,17,-1
 1208 0 l 1,18,-1
 1279 0 l 1,19,-1
 1279 440 l 1,20,-1
 1279 559 l 1,21,-1
 1279 735 l 1,22,-1
 839 735 l 1,23,-1
 839 588 l 1,24,-1
 1116 588 l 1,25,-1
 1120.53741497 559 l 1,26,-1
 1078 559 l 1,27,-1
 1078 395 l 2,28,29
 1078 196 1078 196 972.5 161 c 128,-1,30
 867 126 867 126 712 126 c 0,31,32
 558 126 558 126 441.5 161 c 128,-1,33
 325 196 325 196 325 395 c 2,34,-1
 325 1062 l 2,35,36
 325 1261 325 1261 442.5 1296.5 c 128,-1,37
 560 1332 560 1332 712 1332 c 0,38,39
 866 1332 866 1332 972 1296.5 c 128,-1,40
 1078 1261 1078 1261 1078 1062 c 2,41,-1
 1078 901 l 1,42,-1
 1279 901 l 1,0,-1
EndSplineSet
EndChar

StartChar: H
Encoding: 72 72 39
Width: 1429
Flags: W
LayerCount: 2
UndoRedoHistory
Layer: 1
Undoes
UndoOperation
Index: 0
Type: 1
WasModified: 0
WasOrder2: 1
Width: 1429
VWidth: 2048
LBearingChange: 0
UnicodeEnc: 0
InstructionsLength: 0
SplineSet
174 1446 m 1,0,-1
 375 1446 l 1,1,-1
 375 807 l 1,2,-1
 1054 807 l 1,3,-1
 1054 1446 l 1,4,-1
 1255 1446 l 1,5,-1
 1255 0 l 1,6,-1
 1054 0 l 1,7,-1
 1054 659 l 1,8,-1
 375 659 l 1,9,-1
 375 0 l 1,10,-1
 174 0 l 1,11,-1
 174 1446 l 1,0,-1
EndSplineSet
EndUndoOperation
EndUndoes
Redoes
EndRedoes
EndUndoRedoHistory
Fore
SplineSet
174 1446 m 1,0,-1
 375 1446 l 1,1,-1
 375 807 l 1,2,-1
 1054 807 l 1,3,-1
 1054 1446 l 1,4,-1
 1255 1446 l 1,5,-1
 1255 0 l 1,6,-1
 1054 0 l 1,7,-1
 1054 659 l 1,8,-1
 375 659 l 1,9,-1
 375 0 l 1,10,-1
 174 0 l 1,11,-1
 174 1446 l 1,0,-1
EndSplineSet
EndChar

StartChar: I
Encoding: 73 73 40
Width: 598
Flags: W
LayerCount: 2
UndoRedoHistory
Layer: 1
Undoes
UndoOperation
Index: 0
Type: 1
WasModified: 0
WasOrder2: 1
Width: 598
VWidth: 2048
LBearingChange: 0
UnicodeEnc: 0
InstructionsLength: 0
SplineSet
199 1446 m 1,0,-1
 400 1446 l 1,1,-1
 400 0 l 1,2,-1
 199 0 l 1,3,-1
 199 1446 l 1,0,-1
EndSplineSet
EndUndoOperation
EndUndoes
Redoes
EndRedoes
EndUndoRedoHistory
Fore
SplineSet
199 1446 m 1,0,-1
 400 1446 l 1,1,-1
 400 0 l 1,2,-1
 199 0 l 1,3,-1
 199 1446 l 1,0,-1
EndSplineSet
EndChar

StartChar: J
Encoding: 74 74 41
Width: 805
Flags: W
LayerCount: 2
UndoRedoHistory
Layer: 1
Undoes
UndoOperation
Index: 0
Type: 1
WasModified: 0
WasOrder2: 1
Width: 805
VWidth: 2048
LBearingChange: 0
UnicodeEnc: 0
InstructionsLength: 0
SplineSet
60 0 m 1,0,-1
 60 152 l 1,1,2
 232 152 232 152 331 206.5 c 128,-1,3
 430 261 430 261 430 421 c 2,4,-1
 430 1446 l 1,5,-1
 631 1446 l 1,6,-1
 631 439 l 2,7,8
 631 217 631 217 507 108.5 c 128,-1,9
 383 0 383 0 158 0 c 2,10,-1
 60 0 l 1,0,-1
EndSplineSet
EndUndoOperation
EndUndoes
Redoes
EndRedoes
EndUndoRedoHistory
Fore
SplineSet
60 0 m 1,0,-1
 60 152 l 1,1,2
 232 152 232 152 331 206.5 c 128,-1,3
 430 261 430 261 430 421 c 2,4,-1
 430 1446 l 1,5,-1
 631 1446 l 1,6,-1
 631 439 l 2,7,8
 631 217 631 217 507 108.5 c 128,-1,9
 383 0 383 0 158 0 c 2,10,-1
 60 0 l 1,0,-1
EndSplineSet
EndChar

StartChar: K
Encoding: 75 75 42
Width: 1287
Flags: W
LayerCount: 2
UndoRedoHistory
Layer: 1
Undoes
UndoOperation
Index: 0
Type: 1
WasModified: 0
WasOrder2: 1
Width: 1287
VWidth: 2048
LBearingChange: 0
UnicodeEnc: 0
InstructionsLength: 0
SplineSet
171 1446 m 1,0,-1
 372 1446 l 1,1,-1
 372 675 l 1,2,-1
 499 827 l 1,3,-1
 1028 1446 l 1,4,-1
 1246 1446 l 1,5,-1
 702 781 l 1,6,-1
 1275 0 l 1,7,-1
 1052 0 l 1,8,-1
 561 673 l 1,9,-1
 372 468 l 1,10,-1
 372 0 l 1,11,-1
 171 0 l 1,12,-1
 171 1446 l 1,0,-1
EndSplineSet
EndUndoOperation
EndUndoes
Redoes
EndRedoes
EndUndoRedoHistory
Fore
SplineSet
171 1446 m 1,0,-1
 372 1446 l 1,1,-1
 372 675 l 1,2,-1
 499 827 l 1,3,-1
 1028 1446 l 1,4,-1
 1246 1446 l 1,5,-1
 702 781 l 1,6,-1
 1275 0 l 1,7,-1
 1052 0 l 1,8,-1
 561 673 l 1,9,-1
 372 468 l 1,10,-1
 372 0 l 1,11,-1
 171 0 l 1,12,-1
 171 1446 l 1,0,-1
EndSplineSet
EndChar

StartChar: L
Encoding: 76 76 43
Width: 971
Flags: W
LayerCount: 2
UndoRedoHistory
Layer: 1
Undoes
UndoOperation
Index: 0
Type: 1
WasModified: 0
WasOrder2: 1
Width: 971
VWidth: 2048
LBearingChange: 0
UnicodeEnc: 0
InstructionsLength: 0
SplineSet
171 1446 m 1,0,-1
 372 1446 l 1,1,-1
 372 155 l 1,2,-1
 923 155 l 1,3,-1
 923 0 l 1,4,-1
 171 0 l 1,5,-1
 171 1446 l 1,0,-1
EndSplineSet
EndUndoOperation
EndUndoes
Redoes
EndRedoes
EndUndoRedoHistory
Fore
SplineSet
171 1446 m 1,0,-1
 372 1446 l 1,1,-1
 372 155 l 1,2,-1
 923 155 l 1,3,-1
 923 0 l 1,4,-1
 171 0 l 1,5,-1
 171 1446 l 1,0,-1
EndSplineSet
EndChar

StartChar: M
Encoding: 77 77 44
Width: 1672
Flags: W
LayerCount: 2
UndoRedoHistory
Layer: 1
Undoes
UndoOperation
Index: 0
Type: 1
WasModified: 0
WasOrder2: 1
Width: 1672
VWidth: 2048
LBearingChange: 0
UnicodeEnc: 0
InstructionsLength: 0
SplineSet
174 0 m 1,0,-1
 174 1446 l 1,1,-1
 359 1446 l 1,2,-1
 837 638 l 1,3,-1
 1320 1446 l 1,4,-1
 1498 1446 l 1,5,-1
 1498 0 l 1,6,-1
 1308 0 l 1,7,-1
 1308 1121 l 1,8,-1
 912 458 l 1,9,-1
 763 458 l 1,10,-1
 366 1117 l 1,11,-1
 366 0 l 1,12,-1
 174 0 l 1,0,-1
EndSplineSet
EndUndoOperation
EndUndoes
Redoes
EndRedoes
EndUndoRedoHistory
Fore
SplineSet
174 0 m 1,0,-1
 174 1446 l 1,1,-1
 359 1446 l 1,2,-1
 837 638 l 1,3,-1
 1320 1446 l 1,4,-1
 1498 1446 l 1,5,-1
 1498 0 l 1,6,-1
 1308 0 l 1,7,-1
 1308 1121 l 1,8,-1
 912 458 l 1,9,-1
 763 458 l 1,10,-1
 366 1117 l 1,11,-1
 366 0 l 1,12,-1
 174 0 l 1,0,-1
EndSplineSet
EndChar

StartChar: N
Encoding: 78 78 45
Width: 1516
Flags: W
LayerCount: 2
UndoRedoHistory
Layer: 1
Undoes
UndoOperation
Index: 0
Type: 1
WasModified: 0
WasOrder2: 1
Width: 1516
VWidth: 2048
LBearingChange: 0
UnicodeEnc: 0
InstructionsLength: 0
SplineSet
171 0 m 1,0,-1
 171 1446 l 1,1,-1
 314 1446 l 1,2,-1
 1162 281 l 1,3,-1
 1162 1446 l 1,4,-1
 1345 1446 l 1,5,-1
 1345 0 l 1,6,-1
 1176 0 l 1,7,-1
 354 1115 l 1,8,-1
 354 0 l 1,9,-1
 171 0 l 1,0,-1
EndSplineSet
EndUndoOperation
EndUndoes
Redoes
EndRedoes
EndUndoRedoHistory
Fore
SplineSet
171 0 m 1,0,-1
 171 1446 l 1,1,-1
 314 1446 l 1,2,-1
 1162 281 l 1,3,-1
 1162 1446 l 1,4,-1
 1345 1446 l 1,5,-1
 1345 0 l 1,6,-1
 1176 0 l 1,7,-1
 354 1115 l 1,8,-1
 354 0 l 1,9,-1
 171 0 l 1,0,-1
EndSplineSet
EndChar

StartChar: O
Encoding: 79 79 46
Width: 1456
Flags: W
LayerCount: 2
UndoRedoHistory
Layer: 1
Undoes
UndoOperation
Index: 0
Type: 1
WasModified: 0
WasOrder2: 1
Width: 1456
VWidth: 2048
LBearingChange: 0
UnicodeEnc: 0
InstructionsLength: 0
SplineSet
737 -24 m 1,0,1
 1084 -24 1084 -24 1197.5 127 c 128,-1,2
 1311 278 1311 278 1311 500 c 2,3,-1
 1311 942 l 2,4,5
 1311 1170 1311 1170 1198.5 1326.5 c 128,-1,6
 1086 1483 1086 1483 737 1483 c 0,7,8
 375 1483 375 1483 260 1333 c 128,-1,9
 145 1183 145 1183 145 955 c 2,10,-1
 145 486 l 2,11,12
 145 261 145 261 261 118.5 c 128,-1,13
 377 -24 377 -24 737 -24 c 1,14,-1
 737 -24 l 1,0,1
737 126 m 1,15,16
 546 126 546 126 446.5 195 c 128,-1,17
 347 264 347 264 347 455 c 2,18,-1
 347 992 l 2,19,20
 347 1184 347 1184 447 1258 c 128,-1,21
 547 1332 547 1332 737 1332 c 0,22,23
 928 1332 928 1332 1019 1258 c 128,-1,24
 1110 1184 1110 1184 1110 992 c 2,25,-1
 1110 455 l 2,26,27
 1110 264 1110 264 1020 195 c 128,-1,28
 930 126 930 126 737 126 c 1,29,-1
 737 126 l 1,15,16
EndSplineSet
EndUndoOperation
EndUndoes
Redoes
EndRedoes
EndUndoRedoHistory
Fore
SplineSet
737 126 m 0,0,1
 546 126 546 126 446.5 195 c 128,-1,2
 347 264 347 264 347 455 c 2,3,-1
 347 992 l 2,4,5
 347 1184 347 1184 447 1258 c 128,-1,6
 547 1332 547 1332 737 1332 c 0,7,8
 928 1332 928 1332 1019 1258 c 128,-1,9
 1110 1184 1110 1184 1110 992 c 2,10,-1
 1110 455 l 2,11,12
 1110 264 1110 264 1020 195 c 128,-1,13
 930 126 930 126 737 126 c 0,0,1
737 -24 m 0,14,15
 1084 -24 1084 -24 1197.5 127 c 128,-1,16
 1311 278 1311 278 1311 500 c 2,17,-1
 1311 942 l 2,18,19
 1311 1170 1311 1170 1198.5 1326.5 c 128,-1,20
 1086 1483 1086 1483 737 1483 c 0,21,22
 375 1483 375 1483 260 1333 c 128,-1,23
 145 1183 145 1183 145 955 c 2,24,-1
 145 486 l 2,25,26
 145 261 145 261 261 118.5 c 128,-1,27
 377 -24 377 -24 737 -24 c 0,14,15
EndSplineSet
EndChar

StartChar: P
Encoding: 80 80 47
Width: 1199
Flags: W
LayerCount: 2
UndoRedoHistory
Layer: 1
Undoes
UndoOperation
Index: 0
Type: 1
WasModified: 0
WasOrder2: 1
Width: 1199
VWidth: 2048
LBearingChange: 0
UnicodeEnc: 0
InstructionsLength: 0
SplineSet
171 0 m 1,0,-1
 373 0 l 1,1,-1
 373 529 l 1,2,-1
 710 529 l 2,3,4
 894 529 894 529 1004.5 626.5 c 128,-1,5
 1115 724 1115 724 1115 957 c 2,6,-1
 1115 1024 l 1,7,8
 1111 1245 1111 1245 1001.5 1345.5 c 128,-1,9
 892 1446 892 1446 711 1446 c 2,10,-1
 171 1446 l 1,11,-1
 171 0 l 1,0,-1
373 682 m 1,12,-1
 373 1293 l 1,13,-1
 717 1293 l 2,14,15
 852 1293 852 1293 882.5 1193 c 128,-1,16
 913 1093 913 1093 913 1018 c 2,17,-1
 913 935 l 1,18,19
 912 855 912 855 878.5 768.5 c 128,-1,20
 845 682 845 682 714 682 c 2,21,-1
 373 682 l 1,12,-1
EndSplineSet
EndUndoOperation
EndUndoes
Redoes
EndRedoes
EndUndoRedoHistory
Fore
SplineSet
373 682 m 1,0,-1
 373 1293 l 1,1,-1
 717 1293 l 2,2,3
 852 1293 852 1293 882.5 1193 c 128,-1,4
 913 1093 913 1093 913 1018 c 2,5,-1
 913 935 l 1,6,7
 912 855 912 855 878.5 768.5 c 128,-1,8
 845 682 845 682 714 682 c 2,9,-1
 373 682 l 1,0,-1
171 0 m 1,10,-1
 373 0 l 1,11,-1
 373 529 l 1,12,-1
 710 529 l 2,13,14
 894 529 894 529 1004.5 626.5 c 128,-1,15
 1115 724 1115 724 1115 957 c 2,16,-1
 1115 1024 l 1,17,18
 1111 1245 1111 1245 1001.5 1345.5 c 128,-1,19
 892 1446 892 1446 711 1446 c 2,20,-1
 171 1446 l 1,21,-1
 171 0 l 1,10,-1
EndSplineSet
EndChar

StartChar: Q
Encoding: 81 81 48
Width: 1444
Flags: W
LayerCount: 2
UndoRedoHistory
Layer: 1
Undoes
UndoOperation
Index: 0
Type: 1
WasModified: 0
WasOrder2: 1
Width: 1444
VWidth: 2048
LBearingChange: 0
UnicodeEnc: 0
InstructionsLength: 0
SplineSet
586 -10 m 1,0,1
 685 -211 685 -211 838 -302.5 c 128,-1,2
 991 -394 991 -394 1045 -394 c 1,3,-1
 1096 -258 l 1,4,5
 986 -214 986 -214 884 -143 c 128,-1,6
 782 -72 782 -72 739 35 c 1,7,-1
 586 -10 l 1,0,1
652 -24 m 1,8,-1
 799 -24 l 2,9,10
 1095 -24 1095 -24 1198 108.5 c 128,-1,11
 1301 241 1301 241 1301 440 c 2,12,-1
 1301 1012 l 2,13,14
 1301 1218 1301 1218 1198.5 1350.5 c 128,-1,15
 1096 1483 1096 1483 797 1483 c 2,16,-1
 651 1483 l 2,17,18
 349 1483 349 1483 246 1357 c 128,-1,19
 143 1231 143 1231 143 1025 c 2,20,-1
 143 426 l 2,21,22
 143 224 143 224 247 100 c 128,-1,23
 351 -24 351 -24 652 -24 c 1,24,-1
 652 -24 l 1,8,-1
731 126 m 1,25,26
 577 126 577 126 461 161 c 128,-1,27
 345 196 345 196 345 395 c 2,28,-1
 345 1062 l 2,29,30
 345 1261 345 1261 462 1296.5 c 128,-1,31
 579 1332 579 1332 731 1332 c 0,32,33
 885 1332 885 1332 992.5 1296.5 c 128,-1,34
 1100 1261 1100 1261 1100 1062 c 2,35,-1
 1100 395 l 2,36,37
 1100 196 1100 196 993 161 c 128,-1,38
 886 126 886 126 731 126 c 1,39,-1
 731 126 l 1,25,26
EndSplineSet
EndUndoOperation
EndUndoes
Redoes
EndRedoes
EndUndoRedoHistory
Fore
SplineSet
731 126 m 0,0,1
 577 126 577 126 461 161 c 128,-1,2
 345 196 345 196 345 395 c 2,3,-1
 345 1062 l 2,4,5
 345 1261 345 1261 462 1296.5 c 128,-1,6
 579 1332 579 1332 731 1332 c 0,7,8
 885 1332 885 1332 992.5 1296.5 c 128,-1,9
 1100 1261 1100 1261 1100 1062 c 2,10,-1
 1100 395 l 2,11,12
 1100 196 1100 196 993 161 c 128,-1,13
 886 126 886 126 731 126 c 0,0,1
768.881732822 -24 m 1,14,-1
 799 -24 l 2,15,16
 1095 -24 1095 -24 1198 108.5 c 128,-1,17
 1301 241 1301 241 1301 440 c 2,18,-1
 1301 1012 l 2,19,20
 1301 1218 1301 1218 1198.5 1350.5 c 128,-1,21
 1096 1483 1096 1483 797 1483 c 2,22,-1
 651 1483 l 2,23,24
 349 1483 349 1483 246 1357 c 128,-1,25
 143 1231 143 1231 143 1025 c 2,26,-1
 143 426 l 2,27,28
 143 224 143 224 247 100 c 0,29,30
 340.339752761 -11.2897052151 340.339752761 -11.2897052151 592.363396117 -22.6971647524 c 1,31,32
 689.874810062 -213.915327397 689.874810062 -213.915327397 838 -302.5 c 0,33,34
 991 -394 991 -394 1045 -394 c 1,35,-1
 1096 -258 l 1,36,37
 986 -214 986 -214 884 -143 c 0,38,39
 811.562887859 -92.5780886078 811.562887859 -92.5780886078 768.881732822 -24 c 1,14,-1
EndSplineSet
EndChar

StartChar: R
Encoding: 82 82 49
Width: 1337
Flags: W
LayerCount: 2
UndoRedoHistory
Layer: 1
Undoes
UndoOperation
Index: 0
Type: 1
WasModified: 0
WasOrder2: 1
Width: 1337
VWidth: 2048
LBearingChange: 0
UnicodeEnc: 0
InstructionsLength: 0
SplineSet
742 636 m 1,0,-1
 1042 0 l 1,1,-1
 1241 0 l 1,2,-1
 919 692 l 1,3,-1
 742 636 l 1,0,-1
171 0 m 1,4,-1
 373 0 l 1,5,-1
 373 566 l 1,6,-1
 772 566 l 2,7,8
 956 566 956 566 1072 651 c 128,-1,9
 1188 736 1188 736 1188 969 c 2,10,-1
 1188 1024 l 1,11,12
 1184 1245 1184 1245 1074.5 1345.5 c 128,-1,13
 965 1446 965 1446 784 1446 c 2,14,-1
 171 1446 l 1,15,-1
 171 0 l 1,4,-1
373 719 m 1,16,-1
 373 1293 l 1,17,-1
 790 1293 l 2,18,19
 925 1293 925 1293 955.5 1193 c 128,-1,20
 986 1093 986 1093 986 1018 c 2,21,-1
 986 947 l 1,22,23
 985 867 985 867 946 793 c 128,-1,24
 907 719 907 719 776 719 c 2,25,-1
 373 719 l 1,16,-1
EndSplineSet
EndUndoOperation
EndUndoes
Redoes
EndRedoes
EndUndoRedoHistory
Fore
SplineSet
373 719 m 1,0,-1
 373 1293 l 1,1,-1
 790 1293 l 2,2,3
 925 1293 925 1293 955.5 1193 c 128,-1,4
 986 1093 986 1093 986 1018 c 2,5,-1
 986 947 l 1,6,7
 985 867 985 867 946 793 c 128,-1,8
 907 719 907 719 776 719 c 2,9,-1
 373 719 l 1,0,-1
171 0 m 1,10,-1
 373 0 l 1,11,-1
 373 566 l 1,12,-1
 772 566 l 2,13,14
 773.510374109 566 773.510374109 566 775.016166353 566.005727332 c 1,15,-1
 1042 0 l 1,16,-1
 1241 0 l 1,17,-1
 964.082520064 595.11458421 l 1,18,19
 1023.88968952 615.746755249 1023.88968952 615.746755249 1072 651 c 0,20,21
 1188 736 1188 736 1188 969 c 2,22,-1
 1188 1024 l 1,23,24
 1184 1245 1184 1245 1074.5 1345.5 c 128,-1,25
 965 1446 965 1446 784 1446 c 2,26,-1
 171 1446 l 1,27,-1
 171 0 l 1,10,-1
EndSplineSet
EndChar

StartChar: S
Encoding: 83 83 50
Width: 1228
Flags: W
LayerCount: 2
UndoRedoHistory
Layer: 1
Undoes
UndoOperation
Index: 0
Type: 1
WasModified: 0
WasOrder2: 1
Width: 1228
VWidth: 2048
LBearingChange: 0
UnicodeEnc: 0
InstructionsLength: 0
SplineSet
1124 357 m 1,0,1
 1102 158 1102 158 968.5 67.5 c 128,-1,2
 835 -23 835 -23 618 -23 c 0,3,4
 408 -23 408 -23 263 55.5 c 128,-1,5
 118 134 118 134 114 137 c 1,6,-1
 177 277 l 1,7,8
 198 264 198 264 330.5 197 c 128,-1,9
 463 130 463 130 619 130 c 0,10,11
 785 130 785 130 856 194 c 128,-1,12
 927 258 927 258 936 345 c 0,13,14
 937 354 937 354 937.5 363 c 128,-1,15
 938 372 938 372 938 381 c 0,16,17
 938 489 938 489 866.5 536 c 128,-1,18
 795 583 795 583 673 628 c 1,19,-1
 436 720 l 1,20,21
 329 760 329 760 228 844.5 c 128,-1,22
 127 929 127 929 127 1087 c 0,23,24
 127 1271 127 1271 259.5 1376 c 128,-1,25
 392 1481 392 1481 629 1481 c 0,26,27
 841 1481 841 1481 965 1420.5 c 128,-1,28
 1089 1360 1089 1360 1093 1357 c 1,29,-1
 1019 1228 l 1,30,31
 988 1244 988 1244 880.5 1288 c 128,-1,32
 773 1332 773 1332 648 1332 c 0,33,34
 512 1332 512 1332 415.5 1283 c 128,-1,35
 319 1234 319 1234 319 1098 c 0,36,37
 319 1011 319 1011 370 963 c 128,-1,38
 421 915 421 915 538 872 c 1,39,-1
 776 779 l 1,40,41
 874 743 874 743 998.5 657.5 c 128,-1,42
 1123 572 1123 572 1123 404 c 0,43,44
 1123 394 1123 394 1124 380.5 c 128,-1,45
 1125 367 1125 367 1124 357 c 1,46,-1
 1124 357 l 1,0,1
EndSplineSet
EndUndoOperation
EndUndoes
Redoes
EndRedoes
EndUndoRedoHistory
Fore
SplineSet
1124 357 m 0,0,1
 1102 158 1102 158 968.5 67.5 c 128,-1,2
 835 -23 835 -23 618 -23 c 0,3,4
 408 -23 408 -23 263 55.5 c 128,-1,5
 118 134 118 134 114 137 c 1,6,-1
 177 277 l 1,7,8
 198 264 198 264 330.5 197 c 128,-1,9
 463 130 463 130 619 130 c 0,10,11
 785 130 785 130 856 194 c 128,-1,12
 927 258 927 258 936 345 c 0,13,14
 937 354 937 354 937.5 363 c 128,-1,15
 938 372 938 372 938 381 c 0,16,17
 938 489 938 489 866.5 536 c 128,-1,18
 795 583 795 583 673 628 c 1,19,-1
 436 720 l 1,20,21
 329 760 329 760 228 844.5 c 128,-1,22
 127 929 127 929 127 1087 c 0,23,24
 127 1271 127 1271 259.5 1376 c 128,-1,25
 392 1481 392 1481 629 1481 c 0,26,27
 841 1481 841 1481 965 1420.5 c 128,-1,28
 1089 1360 1089 1360 1093 1357 c 1,29,-1
 1019 1228 l 1,30,31
 988 1244 988 1244 880.5 1288 c 128,-1,32
 773 1332 773 1332 648 1332 c 0,33,34
 512 1332 512 1332 415.5 1283 c 128,-1,35
 319 1234 319 1234 319 1098 c 0,36,37
 319 1011 319 1011 370 963 c 128,-1,38
 421 915 421 915 538 872 c 1,39,-1
 776 779 l 1,40,41
 874 743 874 743 998.5 657.5 c 128,-1,42
 1123 572 1123 572 1123 404 c 0,43,44
 1123 394 1123 394 1124 380.5 c 128,-1,45
 1125 367 1125 367 1124 357 c 0,0,1
EndSplineSet
EndChar

StartChar: T
Encoding: 84 84 51
Width: 1063
Flags: W
LayerCount: 2
UndoRedoHistory
Layer: 1
Undoes
UndoOperation
Index: 0
Type: 1
WasModified: 0
WasOrder2: 1
Width: 1063
VWidth: 2048
LBearingChange: 0
UnicodeEnc: 0
InstructionsLength: 0
SplineSet
44 1446 m 1,0,-1
 1019 1446 l 1,1,-1
 1019 1281 l 1,2,-1
 632 1281 l 1,3,-1
 632 0 l 1,4,-1
 431 0 l 1,5,-1
 431 1281 l 1,6,-1
 44 1281 l 1,7,-1
 44 1446 l 1,0,-1
EndSplineSet
EndUndoOperation
EndUndoes
Redoes
EndRedoes
EndUndoRedoHistory
Fore
SplineSet
44 1446 m 1,0,-1
 1019 1446 l 1,1,-1
 1019 1281 l 1,2,-1
 632 1281 l 1,3,-1
 632 0 l 1,4,-1
 431 0 l 1,5,-1
 431 1281 l 1,6,-1
 44 1281 l 1,7,-1
 44 1446 l 1,0,-1
EndSplineSet
EndChar

StartChar: U
Encoding: 85 85 52
Width: 1378
Flags: W
LayerCount: 2
UndoRedoHistory
Layer: 1
Undoes
UndoOperation
Index: 0
Type: 1
WasModified: 0
WasOrder2: 1
Width: 1378
VWidth: 2048
LBearingChange: 0
UnicodeEnc: 0
InstructionsLength: 0
SplineSet
633 -24 m 2,0,1
 332 -24 332 -24 231.5 100 c 128,-1,2
 131 224 131 224 131 426 c 2,3,-1
 131 1446 l 1,4,-1
 333 1446 l 1,5,-1
 333 400 l 2,6,7
 333 201 333 201 442.5 163.5 c 128,-1,8
 552 126 552 126 702 126 c 0,9,10
 853 126 853 126 952 163.5 c 128,-1,11
 1051 201 1051 201 1051 400 c 2,12,-1
 1051 1446 l 1,13,-1
 1253 1446 l 1,14,-1
 1253 440 l 2,15,16
 1253 240 1253 240 1153.5 108 c 128,-1,17
 1054 -24 1054 -24 756 -24 c 2,18,-1
 633 -24 l 2,0,1
EndSplineSet
EndUndoOperation
EndUndoes
Redoes
EndRedoes
EndUndoRedoHistory
Fore
SplineSet
633 -24 m 2,0,1
 332 -24 332 -24 231.5 100 c 128,-1,2
 131 224 131 224 131 426 c 2,3,-1
 131 1446 l 1,4,-1
 333 1446 l 1,5,-1
 333 400 l 2,6,7
 333 201 333 201 442.5 163.5 c 128,-1,8
 552 126 552 126 702 126 c 0,9,10
 853 126 853 126 952 163.5 c 128,-1,11
 1051 201 1051 201 1051 400 c 2,12,-1
 1051 1446 l 1,13,-1
 1253 1446 l 1,14,-1
 1253 440 l 2,15,16
 1253 240 1253 240 1153.5 108 c 128,-1,17
 1054 -24 1054 -24 756 -24 c 2,18,-1
 633 -24 l 2,0,1
EndSplineSet
EndChar

StartChar: V
Encoding: 86 86 53
Width: 1269
Flags: W
LayerCount: 2
UndoRedoHistory
Layer: 1
Undoes
UndoOperation
Index: 0
Type: 1
WasModified: 0
WasOrder2: 1
Width: 1269
VWidth: 2048
LBearingChange: 0
UnicodeEnc: 0
InstructionsLength: 0
SplineSet
51 1446 m 1,0,-1
 258 1446 l 1,1,-1
 656 294 l 1,2,-1
 1054 1446 l 1,3,-1
 1263 1446 l 1,4,-1
 743 0 l 1,5,-1
 566 0 l 1,6,-1
 51 1446 l 1,0,-1
EndSplineSet
EndUndoOperation
EndUndoes
Redoes
EndRedoes
EndUndoRedoHistory
Fore
SplineSet
51 1446 m 1,0,-1
 258 1446 l 1,1,-1
 656 294 l 1,2,-1
 1054 1446 l 1,3,-1
 1263 1446 l 1,4,-1
 743 0 l 1,5,-1
 566 0 l 1,6,-1
 51 1446 l 1,0,-1
EndSplineSet
EndChar

StartChar: W
Encoding: 87 87 54
Width: 1843
Flags: W
LayerCount: 2
UndoRedoHistory
Layer: 1
Undoes
UndoOperation
Index: 0
Type: 1
WasModified: 0
WasOrder2: 1
Width: 1843
VWidth: 2048
LBearingChange: 0
UnicodeEnc: 0
InstructionsLength: 0
SplineSet
854 1446 m 1,0,-1
 1021 1446 l 1,1,-1
 1327 346 l 1,2,-1
 1605 1446 l 1,3,-1
 1788 1446 l 1,4,-1
 1407 0 l 1,5,-1
 1255 0 l 1,6,-1
 854 1446 l 1,0,-1
55 1446 m 1,7,-1
 232 1446 l 1,8,-1
 514 346 l 1,9,-1
 806 1446 l 1,10,-1
 980 1446 l 1,11,-1
 585 0 l 1,12,-1
 433 0 l 1,13,-1
 55 1446 l 1,7,-1
EndSplineSet
EndUndoOperation
EndUndoes
Redoes
EndRedoes
EndUndoRedoHistory
Fore
SplineSet
55 1446 m 1,0,-1
 232 1446 l 1,1,-1
 514 346 l 1,2,-1
 806 1446 l 1,3,-1
 854 1446 l 1,4,-1
 980 1446 l 1,5,-1
 1021 1446 l 1,6,-1
 1327 346 l 1,7,-1
 1605 1446 l 1,8,-1
 1788 1446 l 1,9,-1
 1407 0 l 1,10,-1
 1255 0 l 1,11,-1
 917.474874372 1217.11055276 l 1,12,-1
 585 0 l 1,13,-1
 433 0 l 1,14,-1
 55 1446 l 1,0,-1
EndSplineSet
EndChar

StartChar: X
Encoding: 88 88 55
Width: 1185
Flags: W
LayerCount: 2
UndoRedoHistory
Layer: 1
Undoes
UndoOperation
Index: 0
Type: 1
WasModified: 0
WasOrder2: 1
Width: 1185
VWidth: 2048
LBearingChange: 0
UnicodeEnc: 0
InstructionsLength: 0
SplineSet
941 0 m 1,0,-1
 33 1446 l 1,1,-1
 236 1446 l 1,2,-1
 1159 0 l 1,3,-1
 941 0 l 1,0,-1
1144 1446 m 1,4,-1
 222 0 l 1,5,-1
 26 0 l 1,6,-1
 927 1446 l 1,7,-1
 1144 1446 l 1,4,-1
EndSplineSet
EndUndoOperation
EndUndoes
Redoes
EndRedoes
EndUndoRedoHistory
Fore
SplineSet
690.246070461 734.364227642 m 1,0,-1
 1159 0 l 1,1,-1
 941 0 l 1,2,-1
 584.250273224 568.127868852 l 1,3,-1
 222 0 l 1,4,-1
 26 0 l 1,5,-1
 481.729684909 731.393034826 l 1,6,-1
 33 1446 l 1,7,-1
 236 1446 l 1,8,-1
 585.667214912 898.200657895 l 1,9,-1
 927 1446 l 1,10,-1
 1144 1446 l 1,11,-1
 690.246070461 734.364227642 l 1,0,-1
EndSplineSet
EndChar

StartChar: Y
Encoding: 89 89 56
Width: 1217
Flags: W
LayerCount: 2
UndoRedoHistory
Layer: 1
Undoes
UndoOperation
Index: 0
Type: 1
WasModified: 0
WasOrder2: 1
Width: 1217
VWidth: 2048
LBearingChange: 0
UnicodeEnc: 0
InstructionsLength: 0
SplineSet
14 1446 m 1,0,-1
 215 1446 l 1,1,-1
 620 724 l 1,2,-1
 1008 1446 l 1,3,-1
 1203 1446 l 1,4,-1
 720 568 l 1,5,-1
 720 0 l 1,6,-1
 519 0 l 1,7,-1
 519 568 l 1,8,-1
 14 1446 l 1,0,-1
EndSplineSet
EndUndoOperation
EndUndoes
Redoes
EndRedoes
EndUndoRedoHistory
Fore
SplineSet
14 1446 m 1,0,-1
 215 1446 l 1,1,-1
 620 724 l 1,2,-1
 1008 1446 l 1,3,-1
 1203 1446 l 1,4,-1
 720 568 l 1,5,-1
 720 0 l 1,6,-1
 519 0 l 1,7,-1
 519 568 l 1,8,-1
 14 1446 l 1,0,-1
EndSplineSet
EndChar

StartChar: Z
Encoding: 90 90 57
Width: 1070
Flags: W
LayerCount: 2
UndoRedoHistory
Layer: 1
Undoes
UndoOperation
Index: 0
Type: 1
WasModified: 0
WasOrder2: 1
Width: 1070
VWidth: 2048
LBearingChange: 0
UnicodeEnc: 0
InstructionsLength: 0
SplineSet
129 1446 m 1,0,-1
 994 1446 l 1,1,-1
 994 1295 l 1,2,-1
 308 165 l 1,3,-1
 1008 165 l 1,4,-1
 1008 0 l 1,5,-1
 86 0 l 1,6,-1
 86 150 l 1,7,-1
 773 1281 l 1,8,-1
 129 1281 l 1,9,-1
 129 1446 l 1,0,-1
EndSplineSet
EndUndoOperation
EndUndoes
Redoes
EndRedoes
EndUndoRedoHistory
Fore
SplineSet
129 1446 m 1,0,-1
 994 1446 l 1,1,-1
 994 1295 l 1,2,-1
 308 165 l 1,3,-1
 1008 165 l 1,4,-1
 1008 0 l 1,5,-1
 86 0 l 1,6,-1
 86 150 l 1,7,-1
 773 1281 l 1,8,-1
 129 1281 l 1,9,-1
 129 1446 l 1,0,-1
EndSplineSet
EndChar

StartChar: bracketleft
Encoding: 91 91 58
Width: 594
Flags: W
LayerCount: 2
UndoRedoHistory
Layer: 1
Undoes
UndoOperation
Index: 0
Type: 1
WasModified: 0
WasOrder2: 1
Width: 594
VWidth: 2048
LBearingChange: 0
UnicodeEnc: 0
InstructionsLength: 0
SplineSet
350 58 m 1,0,-1
 540 58 l 1,1,-1
 540 -76 l 1,2,-1
 119 -76 l 1,3,-1
 119 1529 l 1,4,-1
 540 1529 l 1,5,-1
 540 1396 l 1,6,-1
 350 1396 l 1,7,-1
 350 58 l 1,0,-1
EndSplineSet
EndUndoOperation
EndUndoes
Redoes
EndRedoes
EndUndoRedoHistory
Fore
SplineSet
350 58 m 1,0,-1
 540 58 l 1,1,-1
 540 -76 l 1,2,-1
 119 -76 l 1,3,-1
 119 1529 l 1,4,-1
 540 1529 l 1,5,-1
 540 1396 l 1,6,-1
 350 1396 l 1,7,-1
 350 58 l 1,0,-1
EndSplineSet
EndChar

StartChar: backslash
Encoding: 92 92 59
Width: 502
Flags: W
LayerCount: 2
UndoRedoHistory
Layer: 1
Undoes
UndoOperation
Index: 0
Type: 1
WasModified: 0
WasOrder2: 1
Width: 502
VWidth: 2048
LBearingChange: 0
UnicodeEnc: 0
InstructionsLength: 0
SplineSet
44 1487 m 1,0,-1
 264 1487 l 1,1,-1
 448 -32 l 1,2,-1
 228 -32 l 1,3,-1
 44 1487 l 1,0,-1
EndSplineSet
EndUndoOperation
EndUndoes
Redoes
EndRedoes
EndUndoRedoHistory
Fore
SplineSet
44 1487 m 1,0,-1
 264 1487 l 1,1,-1
 448 -32 l 1,2,-1
 228 -32 l 1,3,-1
 44 1487 l 1,0,-1
EndSplineSet
EndChar

StartChar: bracketright
Encoding: 93 93 60
Width: 560
Flags: W
LayerCount: 2
UndoRedoHistory
Layer: 1
Undoes
UndoOperation
Index: 0
Type: 1
WasModified: 0
WasOrder2: 1
Width: 560
VWidth: 2048
LBearingChange: 0
UnicodeEnc: 0
InstructionsLength: 0
SplineSet
55 1496 m 1,0,-1
 453 1496 l 1,1,-1
 453 -76 l 1,2,-1
 55 -76 l 1,3,-1
 55 38 l 1,4,-1
 242 38 l 1,5,-1
 242 1382 l 1,6,-1
 55 1382 l 1,7,-1
 55 1496 l 1,0,-1
EndSplineSet
EndUndoOperation
EndUndoes
Redoes
EndRedoes
EndUndoRedoHistory
Fore
SplineSet
55 1496 m 1,0,-1
 453 1496 l 1,1,-1
 453 -76 l 1,2,-1
 55 -76 l 1,3,-1
 55 38 l 1,4,-1
 242 38 l 1,5,-1
 242 1382 l 1,6,-1
 55 1382 l 1,7,-1
 55 1496 l 1,0,-1
EndSplineSet
EndChar

StartChar: asciicircum
Encoding: 94 94 61
Width: 1194
Flags: W
LayerCount: 2
UndoRedoHistory
Layer: 1
Undoes
UndoOperation
Index: 0
Type: 1
WasModified: 0
WasOrder2: 1
Width: 1194
VWidth: 2048
LBearingChange: 0
UnicodeEnc: 0
InstructionsLength: 0
SplineSet
779 1283 m 1,0,-1
 1067 746 l 1,1,-1
 814 746 l 1,2,-1
 592 1091 l 1,3,-1
 372 746 l 1,4,-1
 118 746 l 1,5,-1
 407 1283 l 1,6,-1
 779 1283 l 1,0,-1
EndSplineSet
EndUndoOperation
EndUndoes
Redoes
EndRedoes
EndUndoRedoHistory
Fore
SplineSet
779 1283 m 1,0,-1
 1067 746 l 1,1,-1
 814 746 l 1,2,-1
 592 1091 l 1,3,-1
 372 746 l 1,4,-1
 118 746 l 1,5,-1
 407 1283 l 1,6,-1
 779 1283 l 1,0,-1
EndSplineSet
EndChar

StartChar: underscore
Encoding: 95 95 62
Width: 916
Flags: W
LayerCount: 2
UndoRedoHistory
Layer: 1
Undoes
UndoOperation
Index: 0
Type: 1
WasModified: 0
WasOrder2: 1
Width: 916
VWidth: 2048
LBearingChange: 0
UnicodeEnc: 0
InstructionsLength: 0
SplineSet
905 89 m 1,0,-1
 905 -82 l 1,1,-1
 4 -82 l 1,2,-1
 4 89 l 1,3,-1
 905 89 l 1,0,-1
EndSplineSet
EndUndoOperation
EndUndoes
Redoes
EndRedoes
EndUndoRedoHistory
Fore
SplineSet
905 89 m 1,0,-1
 905 -82 l 1,1,-1
 4 -82 l 1,2,-1
 4 89 l 1,3,-1
 905 89 l 1,0,-1
EndSplineSet
EndChar

StartChar: grave
Encoding: 96 96 63
Width: 616
Flags: W
LayerCount: 2
UndoRedoHistory
Layer: 1
Undoes
UndoOperation
Index: 0
Type: 1
WasModified: 0
WasOrder2: 1
Width: 616
VWidth: 2048
LBearingChange: 0
UnicodeEnc: 0
InstructionsLength: 0
SplineSet
115 1474 m 1,0,-1
 380 1474 l 1,1,-1
 485 1155 l 1,2,-1
 322 1155 l 1,3,-1
 115 1474 l 1,0,-1
EndSplineSet
EndUndoOperation
EndUndoes
Redoes
EndRedoes
EndUndoRedoHistory
Fore
SplineSet
115 1474 m 1,0,-1
 380 1474 l 1,1,-1
 485 1155 l 1,2,-1
 322 1155 l 1,3,-1
 115 1474 l 1,0,-1
EndSplineSet
EndChar

StartChar: a
Encoding: 97 97 64
Width: 1148
Flags: W
LayerCount: 2
UndoRedoHistory
Layer: 1
Undoes
UndoOperation
Index: 0
Type: 1
WasModified: 0
WasOrder2: 1
Width: 1148
VWidth: 2048
LBearingChange: 0
UnicodeEnc: 0
InstructionsLength: 0
SplineSet
1085 129 m 1,0,-1
 1037 129 l 2,1,2
 996 129 996 129 975 156.5 c 128,-1,3
 954 184 954 184 954 247 c 0,4,5
 954 254 954 254 954 262 c 128,-1,6
 954 270 954 270 954 278 c 2,7,-1
 954 715 l 2,8,9
 954 881 954 881 867.5 992.5 c 128,-1,10
 781 1104 781 1104 572 1104 c 0,11,12
 365 1104 365 1104 254.5 1013.5 c 128,-1,13
 144 923 144 923 144 763 c 2,14,-1
 144 711 l 1,15,-1
 325 711 l 1,16,-1
 325 762 l 2,17,18
 325 827 325 827 366 894 c 128,-1,19
 407 961 407 961 566 961 c 0,20,21
 709 961 709 961 737.5 895 c 128,-1,22
 766 829 766 829 766 770 c 0,23,24
 766 689 766 689 691 661 c 128,-1,25
 616 633 616 633 526 611 c 0,26,27
 268 548 268 548 192.5 472 c 128,-1,28
 117 396 117 396 117 289 c 0,29,30
 117 164 117 164 203.5 72 c 128,-1,31
 290 -20 290 -20 458 -20 c 0,32,33
 604 -20 604 -20 678.5 34 c 128,-1,34
 753 88 753 88 788 143 c 1,35,36
 800 62 800 62 858.5 26 c 128,-1,37
 917 -10 917 -10 1010 -10 c 2,38,-1
 1085 -10 l 1,39,-1
 1085 129 l 1,0,-1
766 279 m 1,40,41
 744 204 744 204 657.5 160 c 128,-1,42
 571 116 571 116 487 116 c 0,43,44
 410 116 410 116 354.5 156 c 128,-1,45
 299 196 299 196 299 279 c 0,46,47
 299 357 299 357 339.5 401 c 128,-1,48
 380 445 380 445 541 488 c 0,49,50
 642 515 642 515 693 541 c 128,-1,51
 744 567 744 567 766 589 c 1,52,-1
 766 279 l 1,40,41
EndSplineSet
EndUndoOperation
EndUndoes
Redoes
EndRedoes
EndUndoRedoHistory
Fore
SplineSet
766 279 m 1,0,1
 744 204 744 204 657.5 160 c 128,-1,2
 571 116 571 116 487 116 c 0,3,4
 410 116 410 116 354.5 156 c 128,-1,5
 299 196 299 196 299 279 c 0,6,7
 299 357 299 357 339.5 401 c 128,-1,8
 380 445 380 445 541 488 c 0,9,10
 642 515 642 515 693 541 c 128,-1,11
 744 567 744 567 766 589 c 1,12,-1
 766 279 l 1,0,1
1085 129 m 1,13,-1
 1037 129 l 2,14,15
 996 129 996 129 975 156.5 c 128,-1,16
 954 184 954 184 954 247 c 0,17,18
 954 254 954 254 954 262 c 128,-1,19
 954 270 954 270 954 278 c 2,20,-1
 954 715 l 2,21,22
 954 881 954 881 867.5 992.5 c 128,-1,23
 781 1104 781 1104 572 1104 c 0,24,25
 365 1104 365 1104 254.5 1013.5 c 128,-1,26
 144 923 144 923 144 763 c 2,27,-1
 144 711 l 1,28,-1
 325 711 l 1,29,-1
 325 762 l 2,30,31
 325 827 325 827 366 894 c 128,-1,32
 407 961 407 961 566 961 c 0,33,34
 709 961 709 961 737.5 895 c 128,-1,35
 766 829 766 829 766 770 c 0,36,37
 766 689 766 689 691 661 c 128,-1,38
 616 633 616 633 526 611 c 0,39,40
 268 548 268 548 192.5 472 c 128,-1,41
 117 396 117 396 117 289 c 0,42,43
 117 164 117 164 203.5 72 c 128,-1,44
 290 -20 290 -20 458 -20 c 0,45,46
 604 -20 604 -20 678.5 34 c 128,-1,47
 753 88 753 88 788 143 c 1,48,49
 800 62 800 62 858.5 26 c 128,-1,50
 917 -10 917 -10 1010 -10 c 2,51,-1
 1085 -10 l 1,52,-1
 1085 129 l 1,13,-1
EndSplineSet
EndChar

StartChar: b
Encoding: 98 98 65
Width: 1137
Flags: W
LayerCount: 2
UndoRedoHistory
Layer: 1
Undoes
UndoOperation
Index: 0
Type: 1
WasModified: 0
WasOrder2: 1
Width: 1137
VWidth: 2048
LBearingChange: 0
UnicodeEnc: 0
InstructionsLength: 0
SplineSet
284 65 m 1,0,-1
 284 218 l 1,1,2
 297 211 297 211 363 167.5 c 128,-1,3
 429 124 429 124 554 124 c 0,4,5
 664 124 664 124 743.5 180 c 128,-1,6
 823 236 823 236 823 335 c 2,7,-1
 823 763 l 2,8,9
 823 860 823 860 751.5 909.5 c 128,-1,10
 680 959 680 959 577 959 c 0,11,12
 473 959 473 959 405 909.5 c 128,-1,13
 337 860 337 860 330 844 c 1,14,-1
 330 993 l 1,15,16
 367 1035 367 1035 437.5 1069.5 c 128,-1,17
 508 1104 508 1104 606 1104 c 0,18,19
 808 1104 808 1104 909.5 1004.5 c 128,-1,20
 1011 905 1011 905 1011 749 c 2,21,-1
 1011 356 l 2,22,23
 1011 193 1011 193 899.5 86.5 c 128,-1,24
 788 -20 788 -20 582 -20 c 0,25,26
 457 -20 457 -20 385.5 15 c 128,-1,27
 314 50 314 50 284 65 c 1,28,-1
 284 65 l 1,0,-1
332 0 m 1,29,-1
 144 0 l 1,30,-1
 144 1459 l 1,31,-1
 332 1459 l 1,32,-1
 332 0 l 1,29,-1
EndSplineSet
EndUndoOperation
EndUndoes
Redoes
EndRedoes
EndUndoRedoHistory
Fore
SplineSet
332 0 m 1,0,-1
 144 0 l 1,1,-1
 144 1459 l 1,2,-1
 332 1459 l 1,3,-1
 332 995.237804301 l 1,4,5
 368.88264598 1035.92129484 368.88264598 1035.92129484 437.5 1069.5 c 0,6,7
 508 1104 508 1104 606 1104 c 0,8,9
 808 1104 808 1104 909.5 1004.5 c 128,-1,10
 1011 905 1011 905 1011 749 c 2,11,-1
 1011 356 l 2,12,13
 1011 193 1011 193 899.5 86.5 c 128,-1,14
 788 -20 788 -20 582 -20 c 0,15,16
 457 -20 457 -20 385.5 15 c 0,17,18
 354.965741752 29.9468397021 354.965741752 29.9468397021 332 41.2462015742 c 1,19,-1
 332 0 l 1,0,-1
332 847.520220747 m 1,20,-1
 332 187.8237446 l 1,21,22
 345.67371309 178.919598191 345.67371309 178.919598191 363 167.5 c 0,23,24
 429 124 429 124 554 124 c 0,25,26
 664 124 664 124 743.5 180 c 128,-1,27
 823 236 823 236 823 335 c 2,28,-1
 823 763 l 2,29,30
 823 860 823 860 751.5 909.5 c 128,-1,31
 680 959 680 959 577 959 c 0,32,33
 473 959 473 959 405 909.5 c 0,34,35
 343.774022696 864.931090051 343.774022696 864.931090051 332 847.520220747 c 1,20,-1
EndSplineSet
EndChar

StartChar: c
Encoding: 99 99 66
Width: 1071
Flags: W
LayerCount: 2
UndoRedoHistory
Layer: 1
Undoes
UndoOperation
Index: 0
Type: 1
WasModified: 0
WasOrder2: 1
Width: 1071
VWidth: 2048
LBearingChange: 0
UnicodeEnc: 0
InstructionsLength: 0
SplineSet
782 679 m 1,0,-1
 782 793 l 2,1,2
 782 889 782 889 723 924 c 128,-1,3
 664 959 664 959 556 959 c 0,4,5
 452 959 452 959 382.5 916.5 c 128,-1,6
 313 874 313 874 313 774 c 2,7,-1
 313 315 l 2,8,9
 313 215 313 215 379.5 169.5 c 128,-1,10
 446 124 446 124 556 124 c 0,11,12
 660 124 660 124 721 162.5 c 128,-1,13
 782 201 782 201 782 300 c 2,14,-1
 782 404 l 1,15,-1
 963 404 l 1,16,-1
 963 326 l 2,17,18
 963 177 963 177 882.5 78.5 c 128,-1,19
 802 -20 802 -20 556 -20 c 0,20,21
 320 -20 320 -20 223 76 c 128,-1,22
 126 172 126 172 126 321 c 2,23,-1
 126 768 l 2,24,25
 126 921 126 921 243 1012.5 c 128,-1,26
 360 1104 360 1104 556 1104 c 256,27,28
 752 1104 752 1104 857.5 1020.5 c 128,-1,29
 963 937 963 937 963 774 c 2,30,-1
 963 679 l 1,31,-1
 782 679 l 1,0,-1
EndSplineSet
EndUndoOperation
EndUndoes
Redoes
EndRedoes
EndUndoRedoHistory
Fore
SplineSet
782 679 m 1,0,-1
 782 793 l 2,1,2
 782 889 782 889 723 924 c 128,-1,3
 664 959 664 959 556 959 c 0,4,5
 452 959 452 959 382.5 916.5 c 128,-1,6
 313 874 313 874 313 774 c 2,7,-1
 313 315 l 2,8,9
 313 215 313 215 379.5 169.5 c 128,-1,10
 446 124 446 124 556 124 c 0,11,12
 660 124 660 124 721 162.5 c 128,-1,13
 782 201 782 201 782 300 c 2,14,-1
 782 404 l 1,15,-1
 963 404 l 1,16,-1
 963 326 l 2,17,18
 963 177 963 177 882.5 78.5 c 128,-1,19
 802 -20 802 -20 556 -20 c 0,20,21
 320 -20 320 -20 223 76 c 128,-1,22
 126 172 126 172 126 321 c 2,23,-1
 126 768 l 2,24,25
 126 921 126 921 243 1012.5 c 128,-1,26
 360 1104 360 1104 556 1104 c 128,-1,27
 752 1104 752 1104 857.5 1020.5 c 128,-1,28
 963 937 963 937 963 774 c 2,29,-1
 963 679 l 1,30,-1
 782 679 l 1,0,-1
EndSplineSet
EndChar

StartChar: d
Encoding: 100 100 67
Width: 1140
Flags: W
LayerCount: 2
UndoRedoHistory
Layer: 1
Undoes
UndoOperation
Index: 0
Type: 1
WasModified: 0
WasOrder2: 1
Width: 1140
VWidth: 2048
LBearingChange: 0
UnicodeEnc: 0
InstructionsLength: 0
SplineSet
853 1010 m 1,0,1
 849 979 849 979 854 902.5 c 128,-1,2
 859 826 859 826 850 827 c 1,3,4
 844 872 844 872 776 916 c 128,-1,5
 708 960 708 960 583 960 c 0,6,7
 473 960 473 960 394.5 914 c 128,-1,8
 316 868 316 868 316 769 c 2,9,-1
 316 321 l 2,10,11
 316 224 316 224 386.5 174.5 c 128,-1,12
 457 125 457 125 560 125 c 0,13,14
 664 125 664 125 732 159.5 c 128,-1,15
 800 194 800 194 807 210 c 1,16,-1
 807 61 l 1,17,18
 770 19 770 19 686 -0.5 c 128,-1,19
 602 -20 602 -20 548 -20 c 0,20,21
 346 -20 346 -20 237 79.5 c 128,-1,22
 128 179 128 179 128 335 c 2,23,-1
 128 748 l 2,24,25
 128 911 128 911 238.5 1007.5 c 128,-1,26
 349 1104 349 1104 555 1104 c 0,27,28
 636 1104 636 1104 733.5 1076 c 128,-1,29
 831 1048 831 1048 853 1010 c 1,30,-1
 853 1010 l 1,0,1
805 1459 m 1,31,-1
 993 1459 l 1,32,-1
 993 0 l 1,33,-1
 805 0 l 1,34,-1
 805 1459 l 1,31,-1
EndSplineSet
EndUndoOperation
EndUndoes
Redoes
EndRedoes
EndUndoRedoHistory
Fore
SplineSet
805 1459 m 1,0,-1
 993 1459 l 1,1,-1
 993 0 l 1,2,-1
 805 0 l 1,3,-1
 805 58.7833118304 l 1,4,5
 767.767417621 18.4817219477 767.767417621 18.4817219477 686 -0.5 c 0,6,7
 602 -20 602 -20 548 -20 c 0,8,9
 346 -20 346 -20 237 79.5 c 128,-1,10
 128 179 128 179 128 335 c 2,11,-1
 128 748 l 2,12,13
 128 911 128 911 238.5 1007.5 c 128,-1,14
 349 1104 349 1104 555 1104 c 0,15,16
 636 1104 636 1104 733.5 1076 c 0,17,18
 776.640610066 1063.61090172 776.640610066 1063.61090172 805 1049.26402595 c 1,19,-1
 805 1459 l 1,0,-1
805 206.628635385 m 1,20,-1
 805 894.879676738 l 1,21,22
 792.275980485 905.468483215 792.275980485 905.468483215 776 916 c 0,23,24
 708 960 708 960 583 960 c 0,25,26
 473 960 473 960 394.5 914 c 128,-1,27
 316 868 316 868 316 769 c 2,28,-1
 316 321 l 2,29,30
 316 224 316 224 386.5 174.5 c 128,-1,31
 457 125 457 125 560 125 c 0,32,33
 664 125 664 125 732 159.5 c 0,34,35
 793.225977304 190.563179661 793.225977304 190.563179661 805 206.628635385 c 1,20,-1
EndSplineSet
EndChar

StartChar: e
Encoding: 101 101 68
Width: 1070
Flags: W
LayerCount: 2
UndoRedoHistory
Layer: 1
Undoes
UndoOperation
Index: 0
Type: 1
WasModified: 0
WasOrder2: 1
Width: 1070
VWidth: 2048
LBearingChange: 0
UnicodeEnc: 0
InstructionsLength: 0
SplineSet
560 -20 m 1,0,1
 324 -20 324 -20 226 78.5 c 128,-1,2
 128 177 128 177 128 333 c 2,3,-1
 128 760 l 2,4,5
 128 913 128 913 240 1008.5 c 128,-1,6
 352 1104 352 1104 560 1104 c 0,7,8
 766 1104 766 1104 868.5 1016.5 c 128,-1,9
 971 929 971 929 971 775 c 2,10,-1
 971 517 l 1,11,-1
 316 517 l 1,12,-1
 316 317 l 2,13,14
 316 217 316 217 377 170.5 c 128,-1,15
 438 124 438 124 560 124 c 0,16,17
 664 124 664 124 726.5 156.5 c 128,-1,18
 789 189 789 189 789 288 c 2,19,-1
 789 353 l 1,20,-1
 971 353 l 1,21,-1
 971 304 l 2,22,23
 971 155 971 155 888.5 67.5 c 128,-1,24
 806 -20 806 -20 560 -20 c 1,25,-1
 560 -20 l 1,0,1
316 647 m 1,26,-1
 789 647 l 1,27,-1
 789 796 l 2,28,29
 789 894 789 894 728.5 926.5 c 128,-1,30
 668 959 668 959 560 959 c 0,31,32
 448 959 448 959 382 918 c 128,-1,33
 316 877 316 877 316 777 c 2,34,-1
 316 647 l 1,26,-1
EndSplineSet
EndUndoOperation
EndUndoes
Redoes
EndRedoes
EndUndoRedoHistory
Fore
SplineSet
316 647 m 1,0,-1
 789 647 l 1,1,-1
 789 796 l 2,2,3
 789 894 789 894 728.5 926.5 c 128,-1,4
 668 959 668 959 560 959 c 0,5,6
 448 959 448 959 382 918 c 128,-1,7
 316 877 316 877 316 777 c 2,8,-1
 316 647 l 1,0,-1
560 -20 m 0,9,10
 324 -20 324 -20 226 78.5 c 128,-1,11
 128 177 128 177 128 333 c 2,12,-1
 128 760 l 2,13,14
 128 913 128 913 240 1008.5 c 128,-1,15
 352 1104 352 1104 560 1104 c 0,16,17
 766 1104 766 1104 868.5 1016.5 c 128,-1,18
 971 929 971 929 971 775 c 2,19,-1
 971 517 l 1,20,-1
 316 517 l 1,21,-1
 316 317 l 2,22,23
 316 217 316 217 377 170.5 c 128,-1,24
 438 124 438 124 560 124 c 0,25,26
 664 124 664 124 726.5 156.5 c 128,-1,27
 789 189 789 189 789 288 c 2,28,-1
 789 353 l 1,29,-1
 971 353 l 1,30,-1
 971 304 l 2,31,32
 971 155 971 155 888.5 67.5 c 128,-1,33
 806 -20 806 -20 560 -20 c 0,9,10
EndSplineSet
EndChar

StartChar: f
Encoding: 102 102 69
Width: 651
Flags: W
LayerCount: 2
UndoRedoHistory
Layer: 1
Undoes
UndoOperation
Index: 0
Type: 1
WasModified: 0
WasOrder2: 1
Width: 651
VWidth: 2048
LBearingChange: 0
UnicodeEnc: 0
InstructionsLength: 0
SplineSet
459 1417 m 1,0,-1
 618 1417 l 1,1,-1
 618 1281 l 1,2,-1
 577 1281 l 1,3,4
 449 1279 449 1279 427.5 1256 c 128,-1,5
 406 1233 406 1233 406 1175 c 2,6,-1
 406 1084 l 1,7,-1
 621 1084 l 1,8,-1
 621 965 l 1,9,-1
 406 965 l 1,10,-1
 406 -1 l 1,11,-1
 218 -1 l 1,12,-1
 218 965 l 1,13,-1
 56 965 l 1,14,-1
 56 1084 l 1,15,-1
 218 1084 l 1,16,-1
 218 1113 l 2,17,18
 218 1264 218 1264 257 1340.5 c 128,-1,19
 296 1417 296 1417 459 1417 c 1,20,-1
 459 1417 l 1,0,-1
EndSplineSet
EndUndoOperation
EndUndoes
Redoes
EndRedoes
EndUndoRedoHistory
Fore
SplineSet
459 1417 m 2,0,-1
 618 1417 l 1,1,-1
 618 1281 l 1,2,-1
 577 1281 l 1,3,4
 449 1279 449 1279 427.5 1256 c 128,-1,5
 406 1233 406 1233 406 1175 c 2,6,-1
 406 1084 l 1,7,-1
 621 1084 l 1,8,-1
 621 965 l 1,9,-1
 406 965 l 1,10,-1
 406 -1 l 1,11,-1
 218 -1 l 1,12,-1
 218 965 l 1,13,-1
 56 965 l 1,14,-1
 56 1084 l 1,15,-1
 218 1084 l 1,16,-1
 218 1113 l 2,17,18
 218 1264 218 1264 257 1340.5 c 128,-1,19
 296 1417 296 1417 459 1417 c 2,0,-1
EndSplineSet
EndChar

StartChar: h
Encoding: 104 104 70
Width: 1138
Flags: W
LayerCount: 2
UndoRedoHistory
Layer: 1
Undoes
UndoOperation
Index: 0
Type: 1
WasModified: 0
WasOrder2: 1
Width: 1138
VWidth: 2048
LBearingChange: 0
UnicodeEnc: 0
InstructionsLength: 0
SplineSet
144 0 m 1,0,-1
 144 1459 l 1,1,-1
 332 1459 l 1,2,-1
 332 978 l 1,3,4
 378 1033 378 1033 452.5 1068.5 c 128,-1,5
 527 1104 527 1104 642 1104 c 0,6,7
 837 1104 837 1104 918.5 1009.5 c 128,-1,8
 1000 915 1000 915 1000 787 c 2,9,-1
 1000 0 l 1,10,-1
 812 0 l 1,11,-1
 812 800 l 2,12,13
 812 880 812 880 752 919.5 c 128,-1,14
 692 959 692 959 594 959 c 0,15,16
 457 959 457 959 394.5 904.5 c 128,-1,17
 332 850 332 850 332 772 c 2,18,-1
 332 0 l 1,19,-1
 144 0 l 1,0,-1
EndSplineSet
EndUndoOperation
EndUndoes
Redoes
EndRedoes
EndUndoRedoHistory
Fore
SplineSet
144 0 m 1,0,-1
 144 1459 l 1,1,-1
 332 1459 l 1,2,-1
 332 978 l 1,3,4
 378 1033 378 1033 452.5 1068.5 c 128,-1,5
 527 1104 527 1104 642 1104 c 0,6,7
 837 1104 837 1104 918.5 1009.5 c 128,-1,8
 1000 915 1000 915 1000 787 c 2,9,-1
 1000 0 l 1,10,-1
 812 0 l 1,11,-1
 812 800 l 2,12,13
 812 880 812 880 752 919.5 c 128,-1,14
 692 959 692 959 594 959 c 0,15,16
 457 959 457 959 394.5 904.5 c 128,-1,17
 332 850 332 850 332 772 c 2,18,-1
 332 0 l 1,19,-1
 144 0 l 1,0,-1
EndSplineSet
EndChar

StartChar: i
Encoding: 105 105 71
Width: 510
Flags: W
LayerCount: 2
UndoRedoHistory
Layer: 1
Undoes
UndoOperation
Index: 0
Type: 3
WasModified: 0
WasOrder2: 1
EndUndoOperation
UndoOperation
Index: 1
Type: 1
WasModified: 0
WasOrder2: 1
Width: 510
VWidth: 2048
LBearingChange: 0
UnicodeEnc: 0
InstructionsLength: 0
SplineSet
163 1416 m 1,0,-1
 350 1416 l 1,1,-1
 350 1233 l 1,2,-1
 163 1233 l 1,3,-1
 163 1416 l 1,0,-1
163 1084 m 1,4,-1
 350 1084 l 1,5,-1
 350 0 l 1,6,-1
 163 0 l 1,7,-1
 163 1084 l 1,4,-1
EndSplineSet
EndUndoOperation
EndUndoes
Redoes
EndRedoes
EndUndoRedoHistory
Fore
Refer: 134 729 N 1 0 0 1 0 -7 2
Refer: 130 305 N 1 0 0 1 0 0 3
EndChar

StartChar: j
Encoding: 106 106 72
Width: 571
Flags: W
LayerCount: 2
UndoRedoHistory
Layer: 1
Undoes
UndoOperation
Index: 0
Type: 1
WasModified: 0
WasOrder2: 1
Width: 571
VWidth: 2048
LBearingChange: 0
UnicodeEnc: 0
InstructionsLength: 0
SplineSet
233 1416 m 1,0,-1
 420 1416 l 1,1,-1
 420 1233 l 1,2,-1
 233 1233 l 1,3,-1
 233 1416 l 1,0,-1
237 1084 m 1,4,-1
 421 1084 l 1,5,-1
 421 8 l 2,6,7
 421 -116 421 -116 345.5 -186.5 c 128,-1,8
 270 -257 270 -257 139 -257 c 2,9,-1
 33 -257 l 1,10,-1
 33 -120 l 1,11,-1
 103 -120 l 2,12,13
 202 -120 202 -120 219.5 -62.5 c 128,-1,14
 237 -5 237 -5 237 26 c 2,15,-1
 237 1084 l 1,4,-1
EndSplineSet
EndUndoOperation
EndUndoes
Redoes
EndRedoes
EndUndoRedoHistory
Fore
SplineSet
237 1084 m 1,0,-1
 421 1084 l 1,1,-1
 421 8 l 2,2,3
 421 -116 421 -116 345.5 -186.5 c 128,-1,4
 270 -257 270 -257 139 -257 c 2,5,-1
 33 -257 l 1,6,-1
 33 -120 l 1,7,-1
 103 -120 l 2,8,9
 202 -120 202 -120 219.5 -62.5 c 128,-1,10
 237 -5 237 -5 237 26 c 2,11,-1
 237 1084 l 1,0,-1
233 1416 m 1,12,-1
 420 1416 l 1,13,-1
 420 1233 l 1,14,-1
 233 1233 l 1,15,-1
 233 1416 l 1,12,-1
EndSplineSet
EndChar

StartChar: k
Encoding: 107 107 73
Width: 1078
Flags: W
LayerCount: 2
UndoRedoHistory
Layer: 1
Undoes
UndoOperation
Index: 0
Type: 1
WasModified: 0
WasOrder2: 1
Width: 1078
VWidth: 2048
LBearingChange: 0
UnicodeEnc: 0
InstructionsLength: 0
SplineSet
150 1459 m 1,0,-1
 338 1459 l 1,1,-1
 338 521 l 1,2,-1
 452 646 l 1,3,-1
 844 1084 l 1,4,-1
 1052 1084 l 1,5,-1
 630 596 l 1,6,-1
 1062 0 l 1,7,-1
 853 0 l 1,8,-1
 484 509 l 1,9,-1
 338 362 l 1,10,-1
 338 0 l 1,11,-1
 150 0 l 1,12,-1
 150 1459 l 1,0,-1
EndSplineSet
EndUndoOperation
EndUndoes
Redoes
EndRedoes
EndUndoRedoHistory
Fore
SplineSet
150 1459 m 1,0,-1
 338 1459 l 1,1,-1
 338 521 l 1,2,-1
 452 646 l 1,3,-1
 844 1084 l 1,4,-1
 1052 1084 l 1,5,-1
 630 596 l 1,6,-1
 1062 0 l 1,7,-1
 853 0 l 1,8,-1
 484 509 l 1,9,-1
 338 362 l 1,10,-1
 338 0 l 1,11,-1
 150 0 l 1,12,-1
 150 1459 l 1,0,-1
EndSplineSet
EndChar

StartChar: l
Encoding: 108 108 74
Width: 665
Flags: W
LayerCount: 2
UndoRedoHistory
Layer: 1
Undoes
UndoOperation
Index: 0
Type: 1
WasModified: 0
WasOrder2: 1
Width: 665
VWidth: 2048
LBearingChange: 0
UnicodeEnc: 0
InstructionsLength: 0
SplineSet
164 335 m 1,0,-1
 164 1459 l 1,1,-1
 352 1459 l 1,2,-1
 352 333 l 2,3,4
 352 224 352 224 390 180 c 128,-1,5
 428 136 428 136 568 136 c 2,6,-1
 613 136 l 1,7,-1
 613 0 l 1,8,-1
 491 0 l 2,9,10
 318 0 318 0 241 87.5 c 128,-1,11
 164 175 164 175 164 335 c 1,12,-1
 164 335 l 1,0,-1
EndSplineSet
EndUndoOperation
EndUndoes
Redoes
EndRedoes
EndUndoRedoHistory
Fore
SplineSet
164 335 m 2,0,-1
 164 1459 l 1,1,-1
 352 1459 l 1,2,-1
 352 333 l 2,3,4
 352 224 352 224 390 180 c 128,-1,5
 428 136 428 136 568 136 c 2,6,-1
 613 136 l 1,7,-1
 613 0 l 1,8,-1
 491 0 l 2,9,10
 318 0 318 0 241 87.5 c 128,-1,11
 164 175 164 175 164 335 c 2,0,-1
EndSplineSet
EndChar

StartChar: n
Encoding: 110 110 75
Width: 1138
Flags: W
LayerCount: 2
UndoRedoHistory
Layer: 1
Undoes
UndoOperation
Index: 0
Type: 1
WasModified: 0
WasOrder2: 1
Width: 1138
VWidth: 2048
LBearingChange: 0
UnicodeEnc: 0
InstructionsLength: 0
SplineSet
144 0 m 1,0,-1
 144 1084 l 1,1,-1
 332 1084 l 1,2,-1
 332 978 l 1,3,4
 378 1033 378 1033 452.5 1068.5 c 128,-1,5
 527 1104 527 1104 642 1104 c 0,6,7
 837 1104 837 1104 918.5 1009.5 c 128,-1,8
 1000 915 1000 915 1000 787 c 2,9,-1
 1000 0 l 1,10,-1
 812 0 l 1,11,-1
 812 800 l 2,12,13
 812 880 812 880 752 919.5 c 128,-1,14
 692 959 692 959 594 959 c 0,15,16
 457 959 457 959 394.5 904.5 c 128,-1,17
 332 850 332 850 332 772 c 2,18,-1
 332 0 l 1,19,-1
 144 0 l 1,0,-1
EndSplineSet
EndUndoOperation
EndUndoes
Redoes
EndRedoes
EndUndoRedoHistory
Fore
SplineSet
144 0 m 1,0,-1
 144 1084 l 1,1,-1
 332 1084 l 1,2,-1
 332 978 l 1,3,4
 378 1033 378 1033 452.5 1068.5 c 128,-1,5
 527 1104 527 1104 642 1104 c 0,6,7
 837 1104 837 1104 918.5 1009.5 c 128,-1,8
 1000 915 1000 915 1000 787 c 2,9,-1
 1000 0 l 1,10,-1
 812 0 l 1,11,-1
 812 800 l 2,12,13
 812 880 812 880 752 919.5 c 128,-1,14
 692 959 692 959 594 959 c 0,15,16
 457 959 457 959 394.5 904.5 c 128,-1,17
 332 850 332 850 332 772 c 2,18,-1
 332 0 l 1,19,-1
 144 0 l 1,0,-1
EndSplineSet
EndChar

StartChar: o
Encoding: 111 111 76
Width: 1119
Flags: W
LayerCount: 2
UndoRedoHistory
Layer: 1
Undoes
UndoOperation
Index: 0
Type: 1
WasModified: 0
WasOrder2: 1
Width: 1119
VWidth: 2048
LBearingChange: 0
UnicodeEnc: 0
InstructionsLength: 0
SplineSet
805 780 m 2,0,1
 805 876 805 876 736 917.5 c 128,-1,2
 667 959 667 959 559 959 c 0,3,4
 455 959 455 959 384 919.5 c 128,-1,5
 313 880 313 880 313 780 c 2,6,-1
 313 308 l 2,7,8
 313 208 313 208 381 166 c 128,-1,9
 449 124 449 124 559 124 c 0,10,11
 663 124 663 124 734 166.5 c 128,-1,12
 805 209 805 209 805 308 c 2,13,-1
 805 780 l 2,0,1
993 764 m 1,14,-1
 993 324 l 2,15,16
 993 175 993 175 899 77.5 c 128,-1,17
 805 -20 805 -20 559 -20 c 0,18,19
 323 -20 323 -20 224.5 77.5 c 128,-1,20
 126 175 126 175 126 324 c 2,21,-1
 126 764 l 2,22,23
 126 917 126 917 244.5 1010.5 c 128,-1,24
 363 1104 363 1104 559 1104 c 256,25,26
 755 1104 755 1104 874 1010.5 c 128,-1,27
 993 917 993 917 993 764 c 1,28,-1
 993 764 l 1,14,-1
EndSplineSet
EndUndoOperation
EndUndoes
Redoes
EndRedoes
EndUndoRedoHistory
Fore
SplineSet
993 764 m 2,0,-1
 993 324 l 2,1,2
 993 175 993 175 899 77.5 c 128,-1,3
 805 -20 805 -20 559 -20 c 0,4,5
 323 -20 323 -20 224.5 77.5 c 128,-1,6
 126 175 126 175 126 324 c 2,7,-1
 126 764 l 2,8,9
 126 917 126 917 244.5 1010.5 c 128,-1,10
 363 1104 363 1104 559 1104 c 128,-1,11
 755 1104 755 1104 874 1010.5 c 128,-1,12
 993 917 993 917 993 764 c 2,0,-1
805 780 m 2,13,14
 805 876 805 876 736 917.5 c 128,-1,15
 667 959 667 959 559 959 c 0,16,17
 455 959 455 959 384 919.5 c 128,-1,18
 313 880 313 880 313 780 c 2,19,-1
 313 308 l 2,20,21
 313 208 313 208 381 166 c 128,-1,22
 449 124 449 124 559 124 c 0,23,24
 663 124 663 124 734 166.5 c 128,-1,25
 805 209 805 209 805 308 c 2,26,-1
 805 780 l 2,13,14
EndSplineSet
EndChar

StartChar: p
Encoding: 112 112 77
Width: 1147
Flags: W
LayerCount: 2
UndoRedoHistory
Layer: 1
Undoes
UndoOperation
Index: 0
Type: 1
WasModified: 0
WasOrder2: 1
Width: 1147
VWidth: 2048
LBearingChange: 0
UnicodeEnc: 0
InstructionsLength: 0
SplineSet
292 65 m 1,0,-1
 292 218 l 1,1,2
 305 211 305 211 371 167.5 c 128,-1,3
 437 124 437 124 562 124 c 0,4,5
 672 124 672 124 751.5 180 c 128,-1,6
 831 236 831 236 831 335 c 2,7,-1
 831 763 l 2,8,9
 831 860 831 860 759.5 909.5 c 128,-1,10
 688 959 688 959 585 959 c 0,11,12
 481 959 481 959 413 909.5 c 128,-1,13
 345 860 345 860 338 844 c 1,14,-1
 338 993 l 1,15,16
 375 1035 375 1035 445.5 1069.5 c 128,-1,17
 516 1104 516 1104 614 1104 c 0,18,19
 816 1104 816 1104 917.5 1004.5 c 128,-1,20
 1019 905 1019 905 1019 749 c 2,21,-1
 1019 356 l 2,22,23
 1019 193 1019 193 907.5 86.5 c 128,-1,24
 796 -20 796 -20 590 -20 c 0,25,26
 465 -20 465 -20 393.5 15 c 128,-1,27
 322 50 322 50 292 65 c 1,28,-1
 292 65 l 1,0,-1
340 -375 m 1,29,-1
 152 -375 l 1,30,-1
 152 1084 l 1,31,-1
 340 1084 l 1,32,-1
 340 -375 l 1,29,-1
EndSplineSet
EndUndoOperation
EndUndoes
Redoes
EndRedoes
EndUndoRedoHistory
Fore
SplineSet
340 -375 m 1,0,-1
 152 -375 l 1,1,-1
 152 1084 l 1,2,-1
 340 1084 l 1,3,-1
 340 995.237804301 l 1,4,5
 376.88264598 1035.92129484 376.88264598 1035.92129484 445.5 1069.5 c 0,6,7
 516 1104 516 1104 614 1104 c 0,8,9
 816 1104 816 1104 917.5 1004.5 c 128,-1,10
 1019 905 1019 905 1019 749 c 2,11,-1
 1019 356 l 2,12,13
 1019 193 1019 193 907.5 86.5 c 128,-1,14
 796 -20 796 -20 590 -20 c 0,15,16
 465 -20 465 -20 393.5 15 c 0,17,18
 362.965741752 29.9468397021 362.965741752 29.9468397021 340 41.2462015742 c 1,19,-1
 340 -375 l 1,0,-1
340 847.520220747 m 1,20,-1
 340 187.8237446 l 1,21,22
 353.67371309 178.919598191 353.67371309 178.919598191 371 167.5 c 0,23,24
 437 124 437 124 562 124 c 0,25,26
 672 124 672 124 751.5 180 c 128,-1,27
 831 236 831 236 831 335 c 2,28,-1
 831 763 l 2,29,30
 831 860 831 860 759.5 909.5 c 128,-1,31
 688 959 688 959 585 959 c 0,32,33
 481 959 481 959 413 909.5 c 0,34,35
 351.774022696 864.931090051 351.774022696 864.931090051 340 847.520220747 c 1,20,-1
EndSplineSet
EndChar

StartChar: q
Encoding: 113 113 78
Width: 1145
Flags: W
LayerCount: 2
UndoRedoHistory
Layer: 1
Undoes
UndoOperation
Index: 0
Type: 1
WasModified: 0
WasOrder2: 1
Width: 1145
VWidth: 2048
LBearingChange: 0
UnicodeEnc: 0
InstructionsLength: 0
SplineSet
1017 -375 m 1,0,-1
 829 -375 l 1,1,-1
 829 52 l 1,2,3
 780 14 780 14 702 -3 c 128,-1,4
 624 -20 624 -20 570 -20 c 0,5,6
 368 -20 368 -20 259 74.5 c 128,-1,7
 150 169 150 169 150 325 c 2,8,-1
 150 748 l 2,9,10
 150 911 150 911 250.5 1007.5 c 128,-1,11
 351 1104 351 1104 557 1104 c 0,12,13
 638 1104 638 1104 722.5 1071.5 c 128,-1,14
 807 1039 807 1039 829 1001 c 1,15,-1
 829 1084 l 1,16,-1
 1017 1084 l 1,17,-1
 1017 -375 l 1,0,-1
585 960 m 1,18,19
 475 960 475 960 406.5 914 c 128,-1,20
 338 868 338 868 338 769 c 2,21,-1
 338 294 l 2,22,23
 338 197 338 197 408.5 161 c 128,-1,24
 479 125 479 125 582 125 c 0,25,26
 686 125 686 125 754 159.5 c 128,-1,27
 822 194 822 194 829 210 c 1,28,-1
 829 832 l 2,29,30
 829 877 829 877 769.5 918.5 c 128,-1,31
 710 960 710 960 585 960 c 1,32,-1
 585 960 l 1,18,19
EndSplineSet
EndUndoOperation
EndUndoes
Redoes
EndRedoes
EndUndoRedoHistory
Fore
SplineSet
585 960 m 0,0,1
 475 960 475 960 406.5 914 c 128,-1,2
 338 868 338 868 338 769 c 2,3,-1
 338 294 l 2,4,5
 338 197 338 197 408.5 161 c 128,-1,6
 479 125 479 125 582 125 c 0,7,8
 686 125 686 125 754 159.5 c 128,-1,9
 822 194 822 194 829 210 c 1,10,-1
 829 832 l 2,11,12
 829 877 829 877 769.5 918.5 c 128,-1,13
 710 960 710 960 585 960 c 0,0,1
1017 -375 m 1,14,-1
 829 -375 l 1,15,-1
 829 52 l 1,16,17
 780 14 780 14 702 -3 c 128,-1,18
 624 -20 624 -20 570 -20 c 0,19,20
 368 -20 368 -20 259 74.5 c 128,-1,21
 150 169 150 169 150 325 c 2,22,-1
 150 748 l 2,23,24
 150 911 150 911 250.5 1007.5 c 128,-1,25
 351 1104 351 1104 557 1104 c 0,26,27
 638 1104 638 1104 722.5 1071.5 c 128,-1,28
 807 1039 807 1039 829 1001 c 1,29,-1
 829 1084 l 1,30,-1
 1017 1084 l 1,31,-1
 1017 -375 l 1,14,-1
EndSplineSet
EndChar

StartChar: r
Encoding: 114 114 79
Width: 689
Flags: W
LayerCount: 2
UndoRedoHistory
Layer: 1
Undoes
UndoOperation
Index: 0
Type: 1
WasModified: 0
WasOrder2: 1
Width: 689
VWidth: 2048
LBearingChange: 0
UnicodeEnc: 0
InstructionsLength: 0
SplineSet
150 0 m 1,0,-1
 150 1037 l 1,1,-1
 338 1037 l 1,2,-1
 338 895 l 1,3,4
 376 954 376 954 478.5 1008.5 c 128,-1,5
 581 1063 581 1063 648 1053 c 1,6,-1
 642 888 l 1,7,8
 553 881 553 881 456.5 848.5 c 128,-1,9
 360 816 360 816 338 754 c 1,10,-1
 338 0 l 1,11,-1
 150 0 l 1,0,-1
EndSplineSet
EndUndoOperation
EndUndoes
Redoes
EndRedoes
EndUndoRedoHistory
Fore
SplineSet
150 0 m 1,0,-1
 150 1037 l 1,1,-1
 338 1037 l 1,2,-1
 338 895 l 1,3,4
 376 954 376 954 478.5 1008.5 c 128,-1,5
 581 1063 581 1063 648 1053 c 1,6,-1
 642 888 l 1,7,8
 553 881 553 881 456.5 848.5 c 128,-1,9
 360 816 360 816 338 754 c 1,10,-1
 338 0 l 1,11,-1
 150 0 l 1,0,-1
EndSplineSet
EndChar

StartChar: s
Encoding: 115 115 80
Width: 923
Flags: W
LayerCount: 2
UndoRedoHistory
Layer: 1
Undoes
UndoOperation
Index: 0
Type: 1
WasModified: 0
WasOrder2: 1
Width: 923
VWidth: 2048
LBearingChange: 0
UnicodeEnc: 0
InstructionsLength: 0
SplineSet
107 153 m 1,0,-1
 200 265 l 1,1,2
 232 229 232 229 299.5 179.5 c 128,-1,3
 367 130 367 130 474 128 c 0,4,5
 573 127 573 127 623.5 161.5 c 128,-1,6
 674 196 674 196 681 272 c 0,7,8
 686 332 686 332 652.5 372.5 c 128,-1,9
 619 413 619 413 564 437 c 2,10,-1
 341 533 l 1,11,12
 238 576 238 576 178.5 644.5 c 128,-1,13
 119 713 119 713 123 835 c 0,14,15
 127 981 127 981 232 1043 c 128,-1,16
 337 1105 337 1105 474 1105 c 0,17,18
 620 1105 620 1105 705 1052.5 c 128,-1,19
 790 1000 790 1000 826 951 c 1,20,-1
 743 838 l 1,21,22
 703 880 703 880 639 918.5 c 128,-1,23
 575 957 575 957 486 958 c 0,24,25
 392 959 392 959 347 926 c 128,-1,26
 302 893 302 893 299 838 c 0,27,28
 296 792 296 792 318.5 755.5 c 128,-1,29
 341 719 341 719 405 691 c 2,30,-1
 635 588 l 2,31,32
 735 544 735 544 792 478.5 c 128,-1,33
 849 413 849 413 846 279 c 1,34,35
 844 135 844 135 744.5 56.5 c 128,-1,36
 645 -22 645 -22 479 -20 c 1,37,38
 365 -17 365 -17 263 29 c 128,-1,39
 161 75 161 75 107 153 c 1,40,-1
 107 153 l 1,0,-1
EndSplineSet
EndUndoOperation
EndUndoes
Redoes
EndRedoes
EndUndoRedoHistory
Fore
SplineSet
107 153 m 1,0,-1
 200 265 l 1,1,2
 232 229 232 229 299.5 179.5 c 128,-1,3
 367 130 367 130 474 128 c 0,4,5
 573 127 573 127 623.5 161.5 c 128,-1,6
 674 196 674 196 681 272 c 0,7,8
 686 332 686 332 652.5 372.5 c 128,-1,9
 619 413 619 413 564 437 c 2,10,-1
 341 533 l 1,11,12
 238 576 238 576 178.5 644.5 c 128,-1,13
 119 713 119 713 123 835 c 0,14,15
 127 981 127 981 232 1043 c 128,-1,16
 337 1105 337 1105 474 1105 c 0,17,18
 620 1105 620 1105 705 1052.5 c 128,-1,19
 790 1000 790 1000 826 951 c 1,20,-1
 743 838 l 1,21,22
 703 880 703 880 639 918.5 c 128,-1,23
 575 957 575 957 486 958 c 0,24,25
 392 959 392 959 347 926 c 128,-1,26
 302 893 302 893 299 838 c 0,27,28
 296 792 296 792 318.5 755.5 c 128,-1,29
 341 719 341 719 405 691 c 2,30,-1
 635 588 l 2,31,32
 735 544 735 544 792 478.5 c 128,-1,33
 849 413 849 413 846 279 c 1,34,35
 844 135 844 135 744.5 56.5 c 128,-1,36
 645 -22 645 -22 479 -20 c 1,37,38
 365 -17 365 -17 263 29 c 128,-1,39
 161 75 161 75 107 153 c 1,0,-1
EndSplineSet
EndChar

StartChar: t
Encoding: 116 116 81
Width: 783
Flags: W
LayerCount: 2
UndoRedoHistory
Layer: 1
Undoes
UndoOperation
Index: 0
Type: 1
WasModified: 0
WasOrder2: 1
Width: 783
VWidth: 2048
LBearingChange: 0
UnicodeEnc: 0
InstructionsLength: 0
SplineSet
558 0 m 2,0,1
 392 0 392 0 308 80.5 c 128,-1,2
 224 161 224 161 224 316 c 2,3,-1
 224 965 l 1,4,-1
 47 965 l 1,5,-1
 47 1084 l 1,6,-1
 231 1084 l 1,7,-1
 254 1416 l 1,8,-1
 411 1416 l 1,9,-1
 411 1084 l 1,10,-1
 666 1084 l 1,11,-1
 666 965 l 1,12,-1
 411 965 l 1,13,-1
 411 308 l 2,14,15
 411 216 411 216 454 176 c 128,-1,16
 497 136 497 136 610 136 c 2,17,-1
 690 136 l 1,18,-1
 690 0 l 1,19,-1
 558 0 l 2,0,1
EndSplineSet
EndUndoOperation
EndUndoes
Redoes
EndRedoes
EndUndoRedoHistory
Fore
SplineSet
558 0 m 2,0,1
 392 0 392 0 308 80.5 c 128,-1,2
 224 161 224 161 224 316 c 2,3,-1
 224 965 l 1,4,-1
 47 965 l 1,5,-1
 47 1084 l 1,6,-1
 231 1084 l 1,7,-1
 254 1416 l 1,8,-1
 411 1416 l 1,9,-1
 411 1084 l 1,10,-1
 666 1084 l 1,11,-1
 666 965 l 1,12,-1
 411 965 l 1,13,-1
 411 308 l 2,14,15
 411 216 411 216 454 176 c 128,-1,16
 497 136 497 136 610 136 c 2,17,-1
 690 136 l 1,18,-1
 690 0 l 1,19,-1
 558 0 l 2,0,1
EndSplineSet
EndChar

StartChar: u
Encoding: 117 117 82
Width: 1138
Flags: W
LayerCount: 2
UndoRedoHistory
Layer: 1
Undoes
UndoOperation
Index: 0
Type: 1
WasModified: 0
WasOrder2: 1
Width: 1138
VWidth: 2048
LBearingChange: 0
UnicodeEnc: 0
InstructionsLength: 0
SplineSet
988 1084 m 1,0,-1
 988 0 l 1,1,-1
 800 0 l 1,2,-1
 800 106 l 1,3,4
 754 51 754 51 680.5 15.5 c 128,-1,5
 607 -20 607 -20 492 -20 c 0,6,7
 297 -20 297 -20 217.5 74.5 c 128,-1,8
 138 169 138 169 138 297 c 2,9,-1
 138 1084 l 1,10,-1
 326 1084 l 1,11,-1
 326 292 l 2,12,13
 326 212 326 212 384 168.5 c 128,-1,14
 442 125 442 125 540 125 c 0,15,16
 677 125 677 125 738.5 180.5 c 128,-1,17
 800 236 800 236 800 304 c 2,18,-1
 800 1084 l 1,19,-1
 988 1084 l 1,0,-1
EndSplineSet
EndUndoOperation
EndUndoes
Redoes
EndRedoes
EndUndoRedoHistory
Fore
SplineSet
988 1084 m 1,0,-1
 988 0 l 1,1,-1
 800 0 l 1,2,-1
 800 106 l 1,3,4
 754 51 754 51 680.5 15.5 c 128,-1,5
 607 -20 607 -20 492 -20 c 0,6,7
 297 -20 297 -20 217.5 74.5 c 128,-1,8
 138 169 138 169 138 297 c 2,9,-1
 138 1084 l 1,10,-1
 326 1084 l 1,11,-1
 326 292 l 2,12,13
 326 212 326 212 384 168.5 c 128,-1,14
 442 125 442 125 540 125 c 0,15,16
 677 125 677 125 738.5 180.5 c 128,-1,17
 800 236 800 236 800 304 c 2,18,-1
 800 1084 l 1,19,-1
 988 1084 l 1,0,-1
EndSplineSet
EndChar

StartChar: v
Encoding: 118 118 83
Width: 1014
Flags: W
LayerCount: 2
UndoRedoHistory
Layer: 1
Undoes
UndoOperation
Index: 0
Type: 1
WasModified: 0
WasOrder2: 1
Width: 1014
VWidth: 2048
LBearingChange: 0
UnicodeEnc: 0
InstructionsLength: 0
SplineSet
610 0 m 1,0,-1
 402 0 l 1,1,-1
 44 1084 l 1,2,-1
 233 1084 l 1,3,-1
 509 214 l 1,4,-1
 785 1084 l 1,5,-1
 969 1084 l 1,6,-1
 610 0 l 1,0,-1
EndSplineSet
EndUndoOperation
EndUndoes
Redoes
EndRedoes
EndUndoRedoHistory
Fore
SplineSet
610 0 m 1,0,-1
 402 0 l 1,1,-1
 44 1084 l 1,2,-1
 233 1084 l 1,3,-1
 509 214 l 1,4,-1
 785 1084 l 1,5,-1
 969 1084 l 1,6,-1
 610 0 l 1,0,-1
EndSplineSet
EndChar

StartChar: w
Encoding: 119 119 84
Width: 1537
Flags: W
LayerCount: 2
UndoRedoHistory
Layer: 1
Undoes
UndoOperation
Index: 0
Type: 1
WasModified: 0
WasOrder2: 1
Width: 1537
VWidth: 2048
LBearingChange: 0
UnicodeEnc: 0
InstructionsLength: 0
SplineSet
1196 0 m 1,0,-1
 1007 0 l 1,1,-1
 723 1084 l 1,2,-1
 894 1084 l 1,3,-1
 1104 214 l 1,4,-1
 1327 1084 l 1,5,-1
 1493 1084 l 1,6,-1
 1196 0 l 1,0,-1
516 0 m 1,7,-1
 328 0 l 1,8,-1
 44 1084 l 1,9,-1
 215 1084 l 1,10,-1
 425 214 l 1,11,-1
 647 1084 l 1,12,-1
 814 1084 l 1,13,-1
 516 0 l 1,7,-1
EndSplineSet
EndUndoOperation
EndUndoes
Redoes
EndRedoes
EndUndoRedoHistory
Fore
SplineSet
516 0 m 1,0,-1
 328 0 l 1,1,-1
 44 1084 l 1,2,-1
 215 1084 l 1,3,-1
 425 214 l 1,4,-1
 647 1084 l 1,5,-1
 723 1084 l 1,6,-1
 814 1084 l 1,7,-1
 894 1084 l 1,8,-1
 1104 214 l 1,9,-1
 1327 1084 l 1,10,-1
 1493 1084 l 1,11,-1
 1196 0 l 1,12,-1
 1007 0 l 1,13,-1
 767.405498282 914.508591065 l 1,14,-1
 516 0 l 1,0,-1
EndSplineSet
EndChar

StartChar: x
Encoding: 120 120 85
Width: 967
Flags: W
LayerCount: 2
UndoRedoHistory
Layer: 1
Undoes
UndoOperation
Index: 0
Type: 1
WasModified: 0
WasOrder2: 1
Width: 967
VWidth: 2048
LBearingChange: 0
UnicodeEnc: 0
InstructionsLength: 0
SplineSet
213 0 m 1,0,-1
 33 0 l 1,1,-1
 755 1084 l 1,2,-1
 929 1084 l 1,3,-1
 213 0 l 1,0,-1
39 1084 m 1,4,-1
 221 1084 l 1,5,-1
 934 0 l 1,6,-1
 758 0 l 1,7,-1
 39 1084 l 1,4,-1
EndSplineSet
EndUndoOperation
EndUndoes
Redoes
EndRedoes
EndUndoRedoHistory
Fore
SplineSet
39 1084 m 1,0,-1
 221 1084 l 1,1,-1
 486.32543554 680.616027875 l 1,2,-1
 755 1084 l 1,3,-1
 929 1084 l 1,4,-1
 574.256822953 546.930720784 l 1,5,-1
 934 0 l 1,6,-1
 758 0 l 1,7,-1
 484.930313589 411.693379791 l 1,8,-1
 213 0 l 1,9,-1
 33 0 l 1,10,-1
 396.254684247 545.385149202 l 1,11,-1
 39 1084 l 1,0,-1
EndSplineSet
EndChar

StartChar: y
Encoding: 121 121 86
Width: 996
Flags: W
LayerCount: 2
UndoRedoHistory
Layer: 1
Undoes
UndoOperation
Index: 0
Type: 1
WasModified: 0
WasOrder2: 1
Width: 996
VWidth: 2048
LBearingChange: 0
UnicodeEnc: 0
InstructionsLength: 0
SplineSet
110 -383 m 1,0,-1
 110 -193 l 1,1,-1
 232 -193 l 2,2,3
 310 -193 310 -193 335.5 -144.5 c 128,-1,4
 361 -96 361 -96 380 -22 c 1,5,-1
 23 1084 l 1,6,-1
 299 1084 l 1,7,-1
 517 368 l 1,8,-1
 693 1084 l 1,9,-1
 968 1084 l 1,10,-1
 680 69 l 1,11,12
 588 -216 588 -216 522.5 -299.5 c 128,-1,13
 457 -383 457 -383 241 -383 c 2,14,-1
 110 -383 l 1,0,-1
EndSplineSet
EndUndoOperation
EndUndoes
Redoes
EndRedoes
EndUndoRedoHistory
Fore
SplineSet
110 -383 m 1,0,-1
 110 -193 l 1,1,-1
 232 -193 l 2,2,3
 310 -193 310 -193 335.5 -144.5 c 128,-1,4
 361 -96 361 -96 380 -22 c 1,5,-1
 23 1084 l 1,6,-1
 299 1084 l 1,7,-1
 517 368 l 1,8,-1
 693 1084 l 1,9,-1
 968 1084 l 1,10,-1
 680 69 l 1,11,12
 588 -216 588 -216 522.5 -299.5 c 128,-1,13
 457 -383 457 -383 241 -383 c 2,14,-1
 110 -383 l 1,0,-1
EndSplineSet
EndChar

StartChar: z
Encoding: 122 122 87
Width: 858
Flags: W
LayerCount: 2
UndoRedoHistory
Layer: 1
Undoes
UndoOperation
Index: 0
Type: 1
WasModified: 0
WasOrder2: 1
Width: 858
VWidth: 2048
LBearingChange: 0
UnicodeEnc: 0
InstructionsLength: 0
SplineSet
107 1084 m 1,0,-1
 773 1084 l 1,1,-1
 773 906 l 1,2,-1
 412 186 l 1,3,-1
 775 186 l 1,4,-1
 775 0 l 1,5,-1
 89 0 l 1,6,-1
 89 180 l 1,7,-1
 445 898 l 1,8,-1
 107 898 l 1,9,-1
 107 1084 l 1,0,-1
EndSplineSet
EndUndoOperation
EndUndoes
Redoes
EndRedoes
EndUndoRedoHistory
Fore
SplineSet
107 1084 m 1,0,-1
 773 1084 l 1,1,-1
 773 906 l 1,2,-1
 412 186 l 1,3,-1
 775 186 l 1,4,-1
 775 0 l 1,5,-1
 89 0 l 1,6,-1
 89 180 l 1,7,-1
 445 898 l 1,8,-1
 107 898 l 1,9,-1
 107 1084 l 1,0,-1
EndSplineSet
EndChar

StartChar: bar
Encoding: 124 124 88
Width: 472
Flags: W
LayerCount: 2
UndoRedoHistory
Layer: 1
Undoes
UndoOperation
Index: 0
Type: 1
WasModified: 0
WasOrder2: 1
Width: 472
VWidth: 2048
LBearingChange: 0
UnicodeEnc: 0
InstructionsLength: 0
SplineSet
347 1555 m 1,0,-1
 347 -167 l 1,1,-1
 169 -167 l 1,2,-1
 169 1555 l 1,3,-1
 347 1555 l 1,0,-1
EndSplineSet
EndUndoOperation
EndUndoes
Redoes
EndRedoes
EndUndoRedoHistory
Fore
SplineSet
347 1555 m 1,0,-1
 347 -167 l 1,1,-1
 169 -167 l 1,2,-1
 169 1555 l 1,3,-1
 347 1555 l 1,0,-1
EndSplineSet
EndChar

StartChar: Eacute
Encoding: 201 201 89
Width: 763
Flags: W
LayerCount: 2
UndoRedoHistory
Layer: 1
Undoes
UndoOperation
Index: 0
Type: 1
WasModified: 0
WasOrder2: 1
Width: 763
VWidth: 2048
LBearingChange: 0
UnicodeEnc: 0
InstructionsLength: 0
SplineSet
146 1459 m 1,0,-1
 853 1459 l 1,1,-1
 853 1223 l 1,2,-1
 465 1223 l 1,3,-1
 465 862 l 1,4,-1
 776 862 l 1,5,-1
 776 642 l 1,6,-1
 465 642 l 1,7,-1
 465 236 l 1,8,-1
 853 236 l 1,9,-1
 853 0 l 1,10,-1
 146 0 l 1,11,-1
 146 1459 l 1,0,-1
309 1848 m 1,12,-1
 575 1848 l 1,13,-1
 367 1529 l 1,14,-1
 205 1529 l 1,15,-1
 309 1848 l 1,12,-1
EndSplineSet
EndUndoOperation
EndUndoes
Redoes
EndRedoes
EndUndoRedoHistory
Fore
SplineSet
309 1848 m 1,0,-1
 575 1848 l 1,1,-1
 367 1529 l 1,2,-1
 205 1529 l 1,3,-1
 309 1848 l 1,0,-1
146 1459 m 1,4,-1
 853 1459 l 1,5,-1
 853 1223 l 1,6,-1
 465 1223 l 1,7,-1
 465 862 l 1,8,-1
 776 862 l 1,9,-1
 776 642 l 1,10,-1
 465 642 l 1,11,-1
 465 236 l 1,12,-1
 853 236 l 1,13,-1
 853 0 l 1,14,-1
 146 0 l 1,15,-1
 146 1459 l 1,4,-1
EndSplineSet
EndChar

StartChar: ccedilla
Encoding: 231 231 90
Width: 846
Flags: W
LayerCount: 2
UndoRedoHistory
Layer: 1
Undoes
UndoOperation
Index: 0
Type: 1
WasModified: 0
WasOrder2: 1
Width: 846
VWidth: 2048
LBearingChange: 0
UnicodeEnc: 0
InstructionsLength: 0
SplineSet
868 784 m 1,0,-1
 868 645 l 1,1,-1
 585 645 l 1,2,-1
 585 842 l 2,3,4
 585 866 585 866 567.5 889 c 128,-1,5
 550 912 550 912 490 912 c 0,6,7
 431 912 431 912 411 887.5 c 128,-1,8
 391 863 391 863 391 837 c 2,9,-1
 391 253 l 2,10,11
 391 226 391 226 408.5 199 c 128,-1,12
 426 172 426 172 490 172 c 0,13,14
 557 172 557 172 571 199 c 128,-1,15
 585 226 585 226 585 253 c 2,16,-1
 585 446 l 1,17,-1
 868 446 l 1,18,-1
 868 252 l 2,19,20
 868 125 868 125 778.5 52.5 c 128,-1,21
 689 -20 689 -20 489 -20 c 0,22,23
 329 -20 329 -20 215 52.5 c 128,-1,24
 101 125 101 125 101 252 c 2,25,-1
 101 784 l 2,26,27
 101 933 101 933 196 1018.5 c 128,-1,28
 291 1104 291 1104 487 1104 c 0,29,30
 722 1104 722 1104 795 1018.5 c 128,-1,31
 868 933 868 933 868 784 c 1,32,-1
 868 784 l 1,0,-1
424 0 m 1,33,-1
 442 -84 l 1,34,35
 492 -111 492 -111 547.5 -155.5 c 128,-1,36
 603 -200 603 -200 603 -262 c 0,37,38
 603 -372 603 -372 475.5 -394.5 c 128,-1,39
 348 -417 348 -417 260 -417 c 0,40,41
 257 -417 257 -417 253 -364 c 128,-1,42
 249 -311 249 -311 245 -311 c 1,43,44
 261 -311 261 -311 328.5 -298.5 c 128,-1,45
 396 -286 396 -286 396 -259 c 0,46,47
 396 -230 396 -230 358.5 -210.5 c 128,-1,48
 321 -191 321 -191 299 -183 c 1,49,50
 305 -183 305 -183 308.5 -101.5 c 128,-1,51
 312 -20 312 -20 312 -14 c 0,52,53
 312 -11 312 -11 368.5 -7.5 c 128,-1,54
 425 -4 425 -4 424 0 c 1,55,-1
 424 0 l 1,33,-1
EndSplineSet
EndUndoOperation
EndUndoes
Redoes
EndRedoes
EndUndoRedoHistory
Fore
SplineSet
868 784 m 2,0,-1
 868 645 l 1,1,-1
 585 645 l 1,2,-1
 585 842 l 2,3,4
 585 866 585 866 567.5 889 c 128,-1,5
 550 912 550 912 490 912 c 0,6,7
 431 912 431 912 411 887.5 c 128,-1,8
 391 863 391 863 391 837 c 2,9,-1
 391 253 l 2,10,11
 391 226 391 226 408.5 199 c 128,-1,12
 426 172 426 172 490 172 c 0,13,14
 557 172 557 172 571 199 c 128,-1,15
 585 226 585 226 585 253 c 2,16,-1
 585 446 l 1,17,-1
 868 446 l 1,18,-1
 868 252 l 2,19,20
 868 125 868 125 778.5 52.5 c 128,-1,21
 689 -20 689 -20 489 -20 c 0,22,23
 457.446227178 -20 457.446227178 -20 427.681496021 -17.1803147656 c 1,24,-1
 442 -84 l 1,25,26
 492 -111 492 -111 547.5 -155.5 c 128,-1,27
 603 -200 603 -200 603 -262 c 0,28,29
 603 -372 603 -372 475.5 -394.5 c 128,-1,30
 348 -417 348 -417 260 -417 c 0,31,32
 257 -417 257 -417 253 -364 c 128,-1,33
 249 -311 249 -311 245 -311 c 1,34,35
 261 -311 261 -311 328.5 -298.5 c 128,-1,36
 396 -286 396 -286 396 -259 c 0,37,38
 396 -230 396 -230 358.5 -210.5 c 128,-1,39
 321 -191 321 -191 299 -183 c 1,40,41
 305 -183 305 -183 308.5 -101.5 c 128,-1,42
 312 -20 312 -20 312 -14 c 0,43,44
 312 -11.0924650502 312 -11.0924650502 365.070823429 -7.71527679593 c 1,45,46
 282.073459791 9.84363302771 282.073459791 9.84363302771 215 52.5 c 0,47,48
 101 125 101 125 101 252 c 2,49,-1
 101 784 l 2,50,51
 101 933 101 933 196 1018.5 c 128,-1,52
 291 1104 291 1104 487 1104 c 0,53,54
 722 1104 722 1104 795 1018.5 c 128,-1,55
 868 933 868 933 868 784 c 2,0,-1
EndSplineSet
EndChar

StartChar: iacute
Encoding: 237 237 91
Width: 419
Flags: W
LayerCount: 2
UndoRedoHistory
Layer: 1
Undoes
UndoOperation
Index: 0
Type: 1
WasModified: 0
WasOrder2: 1
Width: 419
VWidth: 2048
LBearingChange: 0
UnicodeEnc: 0
InstructionsLength: 0
SplineSet
96 1084 m 1,0,-1
 359 1084 l 1,1,-1
 359 0 l 1,2,-1
 96 0 l 1,3,-1
 96 1084 l 1,0,-1
250 1502 m 1,4,-1
 515 1502 l 1,5,-1
 307 1184 l 1,6,-1
 146 1184 l 1,7,-1
 250 1502 l 1,4,-1
EndSplineSet
EndUndoOperation
EndUndoes
Redoes
EndRedoes
EndUndoRedoHistory
Fore
SplineSet
250 1502 m 1,0,-1
 515 1502 l 1,1,-1
 307 1184 l 1,2,-1
 146 1184 l 1,3,-1
 250 1502 l 1,0,-1
96 1084 m 1,4,-1
 359 1084 l 1,5,-1
 359 0 l 1,6,-1
 96 0 l 1,7,-1
 96 1084 l 1,4,-1
EndSplineSet
EndChar

StartChar: igrave
Encoding: 236 236 92
Width: 419
Flags: W
LayerCount: 2
UndoRedoHistory
Layer: 1
Undoes
UndoOperation
Index: 0
Type: 1
WasModified: 0
WasOrder2: 1
Width: 419
VWidth: 2048
LBearingChange: 0
UnicodeEnc: 0
InstructionsLength: 0
SplineSet
96 1084 m 1,0,-1
 359 1084 l 1,1,-1
 359 0 l 1,2,-1
 96 0 l 1,3,-1
 96 1084 l 1,0,-1
18 1474 m 1,4,-1
 284 1474 l 1,5,-1
 388 1155 l 1,6,-1
 226 1155 l 1,7,-1
 18 1474 l 1,4,-1
EndSplineSet
EndUndoOperation
EndUndoes
Redoes
EndRedoes
EndUndoRedoHistory
Fore
SplineSet
18 1474 m 1,0,-1
 284 1474 l 1,1,-1
 388 1155 l 1,2,-1
 226 1155 l 1,3,-1
 18 1474 l 1,0,-1
96 1084 m 1,4,-1
 359 1084 l 1,5,-1
 359 0 l 1,6,-1
 96 0 l 1,7,-1
 96 1084 l 1,4,-1
EndSplineSet
EndChar

StartChar: icircumflex
Encoding: 238 238 93
Width: 419
Flags: W
LayerCount: 2
UndoRedoHistory
Layer: 1
Undoes
UndoOperation
Index: 0
Type: 1
WasModified: 0
WasOrder2: 1
Width: 419
VWidth: 2048
LBearingChange: 0
UnicodeEnc: 0
InstructionsLength: 0
SplineSet
96 1084 m 1,0,-1
 359 1084 l 1,1,-1
 359 0 l 1,2,-1
 96 0 l 1,3,-1
 96 1084 l 1,0,-1
113 1479 m 1,4,-1
 451 1479 l 1,5,-1
 611 1184 l 1,6,-1
 383 1184 l 1,7,-1
 282 1328 l 1,8,-1
 183 1184 l 1,9,-1
 -43 1184 l 1,10,-1
 113 1479 l 1,4,-1
EndSplineSet
EndUndoOperation
EndUndoes
Redoes
EndRedoes
EndUndoRedoHistory
Fore
SplineSet
113 1479 m 1,0,-1
 451 1479 l 1,1,-1
 611 1184 l 1,2,-1
 383 1184 l 1,3,-1
 282 1328 l 1,4,-1
 183 1184 l 1,5,-1
 -43 1184 l 1,6,-1
 113 1479 l 1,0,-1
96 1084 m 1,7,-1
 359 1084 l 1,8,-1
 359 0 l 1,9,-1
 96 0 l 1,10,-1
 96 1084 l 1,7,-1
EndSplineSet
EndChar

StartChar: idieresis
Encoding: 239 239 94
Width: 419
Flags: W
LayerCount: 2
UndoRedoHistory
Layer: 1
Undoes
UndoOperation
Index: 0
Type: 1
WasModified: 0
WasOrder2: 1
Width: 419
VWidth: 2048
LBearingChange: 0
UnicodeEnc: 0
InstructionsLength: 0
SplineSet
96 1084 m 1,0,-1
 359 1084 l 1,1,-1
 359 0 l 1,2,-1
 96 0 l 1,3,-1
 96 1084 l 1,0,-1
-62 1186 m 1,4,-1
 -62 1415 l 1,5,-1
 203 1415 l 1,6,-1
 203 1186 l 1,7,-1
 -62 1186 l 1,4,-1
397 1186 m 1,8,-1
 397 1415 l 1,9,-1
 664 1415 l 1,10,-1
 664 1186 l 1,11,-1
 397 1186 l 1,8,-1
EndSplineSet
EndUndoOperation
EndUndoes
Redoes
EndRedoes
EndUndoRedoHistory
Fore
SplineSet
397 1186 m 1,0,-1
 397 1415 l 1,1,-1
 664 1415 l 1,2,-1
 664 1186 l 1,3,-1
 397 1186 l 1,0,-1
-62 1186 m 1,4,-1
 -62 1415 l 1,5,-1
 203 1415 l 1,6,-1
 203 1186 l 1,7,-1
 -62 1186 l 1,4,-1
96 1084 m 1,8,-1
 359 1084 l 1,9,-1
 359 0 l 1,10,-1
 96 0 l 1,11,-1
 96 1084 l 1,8,-1
EndSplineSet
EndChar

StartChar: uacute
Encoding: 250 250 95
Width: 919
Flags: W
LayerCount: 2
UndoRedoHistory
Layer: 1
Undoes
UndoOperation
Index: 0
Type: 1
WasModified: 0
WasOrder2: 1
Width: 919
VWidth: 2048
LBearingChange: 0
UnicodeEnc: 0
InstructionsLength: 0
SplineSet
119 1084 m 1,0,-1
 409 1084 l 1,1,-1
 409 259 l 2,2,3
 409 212 409 212 433.5 192.5 c 128,-1,4
 458 173 458 173 491 173 c 0,5,6
 532 173 532 173 567.5 195.5 c 128,-1,7
 603 218 603 218 603 245 c 2,8,-1
 603 1084 l 1,9,-1
 894 1084 l 1,10,-1
 894 0 l 1,11,-1
 603 0 l 1,12,-1
 603 68 l 1,13,14
 563 37 563 37 506.5 8.5 c 128,-1,15
 450 -20 450 -20 354 -20 c 0,16,17
 238 -20 238 -20 178.5 51 c 128,-1,18
 119 122 119 122 119 223 c 2,19,-1
 119 1084 l 1,0,-1
412 1502 m 1,20,-1
 677 1502 l 1,21,-1
 469 1184 l 1,22,-1
 308 1184 l 1,23,-1
 412 1502 l 1,20,-1
EndSplineSet
EndUndoOperation
EndUndoes
Redoes
EndRedoes
EndUndoRedoHistory
Fore
SplineSet
412 1502 m 1,0,-1
 677 1502 l 1,1,-1
 469 1184 l 1,2,-1
 308 1184 l 1,3,-1
 412 1502 l 1,0,-1
119 1084 m 1,4,-1
 409 1084 l 1,5,-1
 409 259 l 2,6,7
 409 212 409 212 433.5 192.5 c 128,-1,8
 458 173 458 173 491 173 c 0,9,10
 532 173 532 173 567.5 195.5 c 128,-1,11
 603 218 603 218 603 245 c 2,12,-1
 603 1084 l 1,13,-1
 894 1084 l 1,14,-1
 894 0 l 1,15,-1
 603 0 l 1,16,-1
 603 68 l 1,17,18
 563 37 563 37 506.5 8.5 c 128,-1,19
 450 -20 450 -20 354 -20 c 0,20,21
 238 -20 238 -20 178.5 51 c 128,-1,22
 119 122 119 122 119 223 c 2,23,-1
 119 1084 l 1,4,-1
EndSplineSet
EndChar

StartChar: ugrave
Encoding: 249 249 96
Width: 919
Flags: W
LayerCount: 2
UndoRedoHistory
Layer: 1
Undoes
UndoOperation
Index: 0
Type: 1
WasModified: 0
WasOrder2: 1
Width: 919
VWidth: 2048
LBearingChange: 0
UnicodeEnc: 0
InstructionsLength: 0
SplineSet
119 1084 m 1,0,-1
 409 1084 l 1,1,-1
 409 259 l 2,2,3
 409 212 409 212 433.5 192.5 c 128,-1,4
 458 173 458 173 491 173 c 0,5,6
 532 173 532 173 567.5 195.5 c 128,-1,7
 603 218 603 218 603 245 c 2,8,-1
 603 1084 l 1,9,-1
 894 1084 l 1,10,-1
 894 0 l 1,11,-1
 603 0 l 1,12,-1
 603 68 l 1,13,14
 563 37 563 37 506.5 8.5 c 128,-1,15
 450 -20 450 -20 354 -20 c 0,16,17
 238 -20 238 -20 178.5 51 c 128,-1,18
 119 122 119 122 119 223 c 2,19,-1
 119 1084 l 1,0,-1
105 1502 m 1,20,-1
 370 1502 l 1,21,-1
 475 1184 l 1,22,-1
 312 1184 l 1,23,-1
 105 1502 l 1,20,-1
EndSplineSet
EndUndoOperation
EndUndoes
Redoes
EndRedoes
EndUndoRedoHistory
Fore
SplineSet
105 1502 m 1,0,-1
 370 1502 l 1,1,-1
 475 1184 l 1,2,-1
 312 1184 l 1,3,-1
 105 1502 l 1,0,-1
119 1084 m 1,4,-1
 409 1084 l 1,5,-1
 409 259 l 2,6,7
 409 212 409 212 433.5 192.5 c 128,-1,8
 458 173 458 173 491 173 c 0,9,10
 532 173 532 173 567.5 195.5 c 128,-1,11
 603 218 603 218 603 245 c 2,12,-1
 603 1084 l 1,13,-1
 894 1084 l 1,14,-1
 894 0 l 1,15,-1
 603 0 l 1,16,-1
 603 68 l 1,17,18
 563 37 563 37 506.5 8.5 c 128,-1,19
 450 -20 450 -20 354 -20 c 0,20,21
 238 -20 238 -20 178.5 51 c 128,-1,22
 119 122 119 122 119 223 c 2,23,-1
 119 1084 l 1,4,-1
EndSplineSet
EndChar

StartChar: ucircumflex
Encoding: 251 251 97
Width: 919
Flags: W
LayerCount: 2
UndoRedoHistory
Layer: 1
Undoes
UndoOperation
Index: 0
Type: 1
WasModified: 0
WasOrder2: 1
Width: 919
VWidth: 2048
LBearingChange: 0
UnicodeEnc: 0
InstructionsLength: 0
SplineSet
119 1084 m 1,0,-1
 409 1084 l 1,1,-1
 409 259 l 2,2,3
 409 212 409 212 433.5 192.5 c 128,-1,4
 458 173 458 173 491 173 c 0,5,6
 532 173 532 173 567.5 195.5 c 128,-1,7
 603 218 603 218 603 245 c 2,8,-1
 603 1084 l 1,9,-1
 894 1084 l 1,10,-1
 894 0 l 1,11,-1
 603 0 l 1,12,-1
 603 68 l 1,13,14
 563 37 563 37 506.5 8.5 c 128,-1,15
 450 -20 450 -20 354 -20 c 0,16,17
 238 -20 238 -20 178.5 51 c 128,-1,18
 119 122 119 122 119 223 c 2,19,-1
 119 1084 l 1,0,-1
277 1479 m 1,20,-1
 615 1479 l 1,21,-1
 775 1184 l 1,22,-1
 546 1184 l 1,23,-1
 446 1328 l 1,24,-1
 346 1184 l 1,25,-1
 120 1184 l 1,26,-1
 277 1479 l 1,20,-1
EndSplineSet
EndUndoOperation
EndUndoes
Redoes
EndRedoes
EndUndoRedoHistory
Fore
SplineSet
277 1479 m 1,0,-1
 615 1479 l 1,1,-1
 775 1184 l 1,2,-1
 546 1184 l 1,3,-1
 446 1328 l 1,4,-1
 346 1184 l 1,5,-1
 120 1184 l 1,6,-1
 277 1479 l 1,0,-1
119 1084 m 1,7,-1
 409 1084 l 1,8,-1
 409 259 l 2,9,10
 409 212 409 212 433.5 192.5 c 128,-1,11
 458 173 458 173 491 173 c 0,12,13
 532 173 532 173 567.5 195.5 c 128,-1,14
 603 218 603 218 603 245 c 2,15,-1
 603 1084 l 1,16,-1
 894 1084 l 1,17,-1
 894 0 l 1,18,-1
 603 0 l 1,19,-1
 603 68 l 1,20,21
 563 37 563 37 506.5 8.5 c 128,-1,22
 450 -20 450 -20 354 -20 c 0,23,24
 238 -20 238 -20 178.5 51 c 128,-1,25
 119 122 119 122 119 223 c 2,26,-1
 119 1084 l 1,7,-1
EndSplineSet
EndChar

StartChar: udieresis
Encoding: 252 252 98
Width: 919
Flags: W
LayerCount: 2
UndoRedoHistory
Layer: 1
Undoes
UndoOperation
Index: 0
Type: 1
WasModified: 0
WasOrder2: 1
Width: 919
VWidth: 2048
LBearingChange: 0
UnicodeEnc: 0
InstructionsLength: 0
SplineSet
119 1084 m 1,0,-1
 409 1084 l 1,1,-1
 409 259 l 2,2,3
 409 212 409 212 433.5 192.5 c 128,-1,4
 458 173 458 173 491 173 c 0,5,6
 532 173 532 173 567.5 195.5 c 128,-1,7
 603 218 603 218 603 245 c 2,8,-1
 603 1084 l 1,9,-1
 894 1084 l 1,10,-1
 894 0 l 1,11,-1
 603 0 l 1,12,-1
 603 68 l 1,13,14
 563 37 563 37 506.5 8.5 c 128,-1,15
 450 -20 450 -20 354 -20 c 0,16,17
 238 -20 238 -20 178.5 51 c 128,-1,18
 119 122 119 122 119 223 c 2,19,-1
 119 1084 l 1,0,-1
101 1186 m 1,20,-1
 101 1415 l 1,21,-1
 367 1415 l 1,22,-1
 367 1186 l 1,23,-1
 101 1186 l 1,20,-1
560 1186 m 1,24,-1
 560 1415 l 1,25,-1
 827 1415 l 1,26,-1
 827 1186 l 1,27,-1
 560 1186 l 1,24,-1
EndSplineSet
EndUndoOperation
EndUndoes
Redoes
EndRedoes
EndUndoRedoHistory
Fore
SplineSet
560 1186 m 1,0,-1
 560 1415 l 1,1,-1
 827 1415 l 1,2,-1
 827 1186 l 1,3,-1
 560 1186 l 1,0,-1
101 1186 m 1,4,-1
 101 1415 l 1,5,-1
 367 1415 l 1,6,-1
 367 1186 l 1,7,-1
 101 1186 l 1,4,-1
119 1084 m 1,8,-1
 409 1084 l 1,9,-1
 409 259 l 2,10,11
 409 212 409 212 433.5 192.5 c 128,-1,12
 458 173 458 173 491 173 c 0,13,14
 532 173 532 173 567.5 195.5 c 128,-1,15
 603 218 603 218 603 245 c 2,16,-1
 603 1084 l 1,17,-1
 894 1084 l 1,18,-1
 894 0 l 1,19,-1
 603 0 l 1,20,-1
 603 68 l 1,21,22
 563 37 563 37 506.5 8.5 c 128,-1,23
 450 -20 450 -20 354 -20 c 0,24,25
 238 -20 238 -20 178.5 51 c 128,-1,26
 119 122 119 122 119 223 c 2,27,-1
 119 1084 l 1,8,-1
EndSplineSet
EndChar

StartChar: dagger
Encoding: 8224 8224 99
Width: 658
Flags: W
LayerCount: 2
UndoRedoHistory
Layer: 1
Undoes
UndoOperation
Index: 0
Type: 1
WasModified: 0
WasOrder2: 1
Width: 658
VWidth: 2048
LBearingChange: 0
UnicodeEnc: 0
InstructionsLength: 0
SplineSet
225 1286 m 1,0,-1
 432 1286 l 1,1,-1
 432 992 l 1,2,-1
 599 992 l 1,3,-1
 599 797 l 1,4,-1
 432 797 l 1,5,-1
 432 -32 l 1,6,-1
 225 -32 l 1,7,-1
 225 797 l 1,8,-1
 58 797 l 1,9,-1
 58 992 l 1,10,-1
 225 992 l 1,11,-1
 225 1286 l 1,0,-1
EndSplineSet
EndUndoOperation
EndUndoes
Redoes
EndRedoes
EndUndoRedoHistory
Fore
SplineSet
225 1286 m 1,0,-1
 432 1286 l 1,1,-1
 432 992 l 1,2,-1
 599 992 l 1,3,-1
 599 797 l 1,4,-1
 432 797 l 1,5,-1
 432 -32 l 1,6,-1
 225 -32 l 1,7,-1
 225 797 l 1,8,-1
 58 797 l 1,9,-1
 58 992 l 1,10,-1
 225 992 l 1,11,-1
 225 1286 l 1,0,-1
EndSplineSet
EndChar

StartChar: degree
Encoding: 176 176 100
Width: 1036
Flags: W
LayerCount: 2
UndoRedoHistory
Layer: 1
Undoes
UndoOperation
Index: 0
Type: 1
WasModified: 0
WasOrder2: 1
Width: 1036
VWidth: 2048
LBearingChange: 0
UnicodeEnc: 0
InstructionsLength: 0
SplineSet
513 1464 m 1,0,1
 723 1464 723 1464 824 1378 c 128,-1,2
 925 1292 925 1292 925 1152 c 256,3,4
 925 1012 925 1012 825 925.5 c 128,-1,5
 725 839 725 839 512 839 c 0,6,7
 302 839 302 839 202.5 925.5 c 128,-1,8
 103 1012 103 1012 103 1152 c 0,9,10
 103 1293 103 1293 203 1378.5 c 128,-1,11
 303 1464 303 1464 513 1464 c 1,12,-1
 513 1464 l 1,0,1
756 1151 m 1,13,14
 756 1218 756 1218 696 1267.5 c 128,-1,15
 636 1317 636 1317 513 1317 c 0,16,17
 392 1317 392 1317 331.5 1268 c 128,-1,18
 271 1219 271 1219 271 1152 c 0,19,20
 271 1086 271 1086 331 1036 c 128,-1,21
 391 986 391 986 513 986 c 256,22,23
 635 986 635 986 695.5 1035.5 c 128,-1,24
 756 1085 756 1085 756 1151 c 1,25,-1
 756 1151 l 1,13,14
EndSplineSet
EndUndoOperation
EndUndoes
Redoes
EndRedoes
EndUndoRedoHistory
Fore
SplineSet
756 1151 m 0,0,1
 756 1218 756 1218 696 1267.5 c 128,-1,2
 636 1317 636 1317 513 1317 c 0,3,4
 392 1317 392 1317 331.5 1268 c 128,-1,5
 271 1219 271 1219 271 1152 c 0,6,7
 271 1086 271 1086 331 1036 c 128,-1,8
 391 986 391 986 513 986 c 128,-1,9
 635 986 635 986 695.5 1035.5 c 128,-1,10
 756 1085 756 1085 756 1151 c 0,0,1
513 1464 m 128,-1,12
 723 1464 723 1464 824 1378 c 128,-1,13
 925 1292 925 1292 925 1152 c 128,-1,14
 925 1012 925 1012 825 925.5 c 128,-1,15
 725 839 725 839 512 839 c 0,16,17
 302 839 302 839 202.5 925.5 c 128,-1,18
 103 1012 103 1012 103 1152 c 0,19,20
 103 1293 103 1293 203 1378.5 c 128,-1,11
 303 1464 303 1464 513 1464 c 128,-1,12
EndSplineSet
EndChar

StartChar: cent
Encoding: 162 162 101
Width: 845
Flags: W
LayerCount: 2
UndoRedoHistory
Layer: 1
Undoes
UndoOperation
Index: 0
Type: 1
WasModified: 0
WasOrder2: 1
Width: 845
VWidth: 2048
LBearingChange: 0
UnicodeEnc: 0
InstructionsLength: 0
SplineSet
361 1275 m 1,0,-1
 498 1275 l 1,1,-1
 498 1068 l 1,2,3
 655 1057 655 1057 719.5 968.5 c 128,-1,4
 784 880 784 880 784 729 c 2,5,-1
 784 651 l 1,6,-1
 516 651 l 1,7,-1
 517 755 l 2,8,9
 518 803 518 803 502 833.5 c 128,-1,10
 486 864 486 864 425 864 c 0,11,12
 372 864 372 864 356 839 c 128,-1,13
 340 814 340 814 340 788 c 2,14,-1
 340 304 l 2,15,16
 340 277 340 277 354 249.5 c 128,-1,17
 368 222 368 222 425 222 c 0,18,19
 481 222 481 222 500 245.5 c 128,-1,20
 519 269 519 269 519 314 c 0,21,22
 519 321 519 321 518 363 c 128,-1,23
 517 405 517 405 516 444 c 1,24,-1
 784 444 l 1,25,-1
 784 313 l 2,26,27
 784 185 784 185 706 107.5 c 128,-1,28
 628 30 628 30 498 19 c 1,29,-1
 498 -192 l 1,30,-1
 361 -192 l 1,31,-1
 361 19 l 1,32,33
 228 29 228 29 149 106.5 c 128,-1,34
 70 184 70 184 70 313 c 2,35,-1
 70 729 l 2,36,37
 70 880 70 880 135 969.5 c 128,-1,38
 200 1059 200 1059 361 1068 c 1,39,-1
 361 1275 l 1,0,-1
EndSplineSet
EndUndoOperation
EndUndoes
Redoes
EndRedoes
EndUndoRedoHistory
Fore
SplineSet
361 1275 m 1,0,-1
 498 1275 l 1,1,-1
 498 1068 l 1,2,3
 655 1057 655 1057 719.5 968.5 c 128,-1,4
 784 880 784 880 784 729 c 2,5,-1
 784 651 l 1,6,-1
 516 651 l 1,7,-1
 517 755 l 2,8,9
 518 803 518 803 502 833.5 c 128,-1,10
 486 864 486 864 425 864 c 0,11,12
 372 864 372 864 356 839 c 128,-1,13
 340 814 340 814 340 788 c 2,14,-1
 340 304 l 2,15,16
 340 277 340 277 354 249.5 c 128,-1,17
 368 222 368 222 425 222 c 0,18,19
 481 222 481 222 500 245.5 c 128,-1,20
 519 269 519 269 519 314 c 0,21,22
 519 321 519 321 518 363 c 128,-1,23
 517 405 517 405 516 444 c 1,24,-1
 784 444 l 1,25,-1
 784 313 l 2,26,27
 784 185 784 185 706 107.5 c 128,-1,28
 628 30 628 30 498 19 c 1,29,-1
 498 -192 l 1,30,-1
 361 -192 l 1,31,-1
 361 19 l 1,32,33
 228 29 228 29 149 106.5 c 128,-1,34
 70 184 70 184 70 313 c 2,35,-1
 70 729 l 2,36,37
 70 880 70 880 135 969.5 c 128,-1,38
 200 1059 200 1059 361 1068 c 1,39,-1
 361 1275 l 1,0,-1
EndSplineSet
EndChar

StartChar: bullet
Encoding: 8226 8226 102
Width: 1027
Flags: W
LayerCount: 2
UndoRedoHistory
Layer: 1
Undoes
UndoOperation
Index: 0
Type: 1
WasModified: 0
WasOrder2: 1
Width: 1027
VWidth: 2048
LBearingChange: 0
UnicodeEnc: 0
InstructionsLength: 0
SplineSet
136 599 m 1,0,1
 136 745 136 745 240.5 823 c 128,-1,2
 345 901 345 901 513 901 c 0,3,4
 682 901 682 901 786.5 823 c 128,-1,5
 891 745 891 745 891 599 c 0,6,7
 891 454 891 454 786 376 c 128,-1,8
 681 298 681 298 512 298 c 256,9,10
 343 298 343 298 239.5 375.5 c 128,-1,11
 136 453 136 453 136 599 c 1,12,-1
 136 599 l 1,0,1
EndSplineSet
EndUndoOperation
EndUndoes
Redoes
EndRedoes
EndUndoRedoHistory
Fore
SplineSet
136 599 m 128,-1,1
 136 745 136 745 240.5 823 c 128,-1,2
 345 901 345 901 513 901 c 0,3,4
 682 901 682 901 786.5 823 c 128,-1,5
 891 745 891 745 891 599 c 0,6,7
 891 454 891 454 786 376 c 128,-1,8
 681 298 681 298 512 298 c 128,-1,9
 343 298 343 298 239.5 375.5 c 128,-1,0
 136 453 136 453 136 599 c 128,-1,1
EndSplineSet
EndChar

StartChar: trademark
Encoding: 8482 8482 103
Width: 2168
Flags: W
LayerCount: 2
UndoRedoHistory
Layer: 1
Undoes
UndoOperation
Index: 0
Type: 1
WasModified: 0
WasOrder2: 1
Width: 2168
VWidth: 2048
LBearingChange: 0
UnicodeEnc: 0
InstructionsLength: 0
SplineSet
664 1240 m 1,0,-1
 664 1126 l 1,1,-1
 433 1126 l 1,2,-1
 433 605 l 1,3,-1
 298 605 l 1,4,-1
 298 1126 l 1,5,-1
 156 1126 l 1,6,-1
 156 1240 l 1,7,-1
 664 1240 l 1,0,-1
1036 1240 m 1,8,-1
 1190 878 l 1,9,-1
 1346 1240 l 1,10,-1
 1582 1240 l 1,11,-1
 1582 605 l 1,12,-1
 1455 605 l 1,13,-1
 1455 1043 l 1,14,-1
 1258 605 l 1,15,-1
 1122 605 l 1,16,-1
 923 1043 l 1,17,-1
 923 605 l 1,18,-1
 798 605 l 1,19,-1
 798 1240 l 1,20,-1
 1036 1240 l 1,8,-1
EndSplineSet
EndUndoOperation
EndUndoes
Redoes
EndRedoes
EndUndoRedoHistory
Fore
SplineSet
1036 1240 m 1,0,-1
 1190 878 l 1,1,-1
 1346 1240 l 1,2,-1
 1582 1240 l 1,3,-1
 1582 605 l 1,4,-1
 1455 605 l 1,5,-1
 1455 1043 l 1,6,-1
 1258 605 l 1,7,-1
 1122 605 l 1,8,-1
 923 1043 l 1,9,-1
 923 605 l 1,10,-1
 798 605 l 1,11,-1
 798 1240 l 1,12,-1
 1036 1240 l 1,0,-1
664 1240 m 1,13,-1
 664 1126 l 1,14,-1
 433 1126 l 1,15,-1
 433 605 l 1,16,-1
 298 605 l 1,17,-1
 298 1126 l 1,18,-1
 156 1126 l 1,19,-1
 156 1240 l 1,20,-1
 664 1240 l 1,13,-1
EndSplineSet
EndChar

StartChar: acute
Encoding: 180 180 104
Width: 614
Flags: W
LayerCount: 2
UndoRedoHistory
Layer: 1
Undoes
UndoOperation
Index: 0
Type: 1
WasModified: 0
WasOrder2: 1
Width: 614
VWidth: 2048
LBearingChange: 0
UnicodeEnc: 0
InstructionsLength: 0
SplineSet
258 1474 m 1,0,-1
 523 1474 l 1,1,-1
 315 1155 l 1,2,-1
 154 1155 l 1,3,-1
 258 1474 l 1,0,-1
EndSplineSet
EndUndoOperation
EndUndoes
Redoes
EndRedoes
EndUndoRedoHistory
Fore
SplineSet
258 1474 m 1,0,-1
 523 1474 l 1,1,-1
 315 1155 l 1,2,-1
 154 1155 l 1,3,-1
 258 1474 l 1,0,-1
EndSplineSet
EndChar

StartChar: dieresis
Encoding: 168 168 105
Width: 956
Flags: W
LayerCount: 2
UndoRedoHistory
Layer: 1
Undoes
UndoOperation
Index: 0
Type: 1
WasModified: 0
WasOrder2: 1
Width: 956
VWidth: 2048
LBearingChange: 0
UnicodeEnc: 0
InstructionsLength: 0
SplineSet
137 1222 m 1,0,-1
 137 1452 l 1,1,-1
 403 1452 l 1,2,-1
 403 1222 l 1,3,-1
 137 1222 l 1,0,-1
596 1222 m 1,4,-1
 596 1452 l 1,5,-1
 863 1452 l 1,6,-1
 863 1222 l 1,7,-1
 596 1222 l 1,4,-1
EndSplineSet
EndUndoOperation
EndUndoes
Redoes
EndRedoes
EndUndoRedoHistory
Fore
SplineSet
596 1222 m 1,0,-1
 596 1452 l 1,1,-1
 863 1452 l 1,2,-1
 863 1222 l 1,3,-1
 596 1222 l 1,0,-1
137 1222 m 1,4,-1
 137 1452 l 1,5,-1
 403 1452 l 1,6,-1
 403 1222 l 1,7,-1
 137 1222 l 1,4,-1
EndSplineSet
EndChar

StartChar: Oslash
Encoding: 216 216 106
Width: 1124
Flags: W
LayerCount: 2
UndoRedoHistory
Layer: 1
Undoes
UndoOperation
Index: 0
Type: 1
WasModified: 0
WasOrder2: 1
Width: 1124
VWidth: 2048
LBearingChange: 0
UnicodeEnc: 0
InstructionsLength: 0
SplineSet
868 1654 m 1,0,-1
 952 1638 l 1,1,-1
 892 1426 l 1,2,3
 985 1368 985 1368 1020.5 1258.5 c 128,-1,4
 1056 1149 1056 1149 1056 1012 c 2,5,-1
 1056 445 l 2,6,7
 1056 244 1056 244 960 110 c 128,-1,8
 864 -24 864 -24 563 -24 c 0,9,10
 493 -24 493 -24 432 -19.5 c 128,-1,11
 371 -15 371 -15 325 -6 c 1,12,-1
 273 -195 l 1,13,-1
 190 -179 l 1,14,-1
 247 25 l 1,15,16
 147 80 147 80 107.5 191 c 128,-1,17
 68 302 68 302 68 440 c 2,18,-1
 68 1012 l 2,19,20
 68 1219 68 1219 163.5 1351 c 128,-1,21
 259 1483 259 1483 562 1483 c 0,22,23
 640 1483 640 1483 706.5 1476.5 c 128,-1,24
 773 1470 773 1470 813 1459 c 1,25,-1
 868 1654 l 1,0,-1
767 1086 m 2,26,27
 767 1146 767 1146 730 1207.5 c 128,-1,28
 693 1269 693 1269 562 1269 c 256,29,30
 431 1269 431 1269 393.5 1207.5 c 128,-1,31
 356 1146 356 1146 356 1086 c 2,32,-1
 356 367 l 2,33,34
 356 305 356 305 393 243.5 c 128,-1,35
 430 182 430 182 563 182 c 256,36,37
 696 182 696 182 732 243.5 c 128,-1,38
 768 305 768 305 768 367 c 2,39,-1
 767 1086 l 2,26,27
EndSplineSet
EndUndoOperation
EndUndoes
Redoes
EndRedoes
EndUndoRedoHistory
Fore
SplineSet
767 1086 m 2,0,1
 767 1146 767 1146 730 1207.5 c 128,-1,2
 693 1269 693 1269 562 1269 c 128,-1,3
 431 1269 431 1269 393.5 1207.5 c 128,-1,4
 356 1146 356 1146 356 1086 c 2,5,-1
 356 367 l 2,6,7
 356 305 356 305 393 243.5 c 128,-1,8
 430 182 430 182 563 182 c 128,-1,9
 696 182 696 182 732 243.5 c 128,-1,10
 768 305 768 305 768 367 c 2,11,-1
 767 1086 l 2,0,1
868 1654 m 1,12,-1
 952 1638 l 1,13,-1
 892 1426 l 1,14,15
 985 1368 985 1368 1020.5 1258.5 c 128,-1,16
 1056 1149 1056 1149 1056 1012 c 2,17,-1
 1056 445 l 2,18,19
 1056 244 1056 244 960 110 c 128,-1,20
 864 -24 864 -24 563 -24 c 0,21,22
 493 -24 493 -24 432 -19.5 c 128,-1,23
 371 -15 371 -15 325 -6 c 1,24,-1
 273 -195 l 1,25,-1
 190 -179 l 1,26,-1
 247 25 l 1,27,28
 147 80 147 80 107.5 191 c 128,-1,29
 68 302 68 302 68 440 c 2,30,-1
 68 1012 l 2,31,32
 68 1219 68 1219 163.5 1351 c 128,-1,33
 259 1483 259 1483 562 1483 c 0,34,35
 640 1483 640 1483 706.5 1476.5 c 128,-1,36
 773 1470 773 1470 813 1459 c 1,37,-1
 868 1654 l 1,12,-1
EndSplineSet
EndChar

StartChar: plusminus
Encoding: 177 177 107
Width: 910
Flags: W
LayerCount: 2
UndoRedoHistory
Layer: 1
Undoes
UndoOperation
Index: 0
Type: 1
WasModified: 0
WasOrder2: 1
Width: 910
VWidth: 2048
LBearingChange: 0
UnicodeEnc: 0
InstructionsLength: 0
SplineSet
540 856 m 1,0,-1
 540 672 l 1,1,-1
 765 672 l 1,2,-1
 765 502 l 1,3,-1
 540 502 l 1,4,-1
 540 318 l 1,5,-1
 363 318 l 1,6,-1
 363 502 l 1,7,-1
 138 502 l 1,8,-1
 138 672 l 1,9,-1
 363 672 l 1,10,-1
 363 856 l 1,11,-1
 540 856 l 1,0,-1
765 175 m 1,12,-1
 765 5 l 1,13,-1
 138 5 l 1,14,-1
 138 175 l 1,15,-1
 765 175 l 1,12,-1
EndSplineSet
EndUndoOperation
EndUndoes
Redoes
EndRedoes
EndUndoRedoHistory
Fore
SplineSet
765 175 m 1,0,-1
 765 5 l 1,1,-1
 138 5 l 1,2,-1
 138 175 l 1,3,-1
 765 175 l 1,0,-1
540 856 m 1,4,-1
 540 672 l 1,5,-1
 765 672 l 1,6,-1
 765 502 l 1,7,-1
 540 502 l 1,8,-1
 540 318 l 1,9,-1
 363 318 l 1,10,-1
 363 502 l 1,11,-1
 138 502 l 1,12,-1
 138 672 l 1,13,-1
 363 672 l 1,14,-1
 363 856 l 1,15,-1
 540 856 l 1,4,-1
EndSplineSet
EndChar

StartChar: exclamdown
Encoding: 161 161 108
Width: 418
Flags: W
LayerCount: 2
UndoRedoHistory
Layer: 1
Undoes
UndoOperation
Index: 0
Type: 1
WasModified: 0
WasOrder2: 1
Width: 418
VWidth: 2048
LBearingChange: 0
UnicodeEnc: 0
InstructionsLength: 0
SplineSet
89 1136 m 1,0,-1
 349 1136 l 1,1,-1
 349 879 l 1,2,-1
 89 879 l 1,3,-1
 89 1136 l 1,0,-1
165 764 m 1,4,-1
 271 764 l 1,5,-1
 349 -324 l 1,6,-1
 75 -324 l 1,7,-1
 165 764 l 1,4,-1
EndSplineSet
EndUndoOperation
EndUndoes
Redoes
EndRedoes
EndUndoRedoHistory
Fore
SplineSet
165 764 m 1,0,-1
 271 764 l 1,1,-1
 349 -324 l 1,2,-1
 75 -324 l 1,3,-1
 165 764 l 1,0,-1
89 1136 m 1,4,-1
 349 1136 l 1,5,-1
 349 879 l 1,6,-1
 89 879 l 1,7,-1
 89 1136 l 1,4,-1
EndSplineSet
EndChar

StartChar: logicalnot
Encoding: 172 172 109
Width: 864
Flags: W
LayerCount: 2
UndoRedoHistory
Layer: 1
Undoes
UndoOperation
Index: 0
Type: 1
WasModified: 0
WasOrder2: 1
Width: 864
VWidth: 2048
LBearingChange: 0
UnicodeEnc: 0
InstructionsLength: 0
SplineSet
721 588 m 1,0,-1
 721 229 l 1,1,-1
 589 229 l 1,2,-1
 589 419 l 1,3,-1
 138 419 l 1,4,-1
 138 588 l 1,5,-1
 721 588 l 1,0,-1
EndSplineSet
EndUndoOperation
EndUndoes
Redoes
EndRedoes
EndUndoRedoHistory
Fore
SplineSet
721 588 m 1,0,-1
 721 229 l 1,1,-1
 589 229 l 1,2,-1
 589 419 l 1,3,-1
 138 419 l 1,4,-1
 138 588 l 1,5,-1
 721 588 l 1,0,-1
EndSplineSet
EndChar

StartChar: florin
Encoding: 402 402 110
Width: 614
Flags: W
LayerCount: 2
UndoRedoHistory
Layer: 1
Undoes
UndoOperation
Index: 0
Type: 1
WasModified: 0
WasOrder2: 1
Width: 614
VWidth: 2048
LBearingChange: 0
UnicodeEnc: 0
InstructionsLength: 0
SplineSet
544 1405 m 1,0,-1
 544 1251 l 1,1,2
 528 1252 528 1252 508 1255 c 128,-1,3
 488 1258 488 1258 478 1258 c 0,4,5
 420 1258 420 1258 406 1219.5 c 128,-1,6
 392 1181 392 1181 392 1124 c 2,7,-1
 392 1025 l 1,8,-1
 534 1025 l 1,9,-1
 534 848 l 1,10,-1
 392 848 l 1,11,-1
 392 91 l 2,12,13
 392 -37 392 -37 354.5 -129 c 128,-1,14
 317 -221 317 -221 137 -221 c 0,15,16
 112 -221 112 -221 87 -219 c 128,-1,17
 62 -217 62 -217 25 -213 c 1,18,-1
 25 -59 l 1,19,20
 41 -61 41 -61 62 -62.5 c 128,-1,21
 83 -64 83 -64 93 -64 c 0,22,23
 150 -64 150 -64 163.5 -27.5 c 128,-1,24
 177 9 177 9 177 63 c 2,25,-1
 177 848 l 1,26,-1
 60 848 l 1,27,-1
 60 1025 l 1,28,-1
 177 1025 l 1,29,-1
 177 1102 l 2,30,31
 177 1226 177 1226 213 1319.5 c 128,-1,32
 249 1413 249 1413 424 1413 c 0,33,34
 449 1413 449 1413 475.5 1411 c 128,-1,35
 502 1409 502 1409 544 1405 c 1,36,-1
 544 1405 l 1,0,-1
EndSplineSet
EndUndoOperation
EndUndoes
Redoes
EndRedoes
EndUndoRedoHistory
Fore
SplineSet
544 1405 m 1,0,-1
 544 1251 l 1,1,2
 528 1252 528 1252 508 1255 c 128,-1,3
 488 1258 488 1258 478 1258 c 0,4,5
 420 1258 420 1258 406 1219.5 c 128,-1,6
 392 1181 392 1181 392 1124 c 2,7,-1
 392 1025 l 1,8,-1
 534 1025 l 1,9,-1
 534 848 l 1,10,-1
 392 848 l 1,11,-1
 392 91 l 2,12,13
 392 -37 392 -37 354.5 -129 c 128,-1,14
 317 -221 317 -221 137 -221 c 0,15,16
 112 -221 112 -221 87 -219 c 128,-1,17
 62 -217 62 -217 25 -213 c 1,18,-1
 25 -59 l 1,19,20
 41 -61 41 -61 62 -62.5 c 128,-1,21
 83 -64 83 -64 93 -64 c 0,22,23
 150 -64 150 -64 163.5 -27.5 c 128,-1,24
 177 9 177 9 177 63 c 2,25,-1
 177 848 l 1,26,-1
 60 848 l 1,27,-1
 60 1025 l 1,28,-1
 177 1025 l 1,29,-1
 177 1102 l 2,30,31
 177 1226 177 1226 213 1319.5 c 128,-1,32
 249 1413 249 1413 424 1413 c 0,33,34
 449 1413 449 1413 475.5 1411 c 128,-1,35
 502 1409 502 1409 544 1405 c 1,0,-1
EndSplineSet
EndChar

StartChar: ellipsis
Encoding: 8230 8230 111
Width: 1427
Flags: W
LayerCount: 2
UndoRedoHistory
Layer: 1
Undoes
UndoOperation
Index: 0
Type: 1
WasModified: 0
WasOrder2: 1
Width: 1427
VWidth: 2048
LBearingChange: 0
UnicodeEnc: 0
InstructionsLength: 0
SplineSet
112 255 m 1,0,-1
 365 255 l 1,1,-1
 365 0 l 1,2,-1
 112 0 l 1,3,-1
 112 255 l 1,0,-1
944 255 m 1,4,-1
 1197 255 l 1,5,-1
 1197 0 l 1,6,-1
 944 0 l 1,7,-1
 944 255 l 1,4,-1
1776 255 m 1,8,-1
 2029 255 l 1,9,-1
 2029 0 l 1,10,-1
 1776 0 l 1,11,-1
 1776 255 l 1,8,-1
EndSplineSet
EndUndoOperation
EndUndoes
Redoes
EndRedoes
EndUndoRedoHistory
Fore
SplineSet
1776 255 m 1,0,-1
 2029 255 l 1,1,-1
 2029 0 l 1,2,-1
 1776 0 l 1,3,-1
 1776 255 l 1,0,-1
944 255 m 1,4,-1
 1197 255 l 1,5,-1
 1197 0 l 1,6,-1
 944 0 l 1,7,-1
 944 255 l 1,4,-1
112 255 m 1,8,-1
 365 255 l 1,9,-1
 365 0 l 1,10,-1
 112 0 l 1,11,-1
 112 255 l 1,8,-1
EndSplineSet
EndChar

StartChar: OE
Encoding: 338 338 112
Width: 1371
Flags: W
LayerCount: 2
UndoRedoHistory
Layer: 1
Undoes
UndoOperation
Index: 0
Type: 1
WasModified: 0
WasOrder2: 1
Width: 1371
VWidth: 2048
LBearingChange: 0
UnicodeEnc: 0
InstructionsLength: 0
SplineSet
562 1459 m 1,0,-1
 1344 1459 l 1,1,-1
 1344 1266 l 1,2,-1
 1056 1266 l 1,3,-1
 1056 862 l 1,4,-1
 1268 862 l 1,5,-1
 1268 665 l 1,6,-1
 1056 665 l 1,7,-1
 1056 194 l 1,8,-1
 1344 194 l 1,9,-1
 1344 0 l 1,10,-1
 563 0 l 2,11,12
 262 0 262 0 165 123.5 c 128,-1,13
 68 247 68 247 68 452 c 2,14,-1
 68 999 l 2,15,16
 68 1198 68 1198 163.5 1328 c 128,-1,17
 259 1458 259 1458 562 1459 c 1,18,-1
 562 1459 l 1,0,-1
768 1259 m 1,19,-1
 565 1259 l 2,20,21
 431 1259 431 1259 393.5 1197.5 c 128,-1,22
 356 1136 356 1136 356 1074 c 2,23,-1
 356 377 l 2,24,25
 356 316 356 316 393.5 254.5 c 128,-1,26
 431 193 431 193 565 193 c 2,27,-1
 768 193 l 1,28,-1
 768 1259 l 1,19,-1
EndSplineSet
EndUndoOperation
EndUndoes
Redoes
EndRedoes
EndUndoRedoHistory
Fore
SplineSet
768 1259 m 1,0,-1
 565 1259 l 2,1,2
 431 1259 431 1259 393.5 1197.5 c 128,-1,3
 356 1136 356 1136 356 1074 c 2,4,-1
 356 377 l 2,5,6
 356 316 356 316 393.5 254.5 c 128,-1,7
 431 193 431 193 565 193 c 2,8,-1
 768 193 l 1,9,-1
 768 1259 l 1,0,-1
562 1459 m 1,10,-1
 1344 1459 l 1,11,-1
 1344 1266 l 1,12,-1
 1056 1266 l 1,13,-1
 1056 862 l 1,14,-1
 1268 862 l 1,15,-1
 1268 665 l 1,16,-1
 1056 665 l 1,17,-1
 1056 194 l 1,18,-1
 1344 194 l 1,19,-1
 1344 0 l 1,20,-1
 563 0 l 2,21,22
 262 0 262 0 165 123.5 c 128,-1,23
 68 247 68 247 68 452 c 2,24,-1
 68 999 l 2,25,26
 68 1198 68 1198 163.5 1328 c 128,-1,27
 259 1458 259 1458 562 1459 c 1,10,-1
EndSplineSet
EndChar

StartChar: endash
Encoding: 8211 8211 113
Width: 539
Flags: W
LayerCount: 2
UndoRedoHistory
Layer: 1
Undoes
UndoOperation
Index: 0
Type: 1
WasModified: 0
WasOrder2: 1
Width: 539
VWidth: 2048
LBearingChange: 0
UnicodeEnc: 0
InstructionsLength: 0
SplineSet
2 569 m 1,0,-1
 535 569 l 1,1,-1
 535 402 l 1,2,-1
 2 402 l 1,3,-1
 2 569 l 1,0,-1
EndSplineSet
EndUndoOperation
EndUndoes
Redoes
EndRedoes
EndUndoRedoHistory
Fore
SplineSet
2 569 m 1,0,-1
 535 569 l 1,1,-1
 535 402 l 1,2,-1
 2 402 l 1,3,-1
 2 569 l 1,0,-1
EndSplineSet
EndChar

StartChar: emdash
Encoding: 8212 8212 114
Width: 1101
Flags: W
LayerCount: 2
UndoRedoHistory
Layer: 1
Undoes
UndoOperation
Index: 0
Type: 1
WasModified: 0
WasOrder2: 1
Width: 1101
VWidth: 2048
LBearingChange: 0
UnicodeEnc: 0
InstructionsLength: 0
SplineSet
2 569 m 1,0,-1
 1098 569 l 1,1,-1
 1098 402 l 1,2,-1
 2 402 l 1,3,-1
 2 569 l 1,0,-1
EndSplineSet
EndUndoOperation
EndUndoes
Redoes
EndRedoes
EndUndoRedoHistory
Fore
SplineSet
2 569 m 1,0,-1
 1098 569 l 1,1,-1
 1098 402 l 1,2,-1
 2 402 l 1,3,-1
 2 569 l 1,0,-1
EndSplineSet
EndChar

StartChar: divide
Encoding: 247 247 115
Width: 774
Flags: W
LayerCount: 2
UndoRedoHistory
Layer: 1
Undoes
UndoOperation
Index: 0
Type: 1
WasModified: 0
WasOrder2: 1
Width: 774
VWidth: 2048
LBearingChange: 0
UnicodeEnc: 0
InstructionsLength: 0
SplineSet
482 957 m 1,0,1
 491 957 491 957 497.5 857 c 128,-1,2
 504 757 504 757 504 748 c 256,3,4
 504 739 504 739 400 733 c 128,-1,5
 296 727 296 727 287 727 c 256,6,7
 278 727 278 727 271.5 827 c 128,-1,8
 265 927 265 927 265 936 c 256,9,10
 265 945 265 945 369 951 c 128,-1,11
 473 957 473 957 482 957 c 1,12,-1
 482 957 l 1,0,1
720 642 m 1,13,-1
 720 472 l 1,14,-1
 49 472 l 1,15,-1
 49 642 l 1,16,-1
 720 642 l 1,13,-1
482 404 m 1,17,18
 491 404 491 404 497.5 304 c 128,-1,19
 504 204 504 204 504 195 c 256,20,21
 504 186 504 186 400 180 c 128,-1,22
 296 174 296 174 287 174 c 0,23,24
 277 174 277 174 271 274 c 128,-1,25
 265 374 265 374 265 383 c 256,26,27
 265 392 265 392 369 398 c 128,-1,28
 473 404 473 404 482 404 c 1,29,-1
 482 404 l 1,17,18
EndSplineSet
EndUndoOperation
EndUndoes
Redoes
EndRedoes
EndUndoRedoHistory
Fore
SplineSet
482 404 m 128,-1,1
 491 404 491 404 497.5 304 c 128,-1,2
 504 204 504 204 504 195 c 128,-1,3
 504 186 504 186 400 180 c 128,-1,4
 296 174 296 174 287 174 c 0,5,6
 277 174 277 174 271 274 c 128,-1,7
 265 374 265 374 265 383 c 128,-1,8
 265 392 265 392 369 398 c 128,-1,0
 473 404 473 404 482 404 c 128,-1,1
720 642 m 1,9,-1
 720 472 l 1,10,-1
 49 472 l 1,11,-1
 49 642 l 1,12,-1
 720 642 l 1,9,-1
482 957 m 128,-1,14
 491 957 491 957 497.5 857 c 128,-1,15
 504 757 504 757 504 748 c 128,-1,16
 504 739 504 739 400 733 c 128,-1,17
 296 727 296 727 287 727 c 128,-1,18
 278 727 278 727 271.5 827 c 128,-1,19
 265 927 265 927 265 936 c 128,-1,20
 265 945 265 945 369 951 c 128,-1,13
 473 957 473 957 482 957 c 128,-1,14
EndSplineSet
EndChar

StartChar: Ydieresis
Encoding: 376 376 116
Width: 1093
Flags: W
LayerCount: 2
UndoRedoHistory
Layer: 1
Undoes
UndoOperation
Index: 0
Type: 1
WasModified: 0
WasOrder2: 1
Width: 1093
VWidth: 2048
LBearingChange: 0
UnicodeEnc: 0
InstructionsLength: 0
SplineSet
0 1459 m 1,0,-1
 327 1459 l 1,1,-1
 545 833 l 1,2,3
 601 960 601 960 663 1146 c 128,-1,4
 725 1332 725 1332 781 1459 c 1,5,-1
 1093 1459 l 1,6,-1
 624 504 l 1,7,-1
 624 0 l 1,8,-1
 313 0 l 1,9,-1
 313 504 l 1,10,-1
 0 1459 l 1,0,-1
184 1596 m 1,11,-1
 184 1826 l 1,12,-1
 450 1826 l 1,13,-1
 450 1596 l 1,14,-1
 184 1596 l 1,11,-1
643 1596 m 1,15,-1
 643 1826 l 1,16,-1
 910 1826 l 1,17,-1
 910 1596 l 1,18,-1
 643 1596 l 1,15,-1
EndSplineSet
EndUndoOperation
EndUndoes
Redoes
EndRedoes
EndUndoRedoHistory
Fore
SplineSet
643 1596 m 1,0,-1
 643 1826 l 1,1,-1
 910 1826 l 1,2,-1
 910 1596 l 1,3,-1
 643 1596 l 1,0,-1
184 1596 m 1,4,-1
 184 1826 l 1,5,-1
 450 1826 l 1,6,-1
 450 1596 l 1,7,-1
 184 1596 l 1,4,-1
0 1459 m 1,8,-1
 327 1459 l 1,9,-1
 545 833 l 1,10,11
 601 960 601 960 663 1146 c 128,-1,12
 725 1332 725 1332 781 1459 c 1,13,-1
 1093 1459 l 1,14,-1
 624 504 l 1,15,-1
 624 0 l 1,16,-1
 313 0 l 1,17,-1
 313 504 l 1,18,-1
 0 1459 l 1,8,-1
EndSplineSet
EndChar

StartChar: fraction
Encoding: 8260 8260 117
Width: 463
Flags: W
LayerCount: 2
UndoRedoHistory
Layer: 1
Undoes
UndoOperation
Index: 0
Type: 1
WasModified: 0
WasOrder2: 1
Width: 463
VWidth: 2048
LBearingChange: 0
UnicodeEnc: 0
InstructionsLength: 0
SplineSet
255 1461 m 1,0,-1
 414 1461 l 1,1,-1
 135 -1 l 1,2,-1
 -22 -1 l 1,3,-1
 255 1461 l 1,0,-1
EndSplineSet
EndUndoOperation
EndUndoes
Redoes
EndRedoes
EndUndoRedoHistory
Fore
SplineSet
255 1461 m 1,0,-1
 414 1461 l 1,1,-1
 135 -1 l 1,2,-1
 -22 -1 l 1,3,-1
 255 1461 l 1,0,-1
EndSplineSet
EndChar

StartChar: fi
Encoding: 64257 64257 118
Width: 649
Flags: W
LayerCount: 2
UndoRedoHistory
Layer: 1
Undoes
UndoOperation
Index: 0
Type: 1
WasModified: 0
WasOrder2: 1
Width: 649
VWidth: 2048
LBearingChange: 0
UnicodeEnc: 0
InstructionsLength: 0
SplineSet
262 1604 m 1,0,-1
 360 1604 l 1,1,-1
 360 1459 l 1,2,-1
 297 1459 l 2,3,4
 274 1459 274 1459 268 1442 c 128,-1,5
 262 1425 262 1425 262 1396 c 2,6,-1
 262 1302 l 1,7,-1
 358 1302 l 1,8,-1
 358 1156 l 1,9,-1
 262 1156 l 1,10,-1
 262 0 l 1,11,-1
 70 0 l 1,12,-1
 70 1156 l 1,13,-1
 16 1156 l 1,14,-1
 16 1302 l 1,15,-1
 70 1302 l 1,16,-1
 70 1396 l 2,17,18
 70 1503 70 1503 109.5 1553.5 c 128,-1,19
 149 1604 149 1604 262 1604 c 1,20,-1
 262 1604 l 1,0,-1
391 1596 m 1,21,-1
 586 1596 l 1,22,-1
 586 1459 l 1,23,-1
 391 1459 l 1,24,-1
 391 1596 l 1,21,-1
391 1302 m 1,25,-1
 586 1302 l 1,26,-1
 586 0 l 1,27,-1
 391 0 l 1,28,-1
 391 1302 l 1,25,-1
EndSplineSet
EndUndoOperation
EndUndoes
Redoes
EndRedoes
EndUndoRedoHistory
Fore
SplineSet
391 1302 m 1,0,-1
 586 1302 l 1,1,-1
 586 0 l 1,2,-1
 391 0 l 1,3,-1
 391 1302 l 1,0,-1
391 1596 m 1,4,-1
 586 1596 l 1,5,-1
 586 1459 l 1,6,-1
 391 1459 l 1,7,-1
 391 1596 l 1,4,-1
262 1604 m 2,8,-1
 360 1604 l 1,9,-1
 360 1459 l 1,10,-1
 297 1459 l 2,11,12
 274 1459 274 1459 268 1442 c 128,-1,13
 262 1425 262 1425 262 1396 c 2,14,-1
 262 1302 l 1,15,-1
 358 1302 l 1,16,-1
 358 1156 l 1,17,-1
 262 1156 l 1,18,-1
 262 0 l 1,19,-1
 70 0 l 1,20,-1
 70 1156 l 1,21,-1
 16 1156 l 1,22,-1
 16 1302 l 1,23,-1
 70 1302 l 1,24,-1
 70 1396 l 2,25,26
 70 1503 70 1503 109.5 1553.5 c 128,-1,27
 149 1604 149 1604 262 1604 c 2,8,-1
EndSplineSet
EndChar

StartChar: fl
Encoding: 64258 64258 119
Width: 649
Flags: W
LayerCount: 2
UndoRedoHistory
Layer: 1
Undoes
UndoOperation
Index: 0
Type: 1
WasModified: 0
WasOrder2: 1
Width: 649
VWidth: 2048
LBearingChange: 0
UnicodeEnc: 0
InstructionsLength: 0
SplineSet
262 1604 m 1,0,-1
 360 1604 l 1,1,-1
 360 1459 l 1,2,-1
 297 1459 l 2,3,4
 274 1459 274 1459 268 1442 c 128,-1,5
 262 1425 262 1425 262 1396 c 2,6,-1
 262 1302 l 1,7,-1
 358 1302 l 1,8,-1
 358 1156 l 1,9,-1
 262 1156 l 1,10,-1
 262 0 l 1,11,-1
 70 0 l 1,12,-1
 70 1156 l 1,13,-1
 16 1156 l 1,14,-1
 16 1302 l 1,15,-1
 70 1302 l 1,16,-1
 70 1396 l 2,17,18
 70 1503 70 1503 109.5 1553.5 c 128,-1,19
 149 1604 149 1604 262 1604 c 1,20,-1
 262 1604 l 1,0,-1
391 1596 m 1,21,-1
 586 1596 l 1,22,-1
 586 0 l 1,23,-1
 391 0 l 1,24,-1
 391 1596 l 1,21,-1
EndSplineSet
EndUndoOperation
EndUndoes
Redoes
EndRedoes
EndUndoRedoHistory
Fore
SplineSet
391 1596 m 1,0,-1
 586 1596 l 1,1,-1
 586 0 l 1,2,-1
 391 0 l 1,3,-1
 391 1596 l 1,0,-1
262 1604 m 2,4,-1
 360 1604 l 1,5,-1
 360 1459 l 1,6,-1
 297 1459 l 2,7,8
 274 1459 274 1459 268 1442 c 128,-1,9
 262 1425 262 1425 262 1396 c 2,10,-1
 262 1302 l 1,11,-1
 358 1302 l 1,12,-1
 358 1156 l 1,13,-1
 262 1156 l 1,14,-1
 262 0 l 1,15,-1
 70 0 l 1,16,-1
 70 1156 l 1,17,-1
 16 1156 l 1,18,-1
 16 1302 l 1,19,-1
 70 1302 l 1,20,-1
 70 1396 l 2,21,22
 70 1503 70 1503 109.5 1553.5 c 128,-1,23
 149 1604 149 1604 262 1604 c 2,4,-1
EndSplineSet
EndChar

StartChar: daggerdbl
Encoding: 8225 8225 120
Width: 658
Flags: W
LayerCount: 2
UndoRedoHistory
Layer: 1
Undoes
UndoOperation
Index: 0
Type: 1
WasModified: 0
WasOrder2: 1
Width: 658
VWidth: 2048
LBearingChange: 0
UnicodeEnc: 0
InstructionsLength: 0
SplineSet
225 1286 m 1,0,-1
 432 1286 l 1,1,-1
 432 1044 l 1,2,-1
 599 1044 l 1,3,-1
 599 850 l 1,4,-1
 432 850 l 1,5,-1
 432 531 l 1,6,-1
 599 531 l 1,7,-1
 599 336 l 1,8,-1
 432 336 l 1,9,-1
 432 -32 l 1,10,-1
 225 -32 l 1,11,-1
 225 336 l 1,12,-1
 58 336 l 1,13,-1
 58 531 l 1,14,-1
 225 531 l 1,15,-1
 225 850 l 1,16,-1
 58 850 l 1,17,-1
 58 1044 l 1,18,-1
 225 1044 l 1,19,-1
 225 1286 l 1,0,-1
EndSplineSet
EndUndoOperation
EndUndoes
Redoes
EndRedoes
EndUndoRedoHistory
Fore
SplineSet
225 1286 m 1,0,-1
 432 1286 l 1,1,-1
 432 1044 l 1,2,-1
 599 1044 l 1,3,-1
 599 850 l 1,4,-1
 432 850 l 1,5,-1
 432 531 l 1,6,-1
 599 531 l 1,7,-1
 599 336 l 1,8,-1
 432 336 l 1,9,-1
 432 -32 l 1,10,-1
 225 -32 l 1,11,-1
 225 336 l 1,12,-1
 58 336 l 1,13,-1
 58 531 l 1,14,-1
 225 531 l 1,15,-1
 225 850 l 1,16,-1
 58 850 l 1,17,-1
 58 1044 l 1,18,-1
 225 1044 l 1,19,-1
 225 1286 l 1,0,-1
EndSplineSet
EndChar

StartChar: periodcentered
Encoding: 183 183 121
Width: 412
Flags: W
LayerCount: 2
UndoRedoHistory
Layer: 1
Undoes
UndoOperation
Index: 0
Type: 1
WasModified: 0
WasOrder2: 1
Width: 412
VWidth: 2048
LBearingChange: 0
UnicodeEnc: 0
InstructionsLength: 0
SplineSet
96 811 m 1,0,1
 104 811 104 811 220 805 c 128,-1,2
 336 799 336 799 336 791 c 0,3,4
 336 784 336 784 329.5 675 c 128,-1,5
 323 566 323 566 316 566 c 256,6,7
 309 566 309 566 192.5 572 c 128,-1,8
 76 578 76 578 76 585 c 256,9,10
 76 592 76 592 82 701.5 c 128,-1,11
 88 811 88 811 96 811 c 1,12,-1
 96 811 l 1,0,1
EndSplineSet
EndUndoOperation
EndUndoes
Redoes
EndRedoes
EndUndoRedoHistory
Fore
SplineSet
96 811 m 128,-1,1
 104 811 104 811 220 805 c 128,-1,2
 336 799 336 799 336 791 c 0,3,4
 336 784 336 784 329.5 675 c 128,-1,5
 323 566 323 566 316 566 c 128,-1,6
 309 566 309 566 192.5 572 c 128,-1,7
 76 578 76 578 76 585 c 128,-1,8
 76 592 76 592 82 701.5 c 128,-1,0
 88 811 88 811 96 811 c 128,-1,1
EndSplineSet
EndChar

StartChar: perthousand
Encoding: 8240 8240 122
Width: 1667
Flags: W
LayerCount: 2
UndoRedoHistory
Layer: 1
Undoes
UndoOperation
Index: 0
Type: 1
WasModified: 0
WasOrder2: 1
Width: 1667
VWidth: 2048
LBearingChange: 0
UnicodeEnc: 0
InstructionsLength: 0
SplineSet
793 1604 m 1,0,-1
 934 1604 l 1,1,-1
 381 -6 l 1,2,-1
 240 -6 l 1,3,-1
 793 1604 l 1,0,-1
59 1353 m 2,4,5
 59 1500 59 1500 89 1552 c 128,-1,6
 119 1604 119 1604 268 1604 c 0,7,8
 412 1604 412 1604 444.5 1554 c 128,-1,9
 477 1504 477 1504 477 1353 c 2,10,-1
 477 1075 l 2,11,12
 477 926 477 926 445.5 873 c 128,-1,13
 414 820 414 820 268 820 c 0,14,15
 118 820 118 820 88.5 874.5 c 128,-1,16
 59 929 59 929 59 1075 c 2,17,-1
 59 1353 l 2,4,5
229 1418 m 1,18,-1
 229 1007 l 2,19,20
 229 982 229 982 240 970.5 c 128,-1,21
 251 959 251 959 268 959 c 0,22,23
 287 959 287 959 297 971 c 128,-1,24
 307 983 307 983 307 1007 c 2,25,-1
 307 1418 l 2,26,27
 307 1442 307 1442 298.5 1453.5 c 128,-1,28
 290 1465 290 1465 268 1465 c 256,29,30
 246 1465 246 1465 237.5 1452.5 c 128,-1,31
 229 1440 229 1440 229 1418 c 1,32,-1
 229 1418 l 1,18,-1
690 525 m 2,33,34
 690 672 690 672 720 724.5 c 128,-1,35
 750 777 750 777 899 777 c 0,36,37
 1043 777 1043 777 1075.5 726.5 c 128,-1,38
 1108 676 1108 676 1108 525 c 2,39,-1
 1108 248 l 2,40,41
 1108 99 1108 99 1076.5 46.5 c 128,-1,42
 1045 -6 1045 -6 899 -6 c 0,43,44
 749 -6 749 -6 719.5 48 c 128,-1,45
 690 102 690 102 690 248 c 2,46,-1
 690 525 l 2,33,34
862 589 m 1,47,-1
 862 180 l 2,48,49
 862 155 862 155 872 143.5 c 128,-1,50
 882 132 882 132 899 132 c 0,51,52
 918 132 918 132 928 144 c 128,-1,53
 938 156 938 156 938 180 c 2,54,-1
 938 589 l 2,55,56
 938 613 938 613 929.5 625 c 128,-1,57
 921 637 921 637 899 637 c 256,58,59
 877 637 877 637 869.5 624 c 128,-1,60
 862 611 862 611 862 589 c 1,61,-1
 862 589 l 1,47,-1
1190 525 m 2,62,63
 1190 672 1190 672 1219 724.5 c 128,-1,64
 1248 777 1248 777 1397 777 c 0,65,66
 1541 777 1541 777 1573.5 726.5 c 128,-1,67
 1606 676 1606 676 1606 525 c 2,68,-1
 1606 248 l 2,69,70
 1606 99 1606 99 1574.5 46.5 c 128,-1,71
 1543 -6 1543 -6 1397 -6 c 0,72,73
 1247 -6 1247 -6 1218.5 48 c 128,-1,74
 1190 102 1190 102 1190 248 c 2,75,-1
 1190 525 l 2,62,63
1360 589 m 1,76,-1
 1360 180 l 2,77,78
 1360 155 1360 155 1370 143.5 c 128,-1,79
 1380 132 1380 132 1397 132 c 0,80,81
 1416 132 1416 132 1426 144 c 128,-1,82
 1436 156 1436 156 1436 180 c 2,83,-1
 1436 589 l 2,84,85
 1436 613 1436 613 1427.5 625 c 128,-1,86
 1419 637 1419 637 1397 637 c 256,87,88
 1375 637 1375 637 1367.5 624 c 128,-1,89
 1360 611 1360 611 1360 589 c 1,90,-1
 1360 589 l 1,76,-1
EndSplineSet
EndUndoOperation
EndUndoes
Redoes
EndRedoes
EndUndoRedoHistory
Fore
SplineSet
1360 589 m 2,0,-1
 1360 180 l 2,1,2
 1360 155 1360 155 1370 143.5 c 128,-1,3
 1380 132 1380 132 1397 132 c 0,4,5
 1416 132 1416 132 1426 144 c 128,-1,6
 1436 156 1436 156 1436 180 c 2,7,-1
 1436 589 l 2,8,9
 1436 613 1436 613 1427.5 625 c 128,-1,10
 1419 637 1419 637 1397 637 c 128,-1,11
 1375 637 1375 637 1367.5 624 c 128,-1,12
 1360 611 1360 611 1360 589 c 2,0,-1
1190 525 m 2,13,14
 1190 672 1190 672 1219 724.5 c 128,-1,15
 1248 777 1248 777 1397 777 c 0,16,17
 1541 777 1541 777 1573.5 726.5 c 128,-1,18
 1606 676 1606 676 1606 525 c 2,19,-1
 1606 248 l 2,20,21
 1606 99 1606 99 1574.5 46.5 c 128,-1,22
 1543 -6 1543 -6 1397 -6 c 0,23,24
 1247 -6 1247 -6 1218.5 48 c 128,-1,25
 1190 102 1190 102 1190 248 c 2,26,-1
 1190 525 l 2,13,14
862 589 m 2,27,-1
 862 180 l 2,28,29
 862 155 862 155 872 143.5 c 128,-1,30
 882 132 882 132 899 132 c 0,31,32
 918 132 918 132 928 144 c 128,-1,33
 938 156 938 156 938 180 c 2,34,-1
 938 589 l 2,35,36
 938 613 938 613 929.5 625 c 128,-1,37
 921 637 921 637 899 637 c 128,-1,38
 877 637 877 637 869.5 624 c 128,-1,39
 862 611 862 611 862 589 c 2,27,-1
690 525 m 2,40,41
 690 672 690 672 720 724.5 c 128,-1,42
 750 777 750 777 899 777 c 0,43,44
 1043 777 1043 777 1075.5 726.5 c 128,-1,45
 1108 676 1108 676 1108 525 c 2,46,-1
 1108 248 l 2,47,48
 1108 99 1108 99 1076.5 46.5 c 128,-1,49
 1045 -6 1045 -6 899 -6 c 0,50,51
 749 -6 749 -6 719.5 48 c 128,-1,52
 690 102 690 102 690 248 c 2,53,-1
 690 525 l 2,40,41
229 1418 m 2,54,-1
 229 1007 l 2,55,56
 229 982 229 982 240 970.5 c 128,-1,57
 251 959 251 959 268 959 c 0,58,59
 287 959 287 959 297 971 c 128,-1,60
 307 983 307 983 307 1007 c 2,61,-1
 307 1418 l 2,62,63
 307 1442 307 1442 298.5 1453.5 c 128,-1,64
 290 1465 290 1465 268 1465 c 128,-1,65
 246 1465 246 1465 237.5 1452.5 c 128,-1,66
 229 1440 229 1440 229 1418 c 2,54,-1
59 1353 m 2,67,68
 59 1500 59 1500 89 1552 c 128,-1,69
 119 1604 119 1604 268 1604 c 0,70,71
 412 1604 412 1604 444.5 1554 c 128,-1,72
 477 1504 477 1504 477 1353 c 2,73,-1
 477 1075 l 2,74,75
 477 926 477 926 445.5 873 c 128,-1,76
 414 820 414 820 268 820 c 0,77,78
 118 820 118 820 88.5 874.5 c 128,-1,79
 59 929 59 929 59 1075 c 2,80,-1
 59 1353 l 2,67,68
793 1604 m 1,81,-1
 934 1604 l 1,82,-1
 381 -6 l 1,83,-1
 240 -6 l 1,84,-1
 793 1604 l 1,81,-1
EndSplineSet
EndChar

StartChar: Ecircumflex
Encoding: 202 202 123
Width: 763
Flags: W
LayerCount: 2
UndoRedoHistory
Layer: 1
Undoes
UndoOperation
Index: 0
Type: 1
WasModified: 0
WasOrder2: 1
Width: 763
VWidth: 2048
LBearingChange: 0
UnicodeEnc: 0
InstructionsLength: 0
SplineSet
146 1459 m 1,0,-1
 853 1459 l 1,1,-1
 853 1223 l 1,2,-1
 465 1223 l 1,3,-1
 465 862 l 1,4,-1
 776 862 l 1,5,-1
 776 642 l 1,6,-1
 465 642 l 1,7,-1
 465 236 l 1,8,-1
 853 236 l 1,9,-1
 853 0 l 1,10,-1
 146 0 l 1,11,-1
 146 1459 l 1,0,-1
212 1825 m 1,12,-1
 550 1825 l 1,13,-1
 710 1529 l 1,14,-1
 481 1529 l 1,15,-1
 381 1673 l 1,16,-1
 282 1529 l 1,17,-1
 55 1529 l 1,18,-1
 212 1825 l 1,12,-1
EndSplineSet
EndUndoOperation
EndUndoes
Redoes
EndRedoes
EndUndoRedoHistory
Fore
SplineSet
212 1825 m 1,0,-1
 550 1825 l 1,1,-1
 710 1529 l 1,2,-1
 481 1529 l 1,3,-1
 381 1673 l 1,4,-1
 282 1529 l 1,5,-1
 55 1529 l 1,6,-1
 212 1825 l 1,0,-1
146 1459 m 1,7,-1
 853 1459 l 1,8,-1
 853 1223 l 1,9,-1
 465 1223 l 1,10,-1
 465 862 l 1,11,-1
 776 862 l 1,12,-1
 776 642 l 1,13,-1
 465 642 l 1,14,-1
 465 236 l 1,15,-1
 853 236 l 1,16,-1
 853 0 l 1,17,-1
 146 0 l 1,18,-1
 146 1459 l 1,7,-1
EndSplineSet
EndChar

StartChar: Edieresis
Encoding: 203 203 124
Width: 763
Flags: W
LayerCount: 2
UndoRedoHistory
Layer: 1
Undoes
UndoOperation
Index: 0
Type: 1
WasModified: 0
WasOrder2: 1
Width: 763
VWidth: 2048
LBearingChange: 0
UnicodeEnc: 0
InstructionsLength: 0
SplineSet
146 1459 m 1,0,-1
 853 1459 l 1,1,-1
 853 1223 l 1,2,-1
 465 1223 l 1,3,-1
 465 862 l 1,4,-1
 776 862 l 1,5,-1
 776 642 l 1,6,-1
 465 642 l 1,7,-1
 465 236 l 1,8,-1
 853 236 l 1,9,-1
 853 0 l 1,10,-1
 146 0 l 1,11,-1
 146 1459 l 1,0,-1
19 1596 m 1,12,-1
 19 1826 l 1,13,-1
 285 1826 l 1,14,-1
 285 1596 l 1,15,-1
 19 1596 l 1,12,-1
479 1596 m 1,16,-1
 479 1826 l 1,17,-1
 746 1826 l 1,18,-1
 746 1596 l 1,19,-1
 479 1596 l 1,16,-1
EndSplineSet
EndUndoOperation
EndUndoes
Redoes
EndRedoes
EndUndoRedoHistory
Fore
SplineSet
479 1596 m 1,0,-1
 479 1826 l 1,1,-1
 746 1826 l 1,2,-1
 746 1596 l 1,3,-1
 479 1596 l 1,0,-1
19 1596 m 1,4,-1
 19 1826 l 1,5,-1
 285 1826 l 1,6,-1
 285 1596 l 1,7,-1
 19 1596 l 1,4,-1
146 1459 m 1,8,-1
 853 1459 l 1,9,-1
 853 1223 l 1,10,-1
 465 1223 l 1,11,-1
 465 862 l 1,12,-1
 776 862 l 1,13,-1
 776 642 l 1,14,-1
 465 642 l 1,15,-1
 465 236 l 1,16,-1
 853 236 l 1,17,-1
 853 0 l 1,18,-1
 146 0 l 1,19,-1
 146 1459 l 1,8,-1
EndSplineSet
EndChar

StartChar: Egrave
Encoding: 200 200 125
Width: 763
Flags: W
LayerCount: 2
UndoRedoHistory
Layer: 1
Undoes
UndoOperation
Index: 0
Type: 1
WasModified: 0
WasOrder2: 1
Width: 763
VWidth: 2048
LBearingChange: 0
UnicodeEnc: 0
InstructionsLength: 0
SplineSet
146 1459 m 1,0,-1
 853 1459 l 1,1,-1
 853 1223 l 1,2,-1
 465 1223 l 1,3,-1
 465 862 l 1,4,-1
 776 862 l 1,5,-1
 776 642 l 1,6,-1
 465 642 l 1,7,-1
 465 236 l 1,8,-1
 853 236 l 1,9,-1
 853 0 l 1,10,-1
 146 0 l 1,11,-1
 146 1459 l 1,0,-1
191 1848 m 1,12,-1
 456 1848 l 1,13,-1
 561 1529 l 1,14,-1
 398 1529 l 1,15,-1
 191 1848 l 1,12,-1
EndSplineSet
EndUndoOperation
EndUndoes
Redoes
EndRedoes
EndUndoRedoHistory
Fore
SplineSet
191 1848 m 1,0,-1
 456 1848 l 1,1,-1
 561 1529 l 1,2,-1
 398 1529 l 1,3,-1
 191 1848 l 1,0,-1
146 1459 m 1,4,-1
 853 1459 l 1,5,-1
 853 1223 l 1,6,-1
 465 1223 l 1,7,-1
 465 862 l 1,8,-1
 776 862 l 1,9,-1
 776 642 l 1,10,-1
 465 642 l 1,11,-1
 465 236 l 1,12,-1
 853 236 l 1,13,-1
 853 0 l 1,14,-1
 146 0 l 1,15,-1
 146 1459 l 1,4,-1
EndSplineSet
EndChar

StartChar: Iacute
Encoding: 205 205 126
Width: 458
Flags: W
LayerCount: 2
UndoRedoHistory
Layer: 1
Undoes
UndoOperation
Index: 0
Type: 1
WasModified: 0
WasOrder2: 1
Width: 458
VWidth: 2048
LBearingChange: 0
UnicodeEnc: 0
InstructionsLength: 0
SplineSet
86 1459 m 1,0,-1
 374 1459 l 1,1,-1
 374 0 l 1,2,-1
 86 0 l 1,3,-1
 86 1459 l 1,0,-1
156 1848 m 1,4,-1
 421 1848 l 1,5,-1
 213 1529 l 1,6,-1
 52 1529 l 1,7,-1
 156 1848 l 1,4,-1
EndSplineSet
EndUndoOperation
EndUndoes
Redoes
EndRedoes
EndUndoRedoHistory
Fore
SplineSet
156 1848 m 1,0,-1
 421 1848 l 1,1,-1
 213 1529 l 1,2,-1
 52 1529 l 1,3,-1
 156 1848 l 1,0,-1
86 1459 m 1,4,-1
 374 1459 l 1,5,-1
 374 0 l 1,6,-1
 86 0 l 1,7,-1
 86 1459 l 1,4,-1
EndSplineSet
EndChar

StartChar: Icircumflex
Encoding: 206 206 127
Width: 458
Flags: W
LayerCount: 2
UndoRedoHistory
Layer: 1
Undoes
UndoOperation
Index: 0
Type: 1
WasModified: 0
WasOrder2: 1
Width: 458
VWidth: 2048
LBearingChange: 0
UnicodeEnc: 0
InstructionsLength: 0
SplineSet
86 1459 m 1,0,-1
 374 1459 l 1,1,-1
 374 0 l 1,2,-1
 86 0 l 1,3,-1
 86 1459 l 1,0,-1
58 1825 m 1,4,-1
 396 1825 l 1,5,-1
 556 1529 l 1,6,-1
 328 1529 l 1,7,-1
 227 1673 l 1,8,-1
 128 1529 l 1,9,-1
 -98 1529 l 1,10,-1
 58 1825 l 1,4,-1
EndSplineSet
EndUndoOperation
EndUndoes
Redoes
EndRedoes
EndUndoRedoHistory
Fore
SplineSet
58 1825 m 1,0,-1
 396 1825 l 1,1,-1
 556 1529 l 1,2,-1
 328 1529 l 1,3,-1
 227 1673 l 1,4,-1
 128 1529 l 1,5,-1
 -98 1529 l 1,6,-1
 58 1825 l 1,0,-1
86 1459 m 1,7,-1
 374 1459 l 1,8,-1
 374 0 l 1,9,-1
 86 0 l 1,10,-1
 86 1459 l 1,7,-1
EndSplineSet
EndChar

StartChar: Idieresis
Encoding: 207 207 128
Width: 458
Flags: W
LayerCount: 2
UndoRedoHistory
Layer: 1
Undoes
UndoOperation
Index: 0
Type: 1
WasModified: 0
WasOrder2: 1
Width: 458
VWidth: 2048
LBearingChange: 0
UnicodeEnc: 0
InstructionsLength: 0
SplineSet
86 1459 m 1,0,-1
 374 1459 l 1,1,-1
 374 0 l 1,2,-1
 86 0 l 1,3,-1
 86 1459 l 1,0,-1
-134 1596 m 1,4,-1
 -134 1826 l 1,5,-1
 132 1826 l 1,6,-1
 132 1596 l 1,7,-1
 -134 1596 l 1,4,-1
326 1596 m 1,8,-1
 326 1826 l 1,9,-1
 592 1826 l 1,10,-1
 592 1596 l 1,11,-1
 326 1596 l 1,8,-1
EndSplineSet
EndUndoOperation
EndUndoes
Redoes
EndRedoes
EndUndoRedoHistory
Fore
SplineSet
326 1596 m 1,0,-1
 326 1826 l 1,1,-1
 592 1826 l 1,2,-1
 592 1596 l 1,3,-1
 326 1596 l 1,0,-1
-134 1596 m 1,4,-1
 -134 1826 l 1,5,-1
 132 1826 l 1,6,-1
 132 1596 l 1,7,-1
 -134 1596 l 1,4,-1
86 1459 m 1,8,-1
 374 1459 l 1,9,-1
 374 0 l 1,10,-1
 86 0 l 1,11,-1
 86 1459 l 1,8,-1
EndSplineSet
EndChar

StartChar: Igrave
Encoding: 204 204 129
Width: 458
Flags: W
LayerCount: 2
UndoRedoHistory
Layer: 1
Undoes
UndoOperation
Index: 0
Type: 1
WasModified: 0
WasOrder2: 1
Width: 458
VWidth: 2048
LBearingChange: 0
UnicodeEnc: 0
InstructionsLength: 0
SplineSet
86 1459 m 1,0,-1
 374 1459 l 1,1,-1
 374 0 l 1,2,-1
 86 0 l 1,3,-1
 86 1459 l 1,0,-1
38 1848 m 1,4,-1
 303 1848 l 1,5,-1
 408 1529 l 1,6,-1
 245 1529 l 1,7,-1
 38 1848 l 1,4,-1
EndSplineSet
EndUndoOperation
EndUndoes
Redoes
EndRedoes
EndUndoRedoHistory
Fore
SplineSet
38 1848 m 1,0,-1
 303 1848 l 1,1,-1
 408 1529 l 1,2,-1
 245 1529 l 1,3,-1
 38 1848 l 1,0,-1
86 1459 m 1,4,-1
 374 1459 l 1,5,-1
 374 0 l 1,6,-1
 86 0 l 1,7,-1
 86 1459 l 1,4,-1
EndSplineSet
EndChar

StartChar: dotlessi
Encoding: 305 305 130
Width: 510
Flags: W
LayerCount: 2
UndoRedoHistory
Layer: 1
Undoes
UndoOperation
Index: 0
Type: 1
WasModified: 1
WasOrder2: 1
Width: 510
VWidth: 2048
LBearingChange: 0
UnicodeEnc: 0
InstructionsLength: 0
SplineSet
163 1084 m 1,0,-1
 350 1084 l 1,1,-1
 350 0 l 1,2,-1
 163 0 l 1,3,-1
 163 1084 l 1,0,-1
163 1416 m 5,4,-1
 350 1416 l 5,5,-1
 350 1233 l 5,6,-1
 163 1233 l 5,7,-1
 163 1416 l 5,4,-1
EndSplineSet
EndUndoOperation
UndoOperation
Index: 1
Type: 3
WasModified: 0
WasOrder2: 1
EndUndoOperation
UndoOperation
Index: 2
Type: 1
WasModified: 0
WasOrder2: 1
Width: 419
VWidth: 2048
LBearingChange: 0
UnicodeEnc: 0
InstructionsLength: 0
SplineSet
96 1084 m 1,0,-1
 359 1084 l 1,1,-1
 359 0 l 1,2,-1
 96 0 l 1,3,-1
 96 1084 l 1,0,-1
EndSplineSet
EndUndoOperation
EndUndoes
Redoes
EndRedoes
EndUndoRedoHistory
Fore
SplineSet
163 1084 m 1,0,-1
 350 1084 l 1,1,-1
 350 0 l 1,2,-1
 163 0 l 1,3,-1
 163 1084 l 1,0,-1
EndSplineSet
EndChar

StartChar: circumflex
Encoding: 710 710 131
Width: 901
Flags: W
LayerCount: 2
UndoRedoHistory
Layer: 1
Undoes
UndoOperation
Index: 0
Type: 1
WasModified: 0
WasOrder2: 1
Width: 901
VWidth: 2048
LBearingChange: 0
UnicodeEnc: 0
InstructionsLength: 0
SplineSet
286 1451 m 1,0,-1
 624 1451 l 1,1,-1
 784 1155 l 1,2,-1
 556 1155 l 1,3,-1
 455 1299 l 1,4,-1
 356 1155 l 1,5,-1
 129 1155 l 1,6,-1
 286 1451 l 1,0,-1
EndSplineSet
EndUndoOperation
EndUndoes
Redoes
EndRedoes
EndUndoRedoHistory
Fore
SplineSet
286 1451 m 1,0,-1
 624 1451 l 1,1,-1
 784 1155 l 1,2,-1
 556 1155 l 1,3,-1
 455 1299 l 1,4,-1
 356 1155 l 1,5,-1
 129 1155 l 1,6,-1
 286 1451 l 1,0,-1
EndSplineSet
EndChar

StartChar: macron
Encoding: 175 175 132
Width: 472
Flags: W
LayerCount: 2
UndoRedoHistory
Layer: 1
Undoes
UndoOperation
Index: 0
Type: 1
WasModified: 0
WasOrder2: 1
Width: 472
VWidth: 2048
LBearingChange: 0
UnicodeEnc: 0
InstructionsLength: 0
SplineSet
37 1351 m 1,0,-1
 438 1351 l 1,1,-1
 438 1199 l 1,2,-1
 37 1199 l 1,3,-1
 37 1351 l 1,0,-1
EndSplineSet
EndUndoOperation
EndUndoes
Redoes
EndRedoes
EndUndoRedoHistory
Fore
SplineSet
37 1351 m 1,0,-1
 438 1351 l 1,1,-1
 438 1199 l 1,2,-1
 37 1199 l 1,3,-1
 37 1351 l 1,0,-1
EndSplineSet
EndChar

StartChar: breve
Encoding: 728 728 133
Width: 676
Flags: W
LayerCount: 2
UndoRedoHistory
Layer: 1
Undoes
UndoOperation
Index: 0
Type: 1
WasModified: 0
WasOrder2: 1
Width: 676
VWidth: 2048
LBearingChange: 0
UnicodeEnc: 0
InstructionsLength: 0
SplineSet
121 1377 m 1,0,-1
 256 1377 l 1,1,2
 257 1347 257 1347 273 1314 c 128,-1,3
 289 1281 289 1281 327 1281 c 0,4,5
 366 1281 366 1281 382 1313.5 c 128,-1,6
 398 1346 398 1346 398 1377 c 1,7,-1
 534 1377 l 1,8,9
 534 1291 534 1291 476 1238 c 128,-1,10
 418 1185 418 1185 327 1185 c 0,11,12
 237 1185 237 1185 179 1238 c 128,-1,13
 121 1291 121 1291 121 1377 c 1,14,-1
 121 1377 l 1,0,-1
EndSplineSet
EndUndoOperation
EndUndoes
Redoes
EndRedoes
EndUndoRedoHistory
Fore
SplineSet
121 1377 m 1,0,-1
 256 1377 l 1,1,2
 257 1347 257 1347 273 1314 c 128,-1,3
 289 1281 289 1281 327 1281 c 0,4,5
 366 1281 366 1281 382 1313.5 c 128,-1,6
 398 1346 398 1346 398 1377 c 1,7,-1
 534 1377 l 1,8,9
 534 1291 534 1291 476 1238 c 128,-1,10
 418 1185 418 1185 327 1185 c 0,11,12
 237 1185 237 1185 179 1238 c 128,-1,13
 121 1291 121 1291 121 1377 c 1,0,-1
EndSplineSet
EndChar

StartChar: dotaccent
Encoding: 729 729 134
Width: 510
Flags: W
LayerCount: 2
UndoRedoHistory
Layer: 1
Undoes
UndoOperation
Index: 0
Type: 1
WasModified: 1
WasOrder2: 1
Width: 510
VWidth: 2048
LBearingChange: 0
UnicodeEnc: 0
InstructionsLength: 0
SplineSet
163 1084 m 5,0,-1
 350 1084 l 5,1,-1
 350 0 l 5,2,-1
 163 0 l 5,3,-1
 163 1084 l 5,0,-1
163 1416 m 1,4,-1
 350 1416 l 1,5,-1
 350 1233 l 1,6,-1
 163 1233 l 1,7,-1
 163 1416 l 1,4,-1
EndSplineSet
EndUndoOperation
UndoOperation
Index: 1
Type: 3
WasModified: 0
WasOrder2: 1
EndUndoOperation
UndoOperation
Index: 2
Type: 1
WasModified: 0
WasOrder2: 1
Width: 575
VWidth: 2048
LBearingChange: 0
UnicodeEnc: 0
InstructionsLength: 0
SplineSet
173 1462 m 1,0,-1
 427 1462 l 1,1,-1
 427 1221 l 1,2,-1
 173 1221 l 1,3,-1
 173 1462 l 1,0,-1
EndSplineSet
EndUndoOperation
EndUndoes
Redoes
EndRedoes
EndUndoRedoHistory
Fore
SplineSet
163 1416 m 1,0,-1
 350 1416 l 1,1,-1
 350 1233 l 1,2,-1
 163 1233 l 1,3,-1
 163 1416 l 1,0,-1
EndSplineSet
EndChar

StartChar: cedilla
Encoding: 184 184 135
Width: 579
Flags: W
LayerCount: 2
UndoRedoHistory
Layer: 1
Undoes
UndoOperation
Index: 0
Type: 1
WasModified: 0
WasOrder2: 1
Width: 579
VWidth: 2048
LBearingChange: 0
UnicodeEnc: 0
InstructionsLength: 0
SplineSet
332 0 m 1,0,-1
 351 -84 l 1,1,2
 401 -111 401 -111 456 -155.5 c 128,-1,3
 511 -200 511 -200 511 -262 c 0,4,5
 511 -372 511 -372 384 -394.5 c 128,-1,6
 257 -417 257 -417 169 -417 c 0,7,8
 166 -417 166 -417 162 -364 c 128,-1,9
 158 -311 158 -311 154 -311 c 1,10,11
 170 -311 170 -311 237.5 -298.5 c 128,-1,12
 305 -286 305 -286 305 -259 c 0,13,14
 305 -230 305 -230 267.5 -210.5 c 128,-1,15
 230 -191 230 -191 208 -183 c 1,16,17
 214 -183 214 -183 217 -101.5 c 128,-1,18
 220 -20 220 -20 220 -14 c 0,19,20
 220 -11 220 -11 277 -7.5 c 128,-1,21
 334 -4 334 -4 332 0 c 1,22,-1
 332 0 l 1,0,-1
EndSplineSet
EndUndoOperation
EndUndoes
Redoes
EndRedoes
EndUndoRedoHistory
Fore
SplineSet
332.067154212 -0.296892304108 m 2,0,1
 332.074396038 -0.148792075205 332.074396038 -0.148792075205 332 0 c 2,2,-1
 332.067154212 -0.296892304108 l 2,0,1
332.067154212 -0.296892304108 m 1,3,-1
 351 -84 l 1,4,5
 401 -111 401 -111 456 -155.5 c 128,-1,6
 511 -200 511 -200 511 -262 c 0,7,8
 511 -372 511 -372 384 -394.5 c 128,-1,9
 257 -417 257 -417 169 -417 c 0,10,11
 166 -417 166 -417 162 -364 c 128,-1,12
 158 -311 158 -311 154 -311 c 1,13,14
 170 -311 170 -311 237.5 -298.5 c 128,-1,15
 305 -286 305 -286 305 -259 c 0,16,17
 305 -230 305 -230 267.5 -210.5 c 128,-1,18
 230 -191 230 -191 208 -183 c 1,19,20
 214 -183 214 -183 217 -101.5 c 128,-1,21
 220 -20 220 -20 220 -14 c 0,22,23
 220 -11 220 -11 277 -7.5 c 0,24,25
 331.879712928 -4.1301930658 331.879712928 -4.1301930658 332.067154212 -0.296892304108 c 1,3,-1
EndSplineSet
EndChar

StartChar: hungarumlaut
Encoding: 733 733 136
Width: 985
Flags: W
LayerCount: 2
UndoRedoHistory
Layer: 1
Undoes
UndoOperation
Index: 0
Type: 1
WasModified: 0
WasOrder2: 1
Width: 985
VWidth: 2048
LBearingChange: 0
UnicodeEnc: 0
InstructionsLength: 0
SplineSet
249 1481 m 1,0,-1
 560 1481 l 1,1,-1
 301 1163 l 1,2,-1
 143 1163 l 1,3,-1
 249 1481 l 1,0,-1
613 1481 m 1,4,-1
 853 1481 l 1,5,-1
 683 1163 l 1,6,-1
 428 1163 l 1,7,-1
 613 1481 l 1,4,-1
EndSplineSet
EndUndoOperation
EndUndoes
Redoes
EndRedoes
EndUndoRedoHistory
Fore
SplineSet
613 1481 m 1,0,-1
 853 1481 l 1,1,-1
 683 1163 l 1,2,-1
 428 1163 l 1,3,-1
 613 1481 l 1,0,-1
249 1481 m 1,4,-1
 560 1481 l 1,5,-1
 301 1163 l 1,6,-1
 143 1163 l 1,7,-1
 249 1481 l 1,4,-1
EndSplineSet
EndChar

StartChar: caron
Encoding: 711 711 137
Width: 877
Flags: W
LayerCount: 2
UndoRedoHistory
Layer: 1
Undoes
UndoOperation
Index: 0
Type: 1
WasModified: 0
WasOrder2: 1
Width: 877
VWidth: 2048
LBearingChange: 0
UnicodeEnc: 0
InstructionsLength: 0
SplineSet
110 1445 m 1,0,-1
 338 1445 l 1,1,-1
 436 1302 l 1,2,-1
 538 1445 l 1,3,-1
 766 1445 l 1,4,-1
 606 1149 l 1,5,-1
 268 1149 l 1,6,-1
 110 1445 l 1,0,-1
EndSplineSet
EndUndoOperation
EndUndoes
Redoes
EndRedoes
EndUndoRedoHistory
Fore
SplineSet
110 1445 m 1,0,-1
 338 1445 l 1,1,-1
 436 1302 l 1,2,-1
 538 1445 l 1,3,-1
 766 1445 l 1,4,-1
 606 1149 l 1,5,-1
 268 1149 l 1,6,-1
 110 1445 l 1,0,-1
EndSplineSet
EndChar

StartChar: s.alt
Encoding: 65537 -1 138
Width: 923
Flags: W
LayerCount: 2
UndoRedoHistory
Layer: 1
Undoes
UndoOperation
Index: 0
Type: 1
WasModified: 0
WasOrder2: 1
Width: 923
VWidth: 2048
LBearingChange: 0
UnicodeEnc: 0
InstructionsLength: 0
SplineSet
113 81 m 1,0,-1
 171 218 l 1,1,2
 202 199 202 199 287.5 163.5 c 128,-1,3
 373 128 373 128 478 128 c 0,4,5
 577 128 577 128 624.5 163.5 c 128,-1,6
 672 199 672 199 679 273 c 0,7,8
 684 328 684 328 647 366 c 128,-1,9
 610 404 610 404 557 430 c 2,10,-1
 344 536 l 2,11,12
 245 585 245 585 180.5 649 c 128,-1,13
 116 713 116 713 118 831 c 0,14,15
 121 977 121 977 220.5 1041 c 128,-1,16
 320 1105 320 1105 454 1105 c 0,17,18
 578 1105 578 1105 668 1074 c 128,-1,19
 758 1043 758 1043 799 1018 c 1,20,-1
 754 884 l 1,21,22
 717 905 717 905 634.5 931.5 c 128,-1,23
 552 958 552 958 469 958 c 0,24,25
 372 958 372 958 331.5 924 c 128,-1,26
 291 890 291 890 291 835 c 0,27,28
 291 792 291 792 314.5 760.5 c 128,-1,29
 338 729 338 729 404 695 c 2,30,-1
 622 583 l 2,31,32
 712 537 712 537 777.5 478.5 c 128,-1,33
 843 420 843 420 843 286 c 0,34,35
 843 146 843 146 748.5 63 c 128,-1,36
 654 -20 654 -20 490 -20 c 0,37,38
 398 -20 398 -20 289 7 c 128,-1,39
 180 34 180 34 113 81 c 1,40,-1
 113 81 l 1,0,-1
EndSplineSet
EndUndoOperation
EndUndoes
Redoes
EndRedoes
EndUndoRedoHistory
Fore
SplineSet
113 81 m 1,0,-1
 171 218 l 1,1,2
 202 199 202 199 287.5 163.5 c 128,-1,3
 373 128 373 128 478 128 c 0,4,5
 577 128 577 128 624.5 163.5 c 128,-1,6
 672 199 672 199 679 273 c 0,7,8
 684 328 684 328 647 366 c 128,-1,9
 610 404 610 404 557 430 c 2,10,-1
 344 536 l 2,11,12
 245 585 245 585 180.5 649 c 128,-1,13
 116 713 116 713 118 831 c 0,14,15
 121 977 121 977 220.5 1041 c 128,-1,16
 320 1105 320 1105 454 1105 c 0,17,18
 578 1105 578 1105 668 1074 c 128,-1,19
 758 1043 758 1043 799 1018 c 1,20,-1
 754 884 l 1,21,22
 717 905 717 905 634.5 931.5 c 128,-1,23
 552 958 552 958 469 958 c 0,24,25
 372 958 372 958 331.5 924 c 128,-1,26
 291 890 291 890 291 835 c 0,27,28
 291 792 291 792 314.5 760.5 c 128,-1,29
 338 729 338 729 404 695 c 2,30,-1
 622 583 l 2,31,32
 712 537 712 537 777.5 478.5 c 128,-1,33
 843 420 843 420 843 286 c 0,34,35
 843 146 843 146 748.5 63 c 128,-1,36
 654 -20 654 -20 490 -20 c 0,37,38
 398 -20 398 -20 289 7 c 128,-1,39
 180 34 180 34 113 81 c 1,0,-1
EndSplineSet
EndChar

StartChar: a.alt
Encoding: 65538 -1 139
Width: 1086
Flags: W
LayerCount: 2
UndoRedoHistory
Layer: 1
Undoes
UndoOperation
Index: 0
Type: 1
WasModified: 0
WasOrder2: 1
Width: 1086
VWidth: 2048
LBearingChange: 0
UnicodeEnc: 0
InstructionsLength: 0
SplineSet
949 815 m 1,0,-1
 949 0 l 1,1,-1
 816 0 l 1,2,-1
 781 112 l 1,3,4
 730 52 730 52 647 16 c 128,-1,5
 564 -20 564 -20 454 -20 c 0,6,7
 326 -20 326 -20 225 39.5 c 128,-1,8
 124 99 124 99 118 269 c 0,9,10
 114 370 114 370 188 458 c 128,-1,11
 262 546 262 546 521 562 c 2,12,-1
 761 577 l 1,13,-1
 761 816 l 2,14,15
 761 882 761 882 723 921.5 c 128,-1,16
 685 961 685 961 542 961 c 0,17,18
 383 961 383 961 355 913.5 c 128,-1,19
 327 866 327 866 327 812 c 2,20,-1
 327 711 l 1,21,-1
 146 711 l 1,22,-1
 146 798 l 2,23,24
 146 958 146 958 242 1031 c 128,-1,25
 338 1104 338 1104 545 1104 c 0,26,27
 775 1104 775 1104 862 1022.5 c 128,-1,28
 949 941 949 941 949 815 c 1,29,-1
 949 815 l 1,0,-1
761 463 m 1,30,-1
 548 448 l 2,31,32
 376 436 376 436 336.5 379.5 c 128,-1,33
 297 323 297 323 304 251 c 0,34,35
 311 175 311 175 354.5 144 c 128,-1,36
 398 113 398 113 485 113 c 0,37,38
 592 113 592 113 670.5 162 c 128,-1,39
 749 211 749 211 761 219 c 1,40,-1
 761 463 l 1,30,-1
EndSplineSet
EndUndoOperation
EndUndoes
Redoes
EndRedoes
EndUndoRedoHistory
Fore
SplineSet
761 463 m 1,0,-1
 548 448 l 2,1,2
 376 436 376 436 336.5 379.5 c 128,-1,3
 297 323 297 323 304 251 c 0,4,5
 311 175 311 175 354.5 144 c 128,-1,6
 398 113 398 113 485 113 c 0,7,8
 592 113 592 113 670.5 162 c 128,-1,9
 749 211 749 211 761 219 c 1,10,-1
 761 463 l 1,0,-1
949 815 m 2,11,-1
 949 0 l 1,12,-1
 816 0 l 1,13,-1
 781 112 l 1,14,15
 730 52 730 52 647 16 c 128,-1,16
 564 -20 564 -20 454 -20 c 0,17,18
 326 -20 326 -20 225 39.5 c 128,-1,19
 124 99 124 99 118 269 c 0,20,21
 114 370 114 370 188 458 c 128,-1,22
 262 546 262 546 521 562 c 2,23,-1
 761 577 l 1,24,-1
 761 816 l 2,25,26
 761 882 761 882 723 921.5 c 128,-1,27
 685 961 685 961 542 961 c 0,28,29
 383 961 383 961 355 913.5 c 128,-1,30
 327 866 327 866 327 812 c 2,31,-1
 327 711 l 1,32,-1
 146 711 l 1,33,-1
 146 798 l 2,34,35
 146 958 146 958 242 1031 c 128,-1,36
 338 1104 338 1104 545 1104 c 0,37,38
 775 1104 775 1104 862 1022.5 c 128,-1,39
 949 941 949 941 949 815 c 2,11,-1
EndSplineSet
EndChar

StartChar: b.alt
Encoding: 65539 -1 140
Width: 1145
Flags: W
LayerCount: 2
UndoRedoHistory
Layer: 1
Undoes
UndoOperation
Index: 0
Type: 1
WasModified: 0
WasOrder2: 1
Width: 1145
VWidth: 2048
LBearingChange: 0
UnicodeEnc: 0
InstructionsLength: 0
SplineSet
150 1459 m 1,0,-1
 338 1459 l 1,1,-1
 338 1032 l 1,2,3
 387 1070 387 1070 465 1087 c 128,-1,4
 543 1104 543 1104 597 1104 c 0,5,6
 799 1104 799 1104 908 1003.5 c 128,-1,7
 1017 903 1017 903 1017 747 c 2,8,-1
 1017 345 l 2,9,10
 1017 171 1017 171 916.5 75.5 c 128,-1,11
 816 -20 816 -20 610 -20 c 0,12,13
 529 -20 529 -20 444.5 12.5 c 128,-1,14
 360 45 360 45 338 83 c 1,15,-1
 338 0 l 1,16,-1
 150 0 l 1,17,-1
 150 1459 l 1,0,-1
582 124 m 1,18,19
 692 124 692 124 760.5 170 c 128,-1,20
 829 216 829 216 829 324 c 2,21,-1
 829 778 l 2,22,23
 829 875 829 875 758.5 917 c 128,-1,24
 688 959 688 959 585 959 c 0,25,26
 481 959 481 959 413 924.5 c 128,-1,27
 345 890 345 890 338 874 c 1,28,-1
 338 252 l 2,29,30
 338 207 338 207 397.5 165.5 c 128,-1,31
 457 124 457 124 582 124 c 1,32,-1
 582 124 l 1,18,19
EndSplineSet
EndUndoOperation
EndUndoes
Redoes
EndRedoes
EndUndoRedoHistory
Fore
SplineSet
582 124 m 0,0,1
 692 124 692 124 760.5 170 c 128,-1,2
 829 216 829 216 829 324 c 2,3,-1
 829 778 l 2,4,5
 829 875 829 875 758.5 917 c 128,-1,6
 688 959 688 959 585 959 c 0,7,8
 481 959 481 959 413 924.5 c 128,-1,9
 345 890 345 890 338 874 c 1,10,-1
 338 252 l 2,11,12
 338 207 338 207 397.5 165.5 c 128,-1,13
 457 124 457 124 582 124 c 0,0,1
150 1459 m 1,14,-1
 338 1459 l 1,15,-1
 338 1032 l 1,16,17
 387 1070 387 1070 465 1087 c 128,-1,18
 543 1104 543 1104 597 1104 c 0,19,20
 799 1104 799 1104 908 1003.5 c 128,-1,21
 1017 903 1017 903 1017 747 c 2,22,-1
 1017 345 l 2,23,24
 1017 171 1017 171 916.5 75.5 c 128,-1,25
 816 -20 816 -20 610 -20 c 0,26,27
 529 -20 529 -20 444.5 12.5 c 128,-1,28
 360 45 360 45 338 83 c 1,29,-1
 338 0 l 1,30,-1
 150 0 l 1,31,-1
 150 1459 l 1,14,-1
EndSplineSet
EndChar

StartChar: a.alt2
Encoding: 65540 -1 141
Width: 1148
Flags: W
LayerCount: 2
UndoRedoHistory
Layer: 1
Undoes
UndoOperation
Index: 0
Type: 1
WasModified: 0
WasOrder2: 1
Width: 1148
VWidth: 2048
LBearingChange: 0
UnicodeEnc: 0
InstructionsLength: 0
SplineSet
1085 129 m 1,0,-1
 1037 129 l 2,1,2
 996 129 996 129 975 156.5 c 128,-1,3
 954 184 954 184 954 247 c 0,4,5
 954 254 954 254 954 262 c 128,-1,6
 954 270 954 270 954 278 c 2,7,-1
 954 715 l 2,8,9
 954 881 954 881 861.5 992.5 c 128,-1,10
 769 1104 769 1104 560 1104 c 0,11,12
 353 1104 353 1104 248.5 1013.5 c 128,-1,13
 144 923 144 923 144 763 c 2,14,-1
 144 711 l 1,15,-1
 325 711 l 1,16,-1
 325 762 l 2,17,18
 325 827 325 827 362.5 894 c 128,-1,19
 400 961 400 961 559 961 c 0,20,21
 702 961 702 961 734 895 c 128,-1,22
 766 829 766 829 766 770 c 0,23,24
 766 689 766 689 691 660 c 128,-1,25
 616 631 616 631 526 614 c 0,26,27
 278 567 278 567 197.5 481.5 c 128,-1,28
 117 396 117 396 117 289 c 0,29,30
 117 164 117 164 203.5 72 c 128,-1,31
 290 -20 290 -20 458 -20 c 0,32,33
 604 -20 604 -20 678.5 34 c 128,-1,34
 753 88 753 88 788 143 c 1,35,36
 800 62 800 62 858.5 26 c 128,-1,37
 917 -10 917 -10 1010 -10 c 2,38,-1
 1085 -10 l 1,39,-1
 1085 129 l 1,0,-1
766 279 m 1,40,41
 744 204 744 204 657.5 160 c 128,-1,42
 571 116 571 116 487 116 c 0,43,44
 410 116 410 116 354.5 156 c 128,-1,45
 299 196 299 196 299 279 c 0,46,47
 299 357 299 357 344 404 c 128,-1,48
 389 451 389 451 541 488 c 0,49,50
 636 511 636 511 694.5 536.5 c 128,-1,51
 753 562 753 562 766 579 c 1,52,-1
 766 279 l 1,40,41
EndSplineSet
EndUndoOperation
EndUndoes
Redoes
EndRedoes
EndUndoRedoHistory
Fore
SplineSet
766 279 m 1,0,1
 744 204 744 204 657.5 160 c 128,-1,2
 571 116 571 116 487 116 c 0,3,4
 410 116 410 116 354.5 156 c 128,-1,5
 299 196 299 196 299 279 c 0,6,7
 299 357 299 357 344 404 c 128,-1,8
 389 451 389 451 541 488 c 0,9,10
 636 511 636 511 694.5 536.5 c 128,-1,11
 753 562 753 562 766 579 c 1,12,-1
 766 279 l 1,0,1
1085 129 m 1,13,-1
 1037 129 l 2,14,15
 996 129 996 129 975 156.5 c 128,-1,16
 954 184 954 184 954 247 c 0,17,18
 954 254 954 254 954 262 c 128,-1,19
 954 270 954 270 954 278 c 2,20,-1
 954 715 l 2,21,22
 954 881 954 881 861.5 992.5 c 128,-1,23
 769 1104 769 1104 560 1104 c 0,24,25
 353 1104 353 1104 248.5 1013.5 c 128,-1,26
 144 923 144 923 144 763 c 2,27,-1
 144 711 l 1,28,-1
 325 711 l 1,29,-1
 325 762 l 2,30,31
 325 827 325 827 362.5 894 c 128,-1,32
 400 961 400 961 559 961 c 0,33,34
 702 961 702 961 734 895 c 128,-1,35
 766 829 766 829 766 770 c 0,36,37
 766 689 766 689 691 660 c 128,-1,38
 616 631 616 631 526 614 c 0,39,40
 278 567 278 567 197.5 481.5 c 128,-1,41
 117 396 117 396 117 289 c 0,42,43
 117 164 117 164 203.5 72 c 128,-1,44
 290 -20 290 -20 458 -20 c 0,45,46
 604 -20 604 -20 678.5 34 c 128,-1,47
 753 88 753 88 788 143 c 1,48,49
 800 62 800 62 858.5 26 c 128,-1,50
 917 -10 917 -10 1010 -10 c 2,51,-1
 1085 -10 l 1,52,-1
 1085 129 l 1,13,-1
EndSplineSet
EndChar
